<?xml version="1.0" encoding="utf-8"?>
<!-- Generator: Adobe Illustrator 16.0.0, SVG Export Plug-In . SVG Version: 6.00 Build 0)  -->
<!DOCTYPE svg PUBLIC "-//W3C//DTD SVG 1.1//EN" "http://www.w3.org/Graphics/SVG/1.1/DTD/svg11.dtd">
<svg version="1.1" xmlns="http://www.w3.org/2000/svg" xmlns:xlink="http://www.w3.org/1999/xlink" x="0px" y="0px"
	 width="1544.25px" height="2322px" viewBox="0 0 1544.25 2322" enable-background="new 0 0 1544.25 2322" xml:space="preserve">
<g id="embedbase">
	<rect x="-8.75" y="10" fill="#90C965" width="1553" height="2312"/>
</g>
<g id="CMULAB">
	<polygon opacity="0.3" fill="#4C4E4F" points="678.167,2046.418 744.667,2072.918 793.167,1971.918 730.667,1940.418 
		742.167,1914.918 827.167,1954.918 756.667,2102.918 670.167,2066.918 	"/>
	<polygon opacity="0.3" fill="#4C4E4F" points="799.334,2098.751 807.667,2079.418 821.667,2084.085 825,2077.751 859.336,2091.418 
		847.334,2119.085 	"/>
	<polygon opacity="0.3" fill="#4C4E4F" points="932.002,2004.752 941.002,1986.085 975.668,1999.085 967.002,2019.419 	"/>
	<polygon opacity="0.3" fill="#4C4E4F" points="924.336,2084.751 950.336,2026.418 964.002,2031.418 938.668,2091.418 	"/>
	<polygon opacity="0.3" fill="#4C4E4F" points="871.336,2125.752 878.002,2112.085 896.002,2120.752 904.002,2102.918 
		922.336,2110.752 906.336,2141.085 	"/>
	<polygon opacity="0.3" fill="#4C4E4F" points="631.667,2099.752 642.667,2077.751 668.667,2088.752 659,2112.085 	"/>
	<polygon opacity="0.3" fill="#4C4E4F" points="777.417,2081.918 792.667,2089.668 797.917,2079.418 782.667,2071.918 	"/>
	<polygon opacity="0.3" fill="#4C4E4F" points="824.917,1995.918 831.417,1982.668 844.917,1989.293 839.167,2002.752 	"/>
	<polygon fill="#80CBEA" stroke="#2B2B2B" stroke-miterlimit="10" points="682.5,2055 749,2081.5 797.5,1980.5 735,1949 
		746.5,1923.5 831.5,1963.5 761,2111.5 674.5,2075.5 	"/>
	<polygon fill="#80CBEA" stroke="#2B2B2B" stroke-miterlimit="10" points="803.667,2107.333 812,2088 826,2092.667 
		829.333,2086.333 863.667,2100 851.667,2127.667 	"/>
	<polygon fill="#80CBEA" stroke="#2B2B2B" stroke-miterlimit="10" points="936.334,2013.334 945.334,1994.667 980,2007.667 
		971.334,2028.001 	"/>
	<polygon fill="#80CBEA" stroke="#2B2B2B" stroke-miterlimit="10" points="928.667,2093.333 954.667,2035 968.334,2040 943,2100 	
		"/>
	<polygon fill="#80CBEA" stroke="#2B2B2B" stroke-miterlimit="10" points="875.667,2134.334 882.334,2120.667 900.334,2129.334 
		908.334,2111.5 926.667,2119.334 910.667,2149.667 	"/>
	<polygon fill="#80CBEA" stroke="#2B2B2B" stroke-miterlimit="10" points="636,2108.334 647,2086.333 673,2097.334 
		663.333,2120.667 	"/>
	<polygon opacity="0.3" fill="#4C4E4F" points="617.167,1999.27 622.474,1988.718 635.017,1993.994 630.354,2005.185 	"/>
	<polygon fill="#80CBEA" stroke="#2B2B2B" stroke-miterlimit="10" points="620,2000.604 625.307,1990.052 637.851,1995.328 
		633.187,2006.519 	"/>
	<polygon fill="#80CBEA" stroke="#2B2B2B" stroke-miterlimit="10" points="781.75,2090.5 797,2098.25 802.25,2088 787,2080.5 	"/>
	<polygon fill="#80CBEA" stroke="#2B2B2B" stroke-miterlimit="10" points="829.25,2004.5 835.75,1991.25 849.25,1997.875 
		843.5,2011.334 	"/>
	<g>
		<polyline fill="none" stroke="#39B54A" stroke-width="6" stroke-miterlimit="10" points="603.333,1963.252 634.667,1976.667 
			646.667,2005.001 734,2040.667 761,2031.334 754.667,1998.666 670.167,1963.252 635.375,1975.75 		"/>
		<polyline fill="none" stroke="#FFFFFF" stroke-width="4" stroke-miterlimit="10" points="603.333,1963.252 634.667,1976.667 
			646.667,2005.001 734,2040.667 761,2031.334 754.667,1998.666 670.167,1963.252 635.375,1975.75 		"/>
	</g>
	<g>
		<line fill="none" stroke="#39B54A" stroke-width="6" stroke-miterlimit="10" x1="886.667" y1="2114" x2="932.002" y2="2008.918"/>
		<line fill="none" stroke="#FFFFFF" stroke-width="4" stroke-miterlimit="10" x1="886.667" y1="2114" x2="932.002" y2="2008.918"/>
	</g>
	<g>
		<line fill="none" stroke="#39B54A" stroke-width="6" stroke-miterlimit="10" x1="843" y1="2082.333" x2="849.25" y2="2065.999"/>
		<line fill="none" stroke="#FFFFFF" stroke-width="4" stroke-miterlimit="10" x1="843" y1="2082.333" x2="849.25" y2="2065.999"/>
	</g>
	<g>
		
			<line fill="none" stroke="#39B54A" stroke-width="6" stroke-miterlimit="10" x1="797.917" y1="2045.333" x2="944.169" y2="2112.085"/>
		
			<line fill="none" stroke="#FFFFFF" stroke-width="4" stroke-miterlimit="10" x1="797.917" y1="2045.333" x2="944.169" y2="2112.085"/>
	</g>
</g>
<g id="additionalstructures">
	<g id="tenniscourt">
		<polygon id="tcourt1_1_" fill="#EAD2C3" stroke="#92AC97" stroke-miterlimit="10" points="695.65,972.155 731.813,891.916 
			772.705,907.804 733.621,990.002 		"/>
		<polygon id="tcourt1_2_" fill="#EAD2C3" stroke="#92AC97" stroke-miterlimit="10" points="636.509,878.546 654.662,848.013 
			670.345,856.244 650.93,887.43 		"/>
	</g>
	<g id="univpool">
		<polygon fill="#FFFFFF" stroke="#ADB2AB" stroke-miterlimit="10" points="797.25,1068.125 827.672,1082 842.25,1050.488 
			812.081,1037.375 		"/>
		<path id="gazeebo1_1_" opacity="0.3" fill="#4C4E4F" d="M835.863,1015.27c0,0-6.627-2.73-8.797,4.326
			c-0.577,1.876,1.01,4.904,4.398,5.77c3.389,0.865,6.129-1.154,6.995-3.605C839.324,1019.308,836.813,1015.559,835.863,1015.27z"/>
		<polygon id="gazeebo2_1_" opacity="0.3" fill="#4C4E4F" points="836.728,1029.979 841.631,1018.73 853.601,1023.346 
			848.265,1034.451 		"/>
		<path id="gazeebo1" fill="#80CBEA" stroke="#2B2B2B" stroke-miterlimit="10" d="M837.665,1015.486c0,0-6.627-2.73-8.797,4.326
			c-0.577,1.875,1.01,4.903,4.399,5.769c3.389,0.865,6.129-1.154,6.995-3.605S838.615,1015.775,837.665,1015.486z"/>
		<polygon id="gazeebo2" fill="#80CBEA" stroke="#2B2B2B" stroke-miterlimit="10" points="838.53,1030.196 843.434,1018.947 
			855.403,1023.562 850.067,1034.667 		"/>
		<polygon id="pool1" fill="#67CDEF" stroke="#92AC97" stroke-miterlimit="10" points="812.5,1072.001 824.667,1046.001 
			839.333,1052.501 827,1077.835 		"/>
		<polygon id="pool2" fill="#67CDEF" stroke="#92AC97" stroke-miterlimit="10" points="807.813,1055.25 815.125,1058.063 
			809.375,1070.188 802.063,1067 		"/>
		<path id="pool3" fill="#67CDEF" stroke="#92AC97" stroke-miterlimit="10" d="M807.833,1052.829l8.583,3.583l6.083-12.167
			C822.5,1044.245,809.75,1032.329,807.833,1052.829z"/>
		
			<line fill="#92AC97" stroke="#10657B" stroke-width="0.5" stroke-miterlimit="10" x1="815.167" y1="1071.467" x2="825.917" y2="1048.606"/>
		
			<line fill="#92AC97" stroke="#10657B" stroke-width="0.5" stroke-miterlimit="10" x1="817.125" y1="1072.304" x2="827.875" y2="1049.443"/>
		
			<line fill="#92AC97" stroke="#10657B" stroke-width="0.5" stroke-miterlimit="10" x1="819.211" y1="1073.349" x2="829.961" y2="1050.488"/>
		
			<line fill="#92AC97" stroke="#10657B" stroke-width="0.5" stroke-miterlimit="10" x1="821.444" y1="1074.148" x2="832.194" y2="1051.288"/>
		
			<line fill="#92AC97" stroke="#10657B" stroke-width="0.5" stroke-miterlimit="10" x1="823.58" y1="1075.261" x2="834.33" y2="1052.4"/>
		
			<line fill="#92AC97" stroke="#10657B" stroke-width="0.5" stroke-miterlimit="10" x1="825.488" y1="1075.879" x2="836.238" y2="1053.019"/>
		<polygon id="gazeebo2_3_" opacity="0.3" fill="#4C4E4F" points="846.96,1062.849 849.209,1056.832 855.596,1058.91 
			853.116,1064.864 		"/>
		<polygon id="gazeebo2_2_" fill="#80CBEA" stroke="#2B2B2B" stroke-miterlimit="10" points="847.908,1062.912 850.158,1056.896 
			856.544,1058.974 854.064,1064.928 		"/>
		<polygon id="gazeebo2_5_" opacity="0.3" fill="#4C4E4F" points="843.189,1072.527 844.938,1066.347 851.473,1067.895 
			849.49,1074.032 		"/>
		<polygon id="gazeebo2_4_" fill="#80CBEA" stroke="#2B2B2B" stroke-miterlimit="10" points="844.018,1072.338 846.099,1066.261 
			852.54,1068.158 850.228,1074.18 		"/>
		<polygon id="gazeebo2_7_" opacity="0.3" fill="#4C4E4F" points="839.199,1081.573 841.237,1075.481 847.692,1077.336 
			845.421,1083.373 		"/>
		<polygon id="gazeebo2_6_" fill="#80CBEA" stroke="#2B2B2B" stroke-miterlimit="10" points="840.148,1081.604 842.188,1075.512 
			848.642,1077.366 846.371,1083.403 		"/>
		<polygon opacity="0.3" fill="#4C4E4F" points="854.032,1038.058 859.447,1025.009 866.969,1027.709 861.248,1040.425 		"/>
		<polygon fill="#80CBEA" stroke="#2B2B2B" stroke-miterlimit="10" points="856.209,1039.292 861.625,1026.243 869.146,1028.943 
			863.426,1041.659 		"/>
		<g id="poolfence">
			<polygon fill="none" stroke="#491B2D" stroke-miterlimit="10" points="782.335,1078.37 814.752,1005.311 869.729,1027.724 
				839.24,1103.107 			"/>
		</g>
	</g>
	<g id="skatingrink">
		<path fill="#B7B6B6" stroke="#9A9797" stroke-miterlimit="10" d="M737,767c0,0,16.333,0,19,13s-5.333,21-13,22
			s-20-0.667-22.333-14.333S729,768,737,767z"/>
	</g>
	<g id="fountain">
		<g>
			<path fill="#7FC466" stroke="#FFFFFF" stroke-miterlimit="10" d="M683.615,641.433c0,0,9.964-23.972,35.399-12.474
				c2.312,1.045,16.743,6.48,16.743,6.48l-26.241,54.145C709.515,689.584,663.513,669.362,683.615,641.433z"/>
		</g>
	</g>
	<g id="fullbright">
		<path fill="#36AD6C" stroke="#92AC97" stroke-miterlimit="10" d="M710.241,1164.507l25.146-67.49c0,0,35.143-20.085,47.235,14.002
			c0,0,3.6,56.36-39.221,78.057C700.58,1210.772,710.241,1164.507,710.241,1164.507z"/>
		<polygon opacity="0.3" fill="#4C4E4F" points="732.083,1157.661 735.802,1150.188 733.987,1147.675 734.688,1142.847 
			737.521,1142.866 738.707,1140.208 736.896,1136.862 739.604,1131.214 743.949,1129.578 746.496,1122.93 751.17,1121.796 
			753.818,1124.481 752.61,1130.307 755.25,1134.158 752.863,1141.642 749.189,1142.615 751.177,1144.464 749.457,1151.951 
			744.783,1152.918 742.063,1160.399 		"/>
		<polygon fill="#80CBEA" stroke="#2B2B2B" stroke-miterlimit="10" points="734.458,1157.678 738.177,1150.204 736.362,1147.691 
			737.063,1142.863 739.896,1142.884 741.082,1140.225 739.271,1136.879 741.979,1131.23 746.323,1129.595 748.871,1122.946 
			753.545,1121.813 756.193,1124.498 754.985,1130.323 757.625,1134.175 755.238,1141.658 751.564,1142.632 753.552,1144.48 
			751.832,1151.969 747.158,1152.936 744.438,1160.416 		"/>
	</g>
	<g id="grandstand">
		<rect id="main_2_" x="565.333" y="1390" opacity="0.3" fill="#4C4E4F" width="20.667" height="28"/>
		<rect id="main" x="571.667" y="1390" fill="#80CBEA" stroke="#2B2B2B" stroke-miterlimit="10" width="20.667" height="28"/>
		<rect id="bcourt1" x="598.25" y="1388.25" fill="#EAD2C3" stroke="#92AC97" stroke-miterlimit="10" width="23.5" height="35"/>
		<rect id="vcourt1" x="602.25" y="1348.75" fill="#EAD2C3" stroke="#92AC97" stroke-miterlimit="10" width="18" height="25"/>
		<rect id="vcourt2" x="603.75" y="1438.25" fill="#EAD2C3" stroke="#92AC97" stroke-miterlimit="10" width="18" height="25"/>
		<polygon id="stcourt1" fill="#EAD2C3" stroke="#92AC97" stroke-miterlimit="10" points="604.75,1323 614,1303 627,1309 
			617.75,1328.5 		"/>
		<polygon id="stcourt2" fill="#EAD2C3" stroke="#92AC97" stroke-miterlimit="10" points="617.75,1295.75 627,1275.75 640,1281.75 
			630.75,1301.25 		"/>
		<rect id="bvcourt" x="603.75" y="1476.5" fill="#EAD2C3" stroke="#92AC97" stroke-miterlimit="10" width="25" height="36"/>
		<path id="trackfield" fill="#EAD2C3" stroke="#92AC97" stroke-miterlimit="10" d="M648.5,1476.5l-6.5-145.25
			c0,0,6.5-41.25,50.5-42.75s48.5,31.5,50,33s10,150,10,150s-10,33-47,38S651,1478,648.5,1476.5z"/>
		
			<rect id="bcourt1_1_" x="793.115" y="533.101" transform="matrix(-0.9033 -0.4289 0.4289 -0.9033 1295.7478 1393.2177)" fill="#EAD2C3" stroke="#92AC97" stroke-miterlimit="10" width="23.5" height="35"/>
		
			<rect id="bcourt1_2_" x="952.124" y="391.468" transform="matrix(0.3366 -0.9417 0.9417 0.3366 254.3662 1178.972)" fill="#EAD2C3" stroke="#92AC97" stroke-miterlimit="10" width="23.5" height="35"/>
		<path id="trackfield_1_" fill="#90C965" d="M658.379,1467.851l-5.187-128.682c0,0,5.187-36.545,40.298-37.876
			c35.112-1.328,38.703,27.909,39.9,29.237c1.197,1.329,7.979,132.89,7.979,132.89s-7.979,29.237-37.505,33.666
			C674.339,1501.517,660.375,1469.18,658.379,1467.851z"/>
	</g>
	<g id="mgt2adm">
		
			<line fill="none" stroke="#D6D3D3" stroke-width="16" stroke-miterlimit="10" x1="895.089" y1="744.044" x2="1051.781" y2="817.91"/>
		<path fill="none" stroke="#D6D3D3" stroke-width="16" stroke-miterlimit="10" d="M955.833,569.728"/>
		<path fill="none" stroke="#D6D3D3" stroke-width="16" stroke-miterlimit="10" d="M962.784,759.125"/>
	</g>
	<g id="sportcomplexfence">
		<polyline fill="none" stroke="#1B3F1C" stroke-width="2" stroke-miterlimit="10" points="708.5,1635.25 649.667,1607.333 
			592.333,1521.331 589.667,1418 		"/>
		<polyline fill="none" stroke="#1B3F1C" stroke-width="2" stroke-miterlimit="10" points="589.667,1390 594.333,1327 
			649.083,1209.332 776.5,1264.665 747.771,1342.773 825.333,1383 		"/>
	</g>
	<g id="frontfence">
		<path fill="none" stroke="#81847F" stroke-width="6" stroke-miterlimit="10" d="M1367.354,217.257
			c-0.097,0.515-0.501,1.088-0.725,1.573c-11.043-6.235-22.086-12.471-33.128-18.707C1306,185,1279,169,1251,154c-13,0-26-2-39-3
			c-8,0-17-1-25-1c-16-2-31-2-47-4c-101-31-201-52-307-78c-35-8-67-15-101.151-23"/>
		<polyline fill="none" stroke="#81847F" stroke-width="6" stroke-miterlimit="10" points="1366.63,218.83 647.334,1775.334 
			525,1738.667 10.633,1295 		"/>
		<path fill="none" stroke="#454942" stroke-width="6" stroke-miterlimit="10" d="M1931.927,1494.5"/>
		<path fill="none" stroke="#454942" stroke-width="6" stroke-miterlimit="10" d="M711.583,1636.305"/>
		
			<line fill="none" stroke="#FFFFFF" stroke-width="4" stroke-miterlimit="10" x1="1085.395" y1="813.724" x2="1099.312" y2="820.25"/>
		<line fill="none" stroke="#81847F" stroke-width="6" stroke-miterlimit="10" x1="697.25" y1="1796" x2="1436.708" y2="200"/>
	</g>
	<ellipse id="flag" fill="#878C8E" stroke="#2B2B2B" stroke-miterlimit="10" cx="956.834" cy="772.591" rx="5.355" ry="5.197"/>
	<ellipse id="flag_1_" fill="#1DC3F4" stroke="#3B50A2" stroke-miterlimit="10" cx="705.142" cy="653.304" rx="5.355" ry="5.197"/>
	
		<ellipse id="hospitalfountain" fill="#1DC3F4" stroke="#3B50A2" stroke-miterlimit="10" cx="472.073" cy="933.19" rx="10.073" ry="9.777"/>
	<g id="parkingspaces">
		<line fill="none" stroke="#D6D3D3" stroke-width="14" stroke-miterlimit="10" x1="956.374" y1="572.151" x2="1004" y2="594.098"/>
		
			<line fill="none" stroke="#D6D3D3" stroke-width="14" stroke-miterlimit="10" x1="1007.25" y1="595.098" x2="1057.46" y2="617.971"/>
		
			<line fill="none" stroke="#D6D3D3" stroke-width="16" stroke-miterlimit="10" x1="865.742" y1="913.731" x2="913.758" y2="936.646"/>
		
			<line fill="none" stroke="#D6D3D3" stroke-width="16" stroke-miterlimit="10" x1="805.789" y1="884.633" x2="853.711" y2="907.745"/>
		
			<line fill="none" stroke="#D6D3D3" stroke-width="27" stroke-miterlimit="10" x1="616.333" y1="669.475" x2="593.614" y2="724.333"/>
		<line fill="none" stroke="#D6D3D3" stroke-width="27" stroke-miterlimit="10" x1="771.3" y1="632.333" x2="835.7" y2="661.127"/>
		
			<line fill="none" stroke="#D6D3D3" stroke-width="28" stroke-miterlimit="10" x1="361.5" y1="962.675" x2="422.361" y2="964.679"/>
		
			<line fill="none" stroke="#D6D3D3" stroke-width="28" stroke-miterlimit="10" x1="418.629" y1="516.064" x2="445.232" y2="461.289"/>
		
			<line fill="none" stroke="#D6D3D3" stroke-width="9" stroke-miterlimit="10" x1="288.719" y1="596.849" x2="260.598" y2="622.349"/>
	</g>
	<polyline fill="none" stroke="#81847F" stroke-width="6" stroke-miterlimit="10" points="631.667,1963.252 699.547,1819 1023,1941 
		953.835,2111.5 	"/>
	<polyline fill="none" stroke="#81847F" stroke-width="6" stroke-miterlimit="10" points="620,1982.668 535,2176 863.667,2307 
		948.5,2119.085 	"/>
</g>
<g id="gate">
	
		<line fill="none" stroke="#90C965" stroke-width="9" stroke-miterlimit="10" x1="1098.221" y1="798.667" x2="1068.857" y2="863.916"/>
	<path fill="none" stroke="#90C965" stroke-width="9" stroke-miterlimit="10" d="M1071.401,857.684"/>
	<polyline fill="none" stroke="#81847F" stroke-width="4" stroke-miterlimit="10" points="1069.625,866.333 1066.573,862.306 
		1059.216,852.598 1057.586,849.276 1062.47,839.115 	"/>
	<polyline fill="none" stroke="#81847F" stroke-width="4" stroke-miterlimit="10" points="1075.68,805.618 1079.168,797.524 
		1101.224,797.849 	"/>
	<path fill="none" stroke="#81847F" stroke-width="4" stroke-miterlimit="10" d="M1050.833,836.663"/>
</g>
<g id="road">
	<g>
		<polyline fill="none" stroke="#5FBB46" stroke-width="6" stroke-miterlimit="10" points="1082.5,224.668 1041.497,326.486 
			1039.261,332.038 1038.833,333.101 941.378,575.1 		"/>
		<polyline fill="none" stroke="#FFFFFF" stroke-width="4" stroke-miterlimit="10" points="1082.5,224.668 1041.497,326.486 
			1039.261,332.038 1038.833,333.101 941.378,575.1 		"/>
	</g>
	<g>
		<path fill="none" stroke="#5FBB46" stroke-width="6" stroke-miterlimit="10" d="M673.024,427.678L688,460.671l314.461,143.614
			l58.789,26.849l-145.333,317.56L691.756,839.868l-99.423-48.267c0,0-5.161-1.854-5.333-1.921
			c-15.052-5.857-55.361-24.85-33.167-53.346"/>
		<path fill="none" stroke="#FFFFFF" stroke-width="4" stroke-miterlimit="10" d="M673.024,427.678L688,460.671l314.461,143.614
			l58.789,26.849l-145.333,317.56L691.756,839.868l-99.423-48.267c0,0-5.161-1.854-5.333-1.921
			c-15.052-5.857-55.361-24.85-33.167-53.346"/>
	</g>
	<g>
		<polyline fill="none" stroke="#5FBB46" stroke-width="6" stroke-miterlimit="10" points="1105,823.017 1083.441,812.808 
			1078.974,810.693 903.5,727.601 917,697.75 844.25,661.25 796.5,760 870,795.601 886.5,761.5 921.589,777.549 923.334,778.348 
			950.75,790.886 1037.083,830.374 1047.1,834.955 1058.167,840.017 		"/>
		<polyline fill="none" stroke="#FFFFFF" stroke-width="4" stroke-miterlimit="10" points="1105,823.017 1083.441,812.808 
			1078.974,810.693 903.5,727.601 917,697.75 844.25,661.25 796.5,760 870,795.601 886.5,761.5 921.589,777.549 923.334,778.348 
			950.75,790.886 1037.083,830.374 1047.1,834.955 1058.167,840.017 		"/>
	</g>
	<g>
		<path fill="none" stroke="#5FBB46" stroke-width="6" stroke-miterlimit="10" d="M738.132,635.886c0,0-40.464-26.22-57.465,5.614
			s30.358,51.837,30.385,51.78"/>
		<path fill="none" stroke="#FFFFFF" stroke-width="4" stroke-miterlimit="10" d="M738.132,635.886c0,0-40.464-26.22-57.465,5.614
			s30.358,51.837,30.385,51.78"/>
	</g>
	<g>
		<polyline fill="none" stroke="#5FBB46" stroke-width="6" stroke-miterlimit="10" points="909.905,271.823 834.25,302.684 
			849.064,310.835 882.753,329.37 		"/>
		<polyline fill="none" stroke="#FFFFFF" stroke-width="4" stroke-miterlimit="10" points="909.905,271.823 834.25,302.684 
			849.064,310.835 882.753,329.37 		"/>
	</g>
	<g>
		
			<line fill="none" stroke="#5FBB46" stroke-width="6" stroke-miterlimit="10" x1="850.537" y1="295.083" x2="849.758" y2="310.835"/>
		
			<line fill="none" stroke="#FFFFFF" stroke-width="4" stroke-miterlimit="10" x1="850.537" y1="295.083" x2="849.758" y2="310.835"/>
	</g>
	<g>
		<line fill="none" stroke="#5FBB46" stroke-width="6" stroke-miterlimit="10" x1="483" y1="72.5" x2="640.099" y2="265.792"/>
		<line fill="none" stroke="#FFFFFF" stroke-width="4" stroke-miterlimit="10" x1="483" y1="72.5" x2="640.099" y2="265.792"/>
	</g>
	<g>
		<line fill="none" stroke="#5FBB46" stroke-width="6" stroke-miterlimit="10" x1="688" y1="460.671" x2="650.872" y2="467.629"/>
		<line fill="none" stroke="#FFFFFF" stroke-width="4" stroke-miterlimit="10" x1="688" y1="460.671" x2="650.872" y2="467.629"/>
	</g>
	<g>
		<path fill="none" stroke="#5FBB46" stroke-width="6" stroke-miterlimit="10" d="M238,976h47.5l102.5,5l39.333-2.5
			c0,0,27.667-1.965,93.667-40.732S605.458,890.961,633.333,858l91.075-193.028L927.751,234"/>
		<path fill="none" stroke="#FFFFFF" stroke-width="4" stroke-miterlimit="10" d="M238,976h47.5l102.5,5l39.333-2.5
			c0,0,27.667-1.965,93.667-40.732S605.458,890.961,633.333,858l91.075-193.028L927.751,234"/>
	</g>
	<g>
		<path fill="none" stroke="#5FBB46" stroke-width="6" stroke-miterlimit="10" d="M258.619,641.5l256.714,298.601L534,1024
			c0,0,15.5,59.5,66.5,58.5s53.166-0.143,87.083,25"/>
		<path fill="none" stroke="#FFFFFF" stroke-width="4" stroke-miterlimit="10" d="M258.619,641.5l256.714,298.601L534,1024
			c0,0,15.5,59.5,66.5,58.5s53.166-0.143,87.083,25"/>
	</g>
	<g>
		<path fill="none" stroke="#5FBB46" stroke-width="6" stroke-miterlimit="10" d="M584,724.5c0,0,39.925-0.902,4.712,65.799"/>
		<path fill="none" stroke="#FFFFFF" stroke-width="4" stroke-miterlimit="10" d="M584,724.5c0,0,39.925-0.902,4.712,65.799"/>
	</g>
	
		<line fill="none" stroke="#FFFFFF" stroke-width="4" stroke-miterlimit="10" x1="543.508" y1="924.634" x2="509.277" y2="944.499"/>
	<polyline fill="none" stroke="#FFFFFF" stroke-width="4" stroke-miterlimit="10" points="582.875,787.992 594.845,792.82 
		664.447,826.61 	"/>
	<line fill="none" stroke="#FFFFFF" stroke-width="4" stroke-miterlimit="10" x1="732.75" y1="632.882" x2="738.333" y2="635.459"/>
	<line fill="none" stroke="#FFFFFF" stroke-width="4" stroke-miterlimit="10" x1="705.142" y1="690.378" x2="711.052" y2="693.28"/>
	
		<line fill="none" stroke="#FFFFFF" stroke-width="4" stroke-miterlimit="10" x1="786.744" y1="505.768" x2="809.164" y2="516.006"/>
	<polyline display="none" fill="none" stroke="#FFFFFF" stroke-width="4" stroke-miterlimit="10" points="672.473,428.916 
		671.999,429.981 652.185,474.51 	"/>
	<line fill="none" stroke="#FFFFFF" stroke-width="4" stroke-miterlimit="10" x1="687.83" y1="460.297" x2="683.469" y2="450.688"/>
	
		<line fill="none" stroke="#FFFFFF" stroke-width="4" stroke-miterlimit="10" x1="673.024" y1="427.678" x2="680.538" y2="444.232"/>
	<polyline fill="none" stroke="#FFFFFF" stroke-width="4" stroke-miterlimit="10" points="836.333,413.854 842.5,413.927 
		851.836,418.237 	"/>
	<polyline fill="none" stroke="#FFFFFF" stroke-width="4" stroke-miterlimit="10" points="946.111,563.346 945.788,564.148 
		940.769,576.11 	"/>
	<line fill="none" stroke="#FFFFFF" stroke-width="4" stroke-miterlimit="10" x1="1001.17" y1="762.411" x2="975.661" y2="818.15"/>
	
		<line fill="none" stroke="#FFFFFF" stroke-width="4" stroke-miterlimit="10" x1="842.027" y1="299.511" x2="861.738" y2="291.471"/>
	
		<line fill="none" stroke="#FFFFFF" stroke-width="4" stroke-miterlimit="10" x1="844.032" y1="308.066" x2="854.118" y2="313.615"/>
	<line fill="none" stroke="#FFFFFF" stroke-width="4" stroke-miterlimit="10" x1="871.391" y1="323.119" x2="882.753" y2="329.37"/>
	
		<line fill="none" stroke="#FFFFFF" stroke-width="4" stroke-miterlimit="10" x1="889.084" y1="280.316" x2="909.905" y2="271.823"/>
	<polyline fill="none" stroke="#FFFFFF" stroke-width="4" stroke-miterlimit="10" points="918.875,234 926.875,234 933.24,233.365 	
		"/>
	
		<line fill="none" stroke="#FFFFFF" stroke-width="4" stroke-miterlimit="10" x1="631.303" y1="268.663" x2="648.493" y2="262.978"/>
	
		<line fill="none" stroke="#FFFFFF" stroke-width="4" stroke-miterlimit="10" x1="247.216" y1="649.152" x2="267.333" y2="635.652"/>
	<g>
		<polyline fill="none" stroke="#5FBB46" stroke-width="6" stroke-miterlimit="10" points="530.686,1460.006 525.667,1453.334 
			682.939,1117.394 731.88,1012.854 744.745,985.373 745.075,984.668 790.436,887.775 		"/>
		<polyline fill="none" stroke="#FFFFFF" stroke-width="4" stroke-miterlimit="10" points="530.686,1460.006 525.667,1453.334 
			682.939,1117.394 731.88,1012.854 744.745,985.373 745.075,984.668 790.436,887.775 		"/>
	</g>
	
		<line fill="none" stroke="#FFFFFF" stroke-width="4" stroke-miterlimit="10" x1="517.882" y1="1448.75" x2="525.357" y2="1453.151"/>
	<g display="none">
		<polyline display="inline" fill="#FFFFFF" points="681.465,1102.798 690.57,1109.5 725.341,1132.334 		"/>
		<polyline display="inline" fill="none" stroke="#5FBA46" stroke-width="8" stroke-miterlimit="10" points="681.465,1102.798 
			690.57,1109.5 725.341,1132.334 		"/>
		<polyline display="inline" fill="none" stroke="#FFFFFF" stroke-width="4" stroke-miterlimit="10" points="681.465,1102.798 
			690.57,1109.5 725.341,1132.334 		"/>
	</g>
	<line fill="none" stroke="#FFFFFF" stroke-width="4" stroke-miterlimit="10" x1="780.25" y1="882.83" x2="803.75" y2="894.239"/>
	<g>
		<polyline fill="none" stroke="#5FBB46" stroke-width="6" stroke-miterlimit="10" points="907.25,719.309 886.637,761.236 
			886.06,762.411 		"/>
		<polyline fill="none" stroke="#FFFFFF" stroke-width="4" stroke-miterlimit="10" points="907.25,719.309 886.637,761.236 
			886.06,762.411 		"/>
	</g>
	<line fill="none" stroke="#FFFFFF" stroke-width="4" stroke-miterlimit="10" x1="910.75" y1="772.591" x2="886.637" y2="761.236"/>
	<line fill="none" stroke="#FFFFFF" stroke-width="4" stroke-miterlimit="10" x1="923.33" y1="736.991" x2="903.276" y2="727.39"/>
	<g>
		<path fill="none" stroke="#5FBA46" stroke-width="6" stroke-miterlimit="10" d="M883.667,676.667"/>
		<path fill="none" stroke="#FFFFFF" stroke-width="4" stroke-miterlimit="10" d="M883.667,676.667"/>
	</g>
	<g>
		<path fill="none" stroke="#5FBA46" stroke-width="6" stroke-miterlimit="10" d="M933.667,576.11"/>
		<path fill="none" stroke="#FFFFFF" stroke-width="4" stroke-miterlimit="10" d="M933.667,576.11"/>
	</g>
	<g>
		<path fill="none" stroke="#5FBA46" stroke-width="6" stroke-miterlimit="10" d="M906.62,684.655"/>
		<path fill="none" stroke="#FFFFFF" stroke-width="4" stroke-miterlimit="10" d="M906.62,684.655"/>
	</g>
	<g>
		<path fill="none" stroke="#5FBA46" stroke-width="6" stroke-miterlimit="10" d="M955.06,581.989"/>
		<path fill="none" stroke="#FFFFFF" stroke-width="4" stroke-miterlimit="10" d="M955.06,581.989"/>
	</g>
	<g>
		<line fill="none" stroke="#FFFFFF" stroke-width="4" stroke-miterlimit="10" x1="835" y1="782.5" x2="787.5" y2="882.83"/>
	</g>
	<g>
		<line fill="none" stroke="#FFFFFF" stroke-width="4" stroke-miterlimit="10" x1="797.75" y1="887" x2="846.5" y2="787"/>
	</g>
	<g>
		
			<line fill="none" stroke="#FFFFFF" stroke-width="4" stroke-miterlimit="10" x1="610.646" y1="881.25" x2="659.667" y2="909.667"/>
	</g>
	<g>
		<line fill="none" stroke="#FFFFFF" stroke-width="4" stroke-miterlimit="10" x1="736.375" y1="861.53" x2="725.333" y2="886"/>
	</g>
	<g>
		
			<line fill="none" stroke="#5FBA46" stroke-width="6" stroke-miterlimit="10" x1="730.688" y1="1020.063" x2="746.92" y2="1027.705"/>
		
			<line fill="none" stroke="#FFFFFF" stroke-width="4" stroke-miterlimit="10" x1="730.688" y1="1020.063" x2="746.92" y2="1027.705"/>
	</g>
	<g>
		
			<line fill="none" stroke="#5FBA46" stroke-width="6" stroke-miterlimit="10" x1="748.583" y1="981.971" x2="810.25" y2="1010.25"/>
		
			<line fill="none" stroke="#FFFFFF" stroke-width="4" stroke-miterlimit="10" x1="748.583" y1="981.971" x2="810.25" y2="1010.25"/>
	</g>
	<g>
		<polyline fill="none" stroke="#5FBA46" stroke-width="6" stroke-miterlimit="10" points="914.917,951.434 887,1015.101 
			920.25,1031.976 		"/>
		<polyline fill="none" stroke="#FFFFFF" stroke-width="4" stroke-miterlimit="10" points="914.917,951.434 887,1015.101 
			920.25,1031.976 		"/>
	</g>
	<g>
		<polyline fill="none" stroke="#5FBA46" stroke-width="6" stroke-miterlimit="10" points="1224.75,278.529 1204.98,325.351 
			1201.285,334.101 1117.75,531.93 980.305,479.5 		"/>
		<polyline fill="none" stroke="#FFFFFF" stroke-width="4" stroke-miterlimit="10" points="1224.75,278.529 1204.98,325.351 
			1201.285,334.101 1117.75,531.93 980.305,479.5 		"/>
	</g>
	<g>
		<polyline fill="none" stroke="#5FBA46" stroke-width="6" stroke-miterlimit="10" points="1091.861,349.782 1094.304,350.86 
			1178.518,388.017 		"/>
		<polyline fill="none" stroke="#FFFFFF" stroke-width="4" stroke-miterlimit="10" points="1091.861,349.782 1094.304,350.86 
			1178.518,388.017 		"/>
	</g>
	
		<line fill="none" stroke="#FFFFFF" stroke-width="4" stroke-miterlimit="10" x1="786.185" y1="885.711" x2="836.545" y2="779.396"/>
	<polyline fill="none" stroke="#FFFFFF" stroke-width="4" stroke-miterlimit="10" points="847.328,784.619 847.872,784.882 
		796.5,889.333 	"/>
	
		<line fill="none" stroke="#FFFFFF" stroke-width="4" stroke-miterlimit="10" x1="723.783" y1="855.417" x2="749.128" y2="867.721"/>
	
		<line fill="none" stroke="#FFFFFF" stroke-width="4" stroke-miterlimit="10" x1="604.996" y1="885.904" x2="616.709" y2="875.775"/>
	<line fill="none" stroke="#FFFFFF" stroke-width="4" stroke-miterlimit="10" x1="936.743" y1="573.595" x2="883.257" y2="680.08"/>
	
		<line fill="none" stroke="#FFFFFF" stroke-width="4" stroke-miterlimit="10" x1="892.585" y1="686.438" x2="943.439" y2="578.217"/>
	<polyline fill="none" stroke="#FFFFFF" stroke-width="4" stroke-miterlimit="10" points="975.905,489.362 983.363,470.844 
		984.704,467.514 984.207,468.75 976.311,488.356 	"/>
	<path fill="none" stroke="#FFFFFF" stroke-width="4" stroke-miterlimit="10" d="M1044.296,319.536
		c0.931-2.312,1.861-4.624,2.793-6.936"/>
	
		<line fill="none" stroke="#FFFFFF" stroke-width="4" stroke-miterlimit="10" x1="1181.903" y1="380.001" x2="1174.512" y2="397.505"/>
	<polyline fill="none" stroke="#FFFFFF" stroke-width="4" stroke-miterlimit="10" points="1094.304,350.86 1105.002,327.251 
		1102.375,333.101 	"/>
	<g>
		<polyline fill="none" stroke="#5FBA46" stroke-width="6" stroke-miterlimit="10" points="1052.47,330.375 1042.006,325.221 
			1095.402,351.345 1142.625,243.411 1142.625,243.411 		"/>
		<polyline fill="none" stroke="#FFFFFF" stroke-width="4" stroke-miterlimit="10" points="1052.47,330.375 1042.006,325.221 
			1095.402,351.345 1142.625,243.411 1142.625,243.411 		"/>
	</g>
	
		<line fill="none" stroke="#FFFFFF" stroke-width="4" stroke-miterlimit="10" x1="1078.379" y1="234.902" x2="1082.5" y2="224.668"/>
	
		<line fill="none" stroke="#FFFFFF" stroke-width="4" stroke-miterlimit="10" x1="1138.25" y1="253.465" x2="1144.453" y2="239.554"/>
	<g>
		<polyline fill="none" stroke="#5FBA46" stroke-width="6" stroke-miterlimit="10" points="1037.55,336.287 1047.9,310.585 
			1042.255,324.603 1038.833,333.101 		"/>
		<polyline fill="none" stroke="#FFFFFF" stroke-width="4" stroke-miterlimit="10" points="1037.55,336.287 1047.9,310.585 
			1042.255,324.603 1038.833,333.101 		"/>
	</g>
	
		<line fill="none" stroke="#FFFFFF" stroke-width="4" stroke-miterlimit="10" x1="1042.725" y1="325.575" x2="1099.652" y2="353.22"/>
	
		<line fill="none" stroke="#FFFFFF" stroke-width="4" stroke-miterlimit="10" x1="1211.166" y1="272.351" x2="1234.501" y2="282.964"/>
	<g>
		<path fill="none" stroke="#5FBA46" stroke-width="6" stroke-miterlimit="10" d="M442.336,384.267
			c0,0-122.336,15.903-199.336-73.682"/>
		<path fill="none" stroke="#FFFFFF" stroke-width="4" stroke-miterlimit="10" d="M442.336,384.267
			c0,0-122.336,15.903-199.336-73.682"/>
	</g>
	<line fill="none" stroke="#FFFFFF" stroke-width="4" stroke-miterlimit="10" x1="441.211" y1="374.935" x2="443.468" y2="393.65"/>
	<g>
		<polyline fill="none" stroke="#5FBB46" stroke-width="6" stroke-miterlimit="10" points="403.333,510.395 579.833,600.229 
			599.462,563.889 601.441,560.224 602.964,557.404 613.281,538.305 613.635,537.649 674.896,424.239 680.166,412.395 
			843.021,414.327 980.002,479.996 		"/>
		<polyline fill="none" stroke="#FFFFFF" stroke-width="4" stroke-miterlimit="10" points="403.333,510.395 579.833,600.229 
			599.462,563.889 601.441,560.224 602.964,557.404 613.281,538.305 613.635,537.649 674.896,424.239 680.166,412.395 
			843.021,414.327 980.002,479.996 		"/>
	</g>
	
		<line fill="none" stroke="#FFFFFF" stroke-width="4" stroke-miterlimit="10" x1="398.992" y1="518.735" x2="409.511" y2="497.255"/>
	<line fill="none" stroke="#FFFFFF" stroke-width="4" stroke-miterlimit="10" x1="915.917" y1="948.693" x2="887" y2="1015.101"/>
	
		<line fill="none" stroke="#FFFFFF" stroke-width="4" stroke-miterlimit="10" x1="678.663" y1="440.101" x2="673.024" y2="427.678"/>
	<line fill="none" stroke="#FFFFFF" stroke-width="4" stroke-miterlimit="10" x1="847.76" y1="403.535" x2="838.6" y2="422.95"/>
	
		<line fill="#FFFFFF" stroke="#FFFFFF" stroke-width="4" stroke-miterlimit="10" x1="684.719" y1="1113.592" x2="690.405" y2="1101.444"/>
	<g>
		<path fill="none" stroke="#5FBA46" stroke-width="6" stroke-miterlimit="10" d="M374.317,980.333
			c0,0-12.983,110.334,30.35,113.334"/>
		<path fill="none" stroke="#FFFFFF" stroke-width="4" stroke-miterlimit="10" d="M374.317,980.333
			c0,0-12.983,110.334,30.35,113.334"/>
	</g>
	
		<line fill="#7FC466" stroke="#FFFFFF" stroke-width="4" stroke-miterlimit="10" x1="977.085" y1="486.434" x2="984.207" y2="468.75"/>
	<path fill="none" stroke="#FFFFFF" stroke-width="4" stroke-miterlimit="10" d="M853.75,918.513"/>
	<g>
		
			<line fill="none" stroke="#FFFFFF" stroke-width="4" stroke-miterlimit="10" x1="855.75" y1="919.483" x2="921.589" y2="777.549"/>
	</g>
	
		<line fill="none" stroke="#FFFFFF" stroke-width="4" stroke-miterlimit="10" x1="913.557" y1="773.875" x2="931.262" y2="781.974"/>
	
		<line fill="none" stroke="#FFFFFF" stroke-width="4" stroke-miterlimit="10" x1="850.121" y1="916.751" x2="868.021" y2="925.441"/>
	<polyline fill="none" stroke="#FFFFFF" stroke-width="4" stroke-miterlimit="10" points="938.225,744.044 1001.17,603.695 
		1018.256,566.354 	"/>
	
		<line fill="#7FC466" stroke="#FFFFFF" stroke-width="4" stroke-miterlimit="10" x1="365.685" y1="979.642" x2="385.982" y2="981.025"/>
	
		<line fill="#7FC466" stroke="#FFFFFF" stroke-width="4" stroke-miterlimit="10" x1="690.333" y1="839.177" x2="675.708" y2="867.721"/>
	<polyline fill="none" stroke="#FFFFFF" stroke-width="4" stroke-miterlimit="10" points="1047.102,795.601 1058,772.5 
		1065.664,775.665 	"/>
	
		<line fill="#7FC466" stroke="#FFFFFF" stroke-width="4" stroke-miterlimit="10" x1="1043.301" y1="622.937" x2="985.5" y2="744.044"/>
	
		<line fill="#7FC466" stroke="#FFFFFF" stroke-width="4" stroke-miterlimit="10" x1="1057.46" y1="629.403" x2="1102.359" y2="526.059"/>
	
		<line fill="#7FC466" stroke="#FFFFFF" stroke-width="4" stroke-miterlimit="10" x1="1117.166" y1="301.601" x2="1124.5" y2="305.351"/>
	
		<line fill="#7FC466" stroke="#FFFFFF" stroke-width="4" stroke-miterlimit="10" x1="1033.9" y1="345.351" x2="999.276" y2="330.79"/>
	
		<line fill="#7FC466" stroke="#FFFFFF" stroke-width="4" stroke-miterlimit="10" x1="1016.588" y1="388.017" x2="988.25" y2="375.25"/>
	
		<line fill="none" stroke="#FFFFFF" stroke-width="4" stroke-miterlimit="10" x1="729.849" y1="479.783" x2="729.849" y2="479.783"/>
	<line fill="none" stroke="#FFFFFF" stroke-width="4" stroke-miterlimit="10" x1="729.178" y1="479.477" x2="723" y2="493.167"/>
	<g>
		<line fill="none" stroke="#5FBA46" stroke-width="6" stroke-miterlimit="10" x1="755.251" y1="415" x2="755.251" y2="491.385"/>
		<line fill="none" stroke="#FFFFFF" stroke-width="4" stroke-miterlimit="10" x1="755.251" y1="415" x2="755.251" y2="491.385"/>
	</g>
	
		<line fill="none" stroke="#FFFFFF" stroke-width="4" stroke-miterlimit="10" x1="745.414" y1="486.892" x2="771.385" y2="498.752"/>
	<polyline fill="none" stroke="#FFFFFF" stroke-width="4" stroke-miterlimit="10" points="680,412 671.667,347.101 608.363,276.07 	
		"/>
	<line stroke="#FFFFFF" stroke-width="3" stroke-miterlimit="10" x1="834.269" y1="302.32" x2="816.231" y2="301.738"/>
	<g>
		<polyline fill="none" stroke="#5FBB46" stroke-width="6" stroke-miterlimit="10" points="576.623,1344.49 556,1332.667 
			499.733,1437.024 		"/>
		<polyline fill="none" stroke="#FFFFFF" stroke-width="4" stroke-miterlimit="10" points="576.623,1344.49 556,1332.667 
			499.733,1437.024 		"/>
	</g>
	<line fill="none" stroke="#FFFFFF" stroke-width="4" stroke-miterlimit="10" x1="490.296" y1="1430" x2="511.417" y2="1444.944"/>
	
		<line fill="none" stroke="#FFFFFF" stroke-width="4" stroke-miterlimit="10" x1="582.158" y1="1332.667" x2="572.695" y2="1352.879"/>
	<line fill="none" stroke="#FFFFFF" stroke-width="4" stroke-miterlimit="10" x1="556" y1="1332.667" x2="534.305" y2="1320.77"/>
	<path fill="none" stroke="#FFFFFF" stroke-width="4" stroke-miterlimit="10" d="M485.021,904.842c0,0-55.354,6.958-54.021,29.725
		s29.686,33.813,29.686,33.813"/>
	<g>
		<path fill="none" stroke="#5FBB46" stroke-width="6" stroke-miterlimit="10" d="M693.294,628.634c0,0,10.373-26.301,5.04-30.634
			s-90.464-50.377-90.464-50.377"/>
		<path fill="none" stroke="#FFFFFF" stroke-width="4" stroke-miterlimit="10" d="M693.294,628.634c0,0,10.373-26.301,5.04-30.634
			s-90.464-50.377-90.464-50.377"/>
	</g>
	<path fill="none" stroke="#FFFFFF" stroke-width="4" stroke-miterlimit="10" d="M689.248,631.134c0,0,5.085-5.58,17.419-5.398"/>
	<line fill="#7FC466" stroke="#FFFFFF" stroke-miterlimit="10" x1="673.655" y1="462.94" x2="669.48" y2="464.131"/>
	<line fill="none" stroke="#FFFFFF" stroke-width="4" stroke-miterlimit="10" x1="605.132" y1="553.391" x2="612.89" y2="539.03"/>
	
		<line fill="none" stroke="#FFFFFF" stroke-width="4" stroke-miterlimit="10" x1="651.523" y1="467.507" x2="672.556" y2="463.565"/>
	<path fill="none" stroke="#FFFFFF" stroke-width="4" stroke-miterlimit="10" d="M290.75,596.25
		c-1.105,1.105,27.169-24.647,49.179-28.507c0.149-0.026,0.298-0.051,0.447-0.075c1.994-0.324,3.934-0.464,5.793-0.384
		c0.672,0.029,1.334,0.087,1.984,0.175"/>
	<path fill="none" stroke="#FFFFFF" stroke-width="4" stroke-miterlimit="10" d="M348.153,542.503
		c9.597-7.253-11.29,17.125-3.221,27.311"/>
	<polyline fill="none" stroke="#FFFFFF" stroke-width="4" stroke-miterlimit="10" points="504.553,99.019 504.982,99.546 
		503.932,98.254 481.5,112.667 	"/>
	<line fill="none" stroke="#FFFFFF" stroke-width="4" stroke-miterlimit="10" x1="912.907" y1="955.604" x2="960.917" y2="977.61"/>
	
		<line fill="none" stroke="#FFFFFF" stroke-width="4" stroke-miterlimit="10" x1="1113.001" y1="826.669" x2="1083.441" y2="812.808"/>
	
		<line fill="none" stroke="#FFFFFF" stroke-width="4" stroke-miterlimit="10" x1="1036.167" y1="829.955" x2="1029.25" y2="845.268"/>
	
		<line fill="none" stroke="#FFFFFF" stroke-width="4" stroke-miterlimit="10" x1="721.167" y1="1134.289" x2="681.406" y2="1118.534"/>
	
		<line fill="none" stroke="#FFFFFF" stroke-width="4" stroke-miterlimit="10" x1="681.98" y1="1103.361" x2="687.583" y2="1107.518"/>
	<path fill="#7EC466" d="M1094.833,818.15"/>
	<polyline fill="none" stroke="#FFFFFF" stroke-width="4" stroke-miterlimit="10" points="598.25,1434.997 598.25,1441.25 
		598.25,1544.668 598.25,1549.664 	"/>
	<line fill="none" stroke="#FFFFFF" stroke-width="4" stroke-miterlimit="10" x1="953.815" y1="779.903" x2="949.426" y2="790.28"/>
	
		<line fill="#7FC466" stroke="#FFFFFF" stroke-width="4" stroke-miterlimit="10" x1="960.125" y1="766.125" x2="971.75" y2="738.75"/>
	<path fill="#4C4E4F" d="M1206.334,322.141"/>
	<path fill="none" stroke="#5FBA46" stroke-width="6" stroke-miterlimit="10" d="M1215.708,333.101"/>
	
		<line fill="none" stroke="#FFFFFF" stroke-width="4" stroke-miterlimit="10" x1="1212.389" y1="340.846" x2="1200.637" y2="335.636"/>
	<g>
		<path fill="none" stroke="#5FBB46" stroke-width="6" stroke-miterlimit="10" d="M1306.666,315.785l3.168,1.441L1114.75,228.5
			c0,0-43.25-7.664-81.25-3.832c-32.805,3.308-88.464,7.982-106.073,9.093c-2.788,0.176-4.622,0.262-5.26,0.239
			C917.5,233.833,747,231,709.5,243S638,266.5,638,266.5l-202,65.226l9.5,78.774L440,436l-49.5,100.5l-38.844,28.398l-2.019,1.476
			l-1.485,1.085L331,580l-54.5,49.5L239,654.667l-96,27.667l-16,33.999l-10,34.333l6.333,21.333L238,976l-55.5,216.5l1.5,9.5
			l317.385,236.254l5.032,3.746l19.25,11.334l69.969,93.025l4.326,5.75L642,1608.002l1.5,4.998l51.372,23.729l2.053,0.948
			l2.325,1.073"/>
		<path fill="none" stroke="#FFFFFF" stroke-width="4" stroke-miterlimit="10" d="M1306.666,315.785l3.168,1.441L1114.75,228.5
			c0,0-43.25-7.664-81.25-3.832c-32.805,3.308-88.464,7.982-106.073,9.093c-2.788,0.176-4.622,0.262-5.26,0.239
			C917.5,233.833,747,231,709.5,243S638,266.5,638,266.5l-202,65.226l9.5,78.774L440,436l-49.5,100.5l-38.844,28.398l-2.019,1.476
			l-1.485,1.085L331,580l-54.5,49.5L239,654.667l-96,27.667l-16,33.999l-10,34.333l6.333,21.333L238,976l-55.5,216.5l1.5,9.5
			l317.385,236.254l5.032,3.746l19.25,11.334l69.969,93.025l4.326,5.75L642,1608.002l1.5,4.998l51.372,23.729l2.053,0.948
			l2.325,1.073"/>
	</g>
	<g>
		
			<line fill="none" stroke="#5FBB46" stroke-width="6" stroke-miterlimit="10" x1="1316.501" y1="320.167" x2="1309.834" y2="317.226"/>
		
			<line fill="none" stroke="#FFFFFF" stroke-width="4" stroke-miterlimit="10" x1="1316.501" y1="320.167" x2="1309.834" y2="317.226"/>
	</g>
	<line fill="none" stroke="#FFFFFF" stroke-width="4" stroke-miterlimit="10" x1="925.349" y1="239.09" x2="927.751" y2="234"/>
	
		<line fill="none" stroke="#FFFFFF" stroke-width="4" stroke-miterlimit="10" x1="1080.439" y1="229.785" x2="1082.5" y2="224.668"/>
	
		<line fill="none" stroke="#FFFFFF" stroke-width="4" stroke-miterlimit="10" x1="1139.625" y1="250.382" x2="1143.543" y2="241.595"/>
	
		<line fill="none" stroke="#FFFFFF" stroke-width="4" stroke-miterlimit="10" x1="1222.151" y1="284.683" x2="1224.429" y2="279.291"/>
	<g>
		<polyline fill="none" stroke="#5FBA46" stroke-width="6" stroke-miterlimit="10" points="1080.863,974.351 1119.01,993.983 
			1146,1007.875 1214,862.5 		"/>
		<polyline fill="none" stroke="#FFFFFF" stroke-width="4" stroke-miterlimit="10" points="1080.863,974.351 1119.01,993.983 
			1146,1007.875 1214,862.5 		"/>
	</g>
	<g>
		<line fill="none" stroke="#5FBB46" stroke-width="6" stroke-miterlimit="10" x1="695.566" y1="1637.049" x2="705.5" y2="1642"/>
		<line fill="none" stroke="#FFFFFF" stroke-width="23" stroke-miterlimit="10" x1="695.566" y1="1637.049" x2="705.5" y2="1642"/>
	</g>
	<polyline fill="none" stroke="#FFFFFF" stroke-width="4" stroke-miterlimit="10" points="430.976,931.163 460.679,933.145 
		461.375,933.191 	"/>
	
		<line fill="none" stroke="#FFFFFF" stroke-width="4" stroke-miterlimit="10" x1="509.394" y1="933.191" x2="482.917" y2="933.191"/>
	<g>
		
			<line fill="none" stroke="#5FBB46" stroke-width="6" stroke-miterlimit="10" x1="417.36" y1="517.535" x2="403.353" y2="510.405"/>
		
			<line fill="none" stroke="#FFFFFF" stroke-width="4" stroke-miterlimit="10" x1="417.36" y1="517.535" x2="403.353" y2="510.405"/>
	</g>
	<line fill="none" stroke="#FFFFFF" stroke-width="4" stroke-miterlimit="10" x1="401.597" y1="513.97" x2="405.889" y2="505.257"/>
	<line fill="none" stroke="#FFFFFF" stroke-width="4" stroke-miterlimit="10" x1="403.743" y1="506.875" x2="387" y2="498.163"/>
	<line fill="none" stroke="#FFFFFF" stroke-width="4" stroke-miterlimit="10" x1="258.619" y1="641.5" x2="265.975" y2="650.056"/>
	<line fill="none" stroke="#FFFFFF" stroke-width="4" stroke-miterlimit="10" x1="238" y1="976" x2="246.917" y2="976"/>
	
		<line fill="none" stroke="#FFFFFF" stroke-width="4" stroke-miterlimit="10" x1="504.046" y1="1429.025" x2="499.733" y2="1436.678"/>
	
		<line fill="none" stroke="#FFFFFF" stroke-width="4" stroke-miterlimit="10" x1="525.357" y1="1453.151" x2="529.078" y2="1446.048"/>
	<g>
		
			<line fill="none" stroke="#5FBB46" stroke-width="6" stroke-miterlimit="10" x1="1059.682" y1="840.633" x2="1050.833" y2="836.663"/>
		
			<line fill="none" stroke="#FFFFFF" stroke-width="4" stroke-miterlimit="10" x1="1059.682" y1="840.633" x2="1050.833" y2="836.663"/>
	</g>
</g>
<g id="highway">
	<polyline fill="none" stroke="#FFFFFF" stroke-width="23" stroke-miterlimit="10" points="1445,132 1442.316,137.679 
		1441.209,140.023 1438.618,145.506 1426.02,172.166 1401.207,224.667 1123.27,812.809 1122.324,814.809 1121.186,817.219 
		1119.753,820.25 1096.102,870.298 1092.188,878.579 1089.5,884.268 1083.426,897.528 717.752,1695.826 676.996,1784.8 431,2322 	
		"/>
	<path fill="#7EC466" d="M1504,10"/>
	<path fill="none" stroke="#FFFFFF" stroke-width="23" stroke-miterlimit="10" d="M1504,0"/>
	<path fill="none" stroke="#FFFFFF" stroke-width="23" stroke-miterlimit="10" d="M1494.333,0"/>
	<path fill="none" stroke="#FFFFFF" stroke-width="23" stroke-miterlimit="10" d="M1451.072,117.734"/>
	<line fill="none" stroke="#FFFFFF" stroke-width="23" stroke-miterlimit="10" x1="1504" y1="0" x2="1436.708" y2="149.548"/>
</g>
<g id="Buildings">
	<g id="ptgc">
		<polygon fill="#80CBEA" stroke="#2B2B2B" stroke-miterlimit="10" points="1120.001,953 1154.334,969.75 1143.667,991.601 
			1109.001,974.334 		"/>
	</g>
	<g id="maingate">
		<polygon id="Shadow" opacity="0.3" fill="#4C4E4F" points="1048.916,832.601 1053.166,824.601 1051.041,823.601 1056.833,812.184 
			1058.916,813.351 1061.583,807.017 1073.083,812.351 1070.666,818.434 1073.583,819.809 1069.083,830.351 1066.499,829.684 
			1062.083,839.017 		"/>
		<polygon id="Building" fill="#80CCEB" stroke="#2B2B2B" stroke-miterlimit="10" points="1052.25,833.601 1056.5,825.601 
			1054.375,824.601 1060.167,813.184 1062.25,814.351 1064.917,808.017 1076.417,813.351 1074,819.434 1076.917,820.809 
			1072.417,831.351 1069.833,830.684 1065.417,840.017 		"/>
	</g>
	<g id="market">
		<polygon id="market1_1_" opacity="0.3" fill="#4C4E4F" points="622.72,1641.784 633.236,1618.123 690.783,1641.784 
			654.269,1713.061 629.439,1701.083 653.1,1653.469 		"/>
		<polygon opacity="0.3" fill="#4C4E4F" points="605.777,1695.826 653.393,1715.106 629.584,1760.791 584.453,1741.105 		"/>
		<polygon id="market1" fill="#80CBEA" stroke="#2B2B2B" stroke-miterlimit="10" points="631.484,1646.166 642,1622.504 
			699.547,1646.166 663.032,1717.441 638.202,1705.465 661.864,1657.85 		"/>
		<polygon fill="#80CBEA" stroke="#2B2B2B" stroke-miterlimit="10" points="614.541,1700.208 662.156,1719.488 638.348,1765.173 
			593.217,1745.486 		"/>
		<path fill="#80CBEA" stroke="#2B2B2B" stroke-miterlimit="10" d="M680.333,2048.011"/>
	</g>
	<g id="securityoffice">
		<polygon opacity="0.3" fill="#4C4E4F" points="1023.333,875.435 1027.666,864.268 1024.666,862.435 1028.833,855.268 
			1032.499,855.935 1036.999,845.268 1050.833,851.768 1041.333,872.601 1045.166,873.435 1040.666,882.935 		"/>
		<polygon fill="#80CBEA" stroke="#2B2B2B" stroke-miterlimit="10" points="1026.667,876.768 1031,865.601 1028,863.768 
			1032.167,856.601 1035.833,857.268 1040.333,846.601 1054.167,853.101 1044.667,873.934 1048.5,874.768 1044,884.268 		"/>
	</g>
	<g id="prio">
		<polygon id="shadows" opacity="0.3" fill="#4C4E4F" points="1060.5,786.653 1070.257,764.101 1086.891,771.618 1078.094,793.851 
					"/>
		<polygon id="Building_1_" fill="#80CBEA" stroke="#2B2B2B" stroke-miterlimit="10" points="1063.859,787.133 1073.616,764.581 
			1090.25,772.098 1081.453,794.331 		"/>
	</g>
	<g id="admin">
		<polygon id="shadows_1_" opacity="0.3" fill="#4C4E4F" points="805,757.524 845.964,669.475 904.35,697.255 861.973,785.775 		"/>
		<polygon id="building" fill="#80CBEA" stroke="#2B2B2B" stroke-miterlimit="10" points="810.65,760.35 851.614,672.3 910,700.081 
			867.623,788.601 		"/>
	</g>
	<g id="ucc">
		<polygon id="shadow" opacity="0.3" fill="#4C4E4F" points="734.5,700.601 790.5,724.101 813.5,671.101 758.5,646.601 		"/>
		<polygon id="building_1_" fill="#80CBEA" stroke="#2B2B2B" stroke-miterlimit="10" points="743,704.101 799,727.601 822,674.601 
			767,650.101 		"/>
	</g>
	<g id="univlib">
		<polygon id="shadows1" opacity="0.3" fill="#4C4E4F" points="645.667,663.934 643,652.601 656,649.268 658.333,660.768 		"/>
		<polygon id="shadows2" opacity="0.3" fill="#4C4E4F" points="670.833,614.5 668.167,603.167 681.167,599.834 683.5,611.334 		"/>
		<polygon id="shadows_3" opacity="0.3" fill="#4C4E4F" points="633.333,639 649.667,605.167 670.333,615.167 680.667,620.167 
			665.667,652.101 		"/>
		<polygon id="libbuidling3" fill="#80CBEA" stroke="#2B2B2B" stroke-miterlimit="10" points="638.333,641.5 654.667,607.667 
			675.333,617.667 685.667,622.667 670.667,654.601 		"/>
		<polygon id="libbuilding2" fill="#80CBEA" stroke="#2B2B2B" stroke-miterlimit="10" points="675.333,616.167 672.667,604.833 
			685.667,601.5 688,613 		"/>
		<polygon id="libbuilding1" fill="#80CBEA" stroke="#2B2B2B" stroke-miterlimit="10" points="649.333,665.834 646.667,654.501 
			659.667,651.168 662,662.668 		"/>
	</g>
	<g id="univhosp">
		<polygon opacity="0.3" fill="#4C4E4F" points="362.052,911.525 375.944,911.481 376.005,930.794 405.15,933.071 407.11,910.026 
			422.361,911.672 420.12,952.336 359.798,948.124 		"/>
		<polygon fill="#80CBEA" stroke="#2B2B2B" stroke-miterlimit="10" points="367.643,911.508 381.535,911.463 381.597,930.776 
			410.741,933.053 412.701,910.008 427.953,911.653 425.71,952.318 365.389,948.106 		"/>
	</g>
	<g id="univmuseum">
		<polygon id="shadows_2_" opacity="0.3" fill="#4C4E4F" points="923.125,787.601 960.125,803.851 943.875,838.017 932.875,832.351 
			941.625,813.851 927.375,807.101 917.625,826.351 907.375,820.601 		"/>
		<polygon id="building_2_" fill="#80CBEA" stroke="#2B2B2B" stroke-miterlimit="10" points="926.5,789.601 963.5,805.851 
			947.25,840.017 936.25,834.351 945,815.851 930.75,809.101 921,828.351 910.75,822.601 		"/>
	</g>
	<g id="ufls">
		<polygon opacity="0.3" fill="#4C4E4F" points="844.25,927.601 881.75,943.101 878.667,951.601 890,955.351 888.5,959.601 
			899.75,963.851 876,1015.101 846,1001.101 844.25,1005.351 829.5,998.851 824.25,1008.351 803.75,998.601 812.5,980.601 
			824.5,983.351 840.25,949.101 835.75,946.5 		"/>
		<polygon fill="#80CBEA" stroke="#2B2B2B" stroke-miterlimit="10" points="848.25,928.601 885.75,944.101 882.667,952.601 
			894,956.351 892.5,960.601 903.75,964.851 880,1016.101 850,1002.101 848.25,1006.351 833.5,999.851 828.25,1009.351 
			807.75,999.601 816.5,981.601 828.5,984.351 844.25,950.101 839.75,947.5 		"/>
	</g>
	<g id="ftc">
		<polygon opacity="0.3" fill="#4C4E4F" points="800.75,911.1 836.75,927.35 821.25,963.35 783.75,945.6 		"/>
		<polygon fill="#80CBEA" stroke="#2B2B2B" stroke-miterlimit="10" points="807.75,914.851 843.75,931.101 828.25,967.101 
			790.75,949.351 		"/>
	</g>
	<g id="osa">
		<polygon opacity="0.3" fill="#4C4E4F" points="736.375,1049.476 759.625,1001.476 780.25,1011.101 774.875,1022.101 
			768.25,1018.851 750.75,1056.476 		"/>
		<polygon fill="#80CBEA" stroke="#2B2B2B" stroke-miterlimit="10" points="740.375,1052.476 763.625,1004.476 784.25,1014.101 
			778.875,1025.101 772.25,1021.851 754.75,1059.476 		"/>
	</g>
	<g id="imdc">
		<polygon opacity="0.3" fill="#4C4E4F" points="915.917,980.851 921.417,967.101 946.667,977.101 940.417,991.601 		"/>
		<polygon opacity="0.3" fill="#4C4E4F" points="939.917,1013.451 954.167,981.101 981.917,993.101 968.167,1025.351 		"/>
		<polygon fill="#80CBEA" stroke="#2B2B2B" stroke-miterlimit="10" points="921.25,983.5 926.75,969.75 952,979.75 945.75,994.25 		
			"/>
		<polygon fill="#80CBEA" stroke="#2B2B2B" stroke-miterlimit="10" points="945.25,1016.101 959.5,983.75 987.25,995.75 973.5,1028 
					"/>
	</g>
	<g id="socialhall">
		<ellipse opacity="0.3" fill="#4C4E4F" cx="688.548" cy="896.798" rx="18.203" ry="17.668"/>
		<ellipse opacity="0.3" fill="#4C4E4F" cx="675.708" cy="875.775" rx="6.625" ry="6"/>
		<ellipse opacity="0.3" fill="#4C4E4F" cx="708.042" cy="881.775" rx="6.625" ry="6"/>
		<ellipse fill="#80CBEA" stroke="#2B2B2B" stroke-miterlimit="10" cx="692.118" cy="898.918" rx="18.204" ry="17.668"/>
		<ellipse fill="#80CBEA" stroke="#2B2B2B" stroke-miterlimit="10" cx="679.875" cy="878.25" rx="6.625" ry="6"/>
		<ellipse fill="#80CBEA" stroke="#2B2B2B" stroke-miterlimit="10" cx="712.208" cy="884.25" rx="6.625" ry="6"/>
		<polygon opacity="0.3" fill="#4C4E4F" points="660.539,921.983 666.039,908.233 691.289,918.233 685.039,932.733 		"/>
		<polygon fill="#80CBEA" stroke="#2B2B2B" stroke-miterlimit="10" points="664.9,923.417 670.4,909.667 695.65,919.667 
			689.4,934.168 		"/>
	</g>
	<g id="ngs">
		<polygon id="shadows_3_" opacity="0.3" fill="#4C4E4F" points="896.667,838.873 918.833,849.04 915.333,856.707 927.333,862.373 
			906.333,907.205 874.167,892.039 878.333,882.705 896.833,889.872 909.333,862.205 890,852.539 		"/>
		<polygon id="building_3_" fill="#80CBEA" stroke="#2B2B2B" stroke-miterlimit="10" points="903.167,838.767 925.333,848.934 
			921.833,856.601 933.833,862.267 912.833,907.099 880.667,891.933 884.833,882.599 903.333,889.766 915.833,862.099 
			896.5,852.433 		"/>
	</g>
	<g id="cas">
		<polygon id="extshadows" opacity="0.3" fill="#4C4E4F" points="1022.828,422.911 1025.678,415.349 1019.75,411.791 
			1042.094,356.193 1051.898,357.972 1054.405,349.077 1078.232,355.969 1076.181,364.643 1065.92,362.308 1043.006,417.683 
			1051.556,420.152 1047.11,430.693 		"/>
		<polyline id="luyosacasshadows" opacity="0.3" fill="#4C4E4F" points="1103.876,429.181 1106.431,420.88 1111.22,422.477 
			1122.714,392.465 1157.834,408.748 1140.273,446.422 1138.678,450.573 1095.895,434.56 1097.811,427.904 1102.28,429.181 		"/>
		<polygon id="chemshadows" opacity="0.3" fill="#4C4E4F" points="1013.75,473.75 1021.25,453 1028.5,455.75 1028.5,459.75 
			1099.75,484.75 1098.5,490.25 1106.75,494 1102.5,506 		"/>
		<polygon id="shadowsannex" opacity="0.3" fill="#4C4E4F" points="1066.667,613.434 1096.667,543.434 1109.333,549.434 
			1079.667,619.101 		"/>
		<polygon id="shadowsmain" opacity="0.3" fill="#4C4E4F" points="952.834,726.27 997.5,622.937 1014.167,633.603 983.5,700.937 
			991.167,705.603 1020.834,637.27 1036.167,646.603 987.834,752.937 963.5,737.937 965.5,733.27 		"/>
		<polygon id="main_1_" fill="#80CBEA" stroke="#2B2B2B" stroke-miterlimit="10" points="957.334,728.27 1002,624.937 
			1018.667,635.603 988,702.937 995.667,707.603 1025.334,639.27 1040.667,648.603 992.334,754.937 968,739.937 970,735.27 		"/>
		<polygon id="annex" fill="#80CBEA" stroke="#2B2B2B" stroke-miterlimit="10" points="1073.001,615.934 1103.001,545.934 
			1115.667,551.934 1086.001,621.601 		"/>
		<polygon id="ext" display="none" fill="#80CBEA" stroke="#2B2B2B" stroke-miterlimit="10" points="1028.642,424.539 
			1031.491,416.786 1025.564,413.139 1047.907,356.139 1057.712,357.962 1060.22,348.842 1084.046,355.909 1081.994,364.801 
			1071.734,362.407 1048.82,419.179 1057.37,421.71 1052.924,432.517 		"/>
		<polygon id="chem" fill="#80CBEA" stroke="#2B2B2B" stroke-miterlimit="10" points="1018.75,475.75 1026.25,455 1033.5,457.75 
			1033.5,461.75 1104.75,486.75 1103.5,492.25 1111.75,496 1107.5,508 		"/>
		<polyline id="luyosacas_1_" fill="#80CBEA" stroke="#2B2B2B" stroke-miterlimit="10" points="1109.398,431.135 1111.953,422.834 
			1116.742,424.43 1128.236,394.418 1163.356,410.701 1145.796,448.376 1144.2,452.526 1101.417,436.514 1103.333,429.858 
			1107.803,431.135 		"/>
		<polygon id="casextnew" fill="#80CBEA" stroke="#2B2B2B" stroke-miterlimit="10" points="1028.642,424.539 1031.491,416.786 
			1025.564,413.139 1047.907,356.139 1057.712,357.962 1060.22,348.842 1083.642,357.661 1122,372.667 1091.861,448 		"/>
		<polygon fill="#90C965" stroke="#000000" stroke-miterlimit="10" points="1046.692,415.359 1076.607,426.879 1096.299,377.17 
			1064.672,365.963 		"/>
		<polygon opacity="0.3" fill="#4C4E4F" points="1071.496,424.166 1076.251,426.166 1095.895,377.5 1091.367,375.423 		"/>
	</g>
	<g id="cbm">
		<polygon id="newshadows" opacity="0.3" fill="#4C4E4F" points="860.667,504.184 916.167,529.184 907.667,547.934 851.667,524.184 
					"/>
		<polygon id="mainshadows" opacity="0.3" fill="#4C4E4F" points="835.334,478.351 857.584,432.601 871.834,439.601 
			857.584,471.601 881.584,483.351 892.584,461.101 904.334,467.101 894.084,488.851 915.584,498.851 931.334,467.851 
			942.834,473.601 922.084,518.101 		"/>
		<polygon id="main_3_" fill="#80CBEA" stroke="#2B2B2B" stroke-miterlimit="10" points="841,480.351 863.25,434.601 877.5,441.601 
			863.25,473.601 887.25,485.351 898.25,463.101 910,469.101 899.75,490.851 921.25,500.851 937,469.851 948.5,475.601 
			927.75,520.101 		"/>
		<polygon id="new" fill="#80CBEA" stroke="#2B2B2B" stroke-miterlimit="10" points="866,506.851 921.5,531.851 913,550.601 
			857,526.851 		"/>
	</g>
	<g id="coed">
		<polygon id="shadows_8_" opacity="0.3" fill="#4C4E4F" points="977.167,527.601 988.167,532.934 996.667,515.601 999.501,516.601 
			992.001,534.767 1001.667,539.767 1014.834,510.267 989.834,498.267 		"/>
		<polygon id="shadows_7_" opacity="0.3" fill="#4C4E4F" points="962.334,561.933 975.001,531.6 986.501,537.433 977.167,557.433 
			980.667,558.767 989.667,539.767 1000.167,543.934 985.501,573.1 		"/>
		<polygon id="shadows_6_" opacity="0.3" fill="#4C4E4F" points="1020.667,509.6 1060.167,528.1 1044.167,561.433 1034.167,556.933 
			1032.334,560.267 1039.001,564.1 1025.501,594.098 1011.834,587.598 1020.834,567.598 1011.167,562.932 1002.167,581.768 
			990.334,575.765 1003.667,545.432 1012.834,550.265 1014.834,546.098 1006.001,542.098 		"/>
		<polygon id="shadows_5_" opacity="0.3" fill="#4C4E4F" points="1046.5,562.597 1060.167,530.93 1084.5,543.097 1070.833,575.597 
			1060.167,569.764 1068.166,552.35 1064.666,550.764 1056.5,568.264 		"/>
		<polygon id="shadows_4_" opacity="0.3" fill="#4C4E4F" points="1044.166,567.263 1055.166,573.1 1046.5,591.596 1049.666,593.263 
			1058.333,574.263 1069,580.263 1055,607.93 1030.666,596.43 		"/>
		<polygon fill="#80CBEA" stroke="#2B2B2B" stroke-miterlimit="10" points="980.167,528.601 991.167,533.934 999.667,516.601 
			1002.501,517.601 995.001,535.767 1004.667,540.767 1017.834,511.267 992.834,499.267 		"/>
		<polygon fill="#80CBEA" stroke="#2B2B2B" stroke-miterlimit="10" points="965.334,562.933 978.001,532.6 989.501,538.433 
			980.167,558.433 983.667,559.767 992.667,540.767 1003.167,544.934 988.501,574.1 		"/>
		<polygon fill="#80CBEA" stroke="#2B2B2B" stroke-miterlimit="10" points="1023.667,510.6 1063.167,529.1 1047.167,562.433 
			1037.167,557.933 1035.334,561.267 1042.001,565.1 1028.501,595.098 1014.834,588.598 1023.834,568.598 1014.167,563.932 
			1005.167,582.768 993.334,576.765 1006.667,546.432 1015.834,551.265 1017.834,547.098 1009.001,543.098 		"/>
		<polygon fill="#80CBEA" stroke="#2B2B2B" stroke-miterlimit="10" points="1049.5,563.597 1063.167,531.93 1087.5,544.097 
			1073.833,576.597 1063.167,570.764 1071.166,553.35 1067.666,551.764 1059.5,569.264 		"/>
		<polygon fill="#80CBEA" stroke="#2B2B2B" stroke-miterlimit="10" points="1047.166,568.263 1058.166,574.1 1049.5,592.596 
			1052.666,594.263 1061.333,575.263 1072,581.263 1058,608.93 1033.666,597.43 		"/>
	</g>
	<g id="coengg">
		<polygon opacity="0.3" fill="#4C4E4F" points="1221.93,316.297 1223.624,316.996 1282.393,341.215 1266.736,375.412 
			1208.443,350.997 		"/>
		<polygon opacity="0.3" fill="#4C4E4F" points="1203.891,370.955 1205.324,371.545 1255.013,392.022 1241.775,420.937 
			1192.488,400.294 		"/>
		<polygon fill="#80CBEA" stroke="#2B2B2B" stroke-miterlimit="10" points="1226.814,318.624 1228.509,319.323 1287.277,343.542 
			1271.621,377.739 1213.328,353.324 		"/>
		<polygon fill="#80CBEA" stroke="#2B2B2B" stroke-miterlimit="10" points="1208.309,372.514 1209.742,373.104 1259.431,393.581 
			1246.193,422.496 1196.906,401.853 		"/>
		<polygon opacity="0.3" fill="#4C4E4F" points="1185.063,417.844 1230.593,437.246 1223.063,458.285 1177.512,439.837 		"/>
		<polygon fill="#80CBEA" stroke="#2B2B2B" stroke-miterlimit="10" points="1189.455,419.844 1234.984,439.246 1227.455,460.285 
			1181.903,441.837 		"/>
		<polygon opacity="0.3" fill="#4C4E4F" points="1125.25,303.851 1140,271.351 1154,277.351 1139.625,309.601 		"/>
		<polygon opacity="0.3" fill="#4C4E4F" points="1156,284.101 1170.25,290.476 1158.25,317.101 1144.5,311.851 		"/>
		<polygon opacity="0.3" fill="#4C4E4F" points="1163.75,323.101 1172.75,304.351 1189.25,312.601 1180.75,330.101 		"/>
		<polygon opacity="0.3" fill="#4C4E4F" points="1137.25,358.351 1152.25,325.351 1167.25,331.851 1154,365.351 		"/>
		<polygon opacity="0.3" fill="#4C4E4F" points="1129,312.601 1144.5,320.351 1129,353.601 1114.75,345.351 		"/>
		<polygon opacity="0.3" fill="#4C4E4F" points="1173,333.101 1163.75,355.601 1181.25,362.351 1190.75,340.351 		"/>
		<polygon fill="#80CBEA" stroke="#2B2B2B" stroke-miterlimit="10" points="1176,334.101 1166.75,356.601 1184.25,363.351 
			1193.75,341.351 		"/>
		<polygon fill="#80CBEA" stroke="#2B2B2B" stroke-miterlimit="10" points="1128.25,304.851 1143,272.351 1157,278.351 
			1142.625,310.601 		"/>
		<polygon fill="#80CBEA" stroke="#2B2B2B" stroke-miterlimit="10" points="1159,285.101 1173.25,291.476 1161.25,318.101 
			1147.5,312.851 		"/>
		<polygon fill="#80CBEA" stroke="#2B2B2B" stroke-miterlimit="10" points="1166.75,324.101 1175.75,305.351 1192.25,313.601 
			1183.75,331.101 		"/>
		<polygon fill="#80CBEA" stroke="#2B2B2B" stroke-miterlimit="10" points="1140.25,359.351 1155.25,326.351 1170.25,332.851 
			1157,366.351 		"/>
		<polygon fill="#80CBEA" stroke="#2B2B2B" stroke-miterlimit="10" points="1132,313.601 1147.5,321.351 1132,354.601 
			1117.75,346.351 		"/>
	</g>
	<g id="cvm">
		<polygon opacity="0.3" fill="#4C4E4F" points="704.5,259.351 724,259.351 724,266.351 738.75,266.351 738.75,260.851 754,261.101 
			754,251.101 815,251.101 815,308.101 827.5,308.101 827.5,342.601 800.25,342.601 800,311.851 790.5,311.351 790.75,291.351 
			794.75,291.351 794.75,271.851 761.25,271.851 761.25,303.601 739.75,303.601 739.75,279.851 704.5,279.351 		"/>
		<polygon fill="#80CBEA" stroke="#2B2B2B" stroke-miterlimit="10" points="709.5,259.351 729,259.351 729,266.351 743.75,266.351 
			743.75,260.851 759,261.101 759,251.101 820,251.101 820,308.101 832.5,308.101 832.5,342.601 805.25,342.601 805,311.851 
			795.5,311.351 795.75,291.351 799.75,291.351 799.75,271.851 766.25,271.851 766.25,303.601 744.75,303.601 744.75,279.851 
			709.5,279.351 		"/>
	</g>
	<g id="coa">
		<polygon opacity="0.3" fill="#4C4E4F" points="587.523,457.708 601.229,465.028 609.557,447.734 578.05,430.364 587.974,413.89 
			624.667,433.088 638.393,408.268 620.56,398.55 628.086,386.202 669.569,407.862 623.238,497.908 578.105,475.903 		"/>
		<polygon opacity="0.3" fill="#4C4E4F" points="693,395.601 693,392.934 701.667,391.934 701.667,379.434 717.333,379.434 
			717.333,384.267 721.167,384.267 721.167,379.434 735.5,379.434 735.5,406.934 721,406.934 720.333,404.268 717.167,404.268 
			716.667,406.934 685.833,406.934 685.833,395.434 		"/>
		<polygon opacity="0.3" fill="#4C4E4F" points="708.833,344.604 715.5,344.604 715.5,342.601 730.833,342.601 730.833,348.104 
			734.167,348.104 734.167,342.601 748.833,342.601 748.833,372.937 735.5,371.937 735.5,369.771 731,369.937 730.833,372.104 
			716.833,371.771 716.667,356.604 708.833,355.937 		"/>
		<polyline opacity="0.3" fill="#4C4E4F" points="725.833,325.267 725.833,338.434 749.417,338.434 749.417,325.267 
			725.833,325.017 		"/>
		<polygon opacity="0.3" fill="#4C4E4F" points="761.167,398.601 761.167,370.434 774.667,370.434 774.667,374.934 780.333,374.767 
			780.333,371.101 793.333,371.434 793.333,399.434 779.167,399.434 779.167,396.101 775,396.267 774.833,399.434 		"/>
		<rect x="777.25" y="355.267" opacity="0.3" fill="#4C4E4F" width="16.083" height="14.167"/>
		<polygon opacity="0.3" fill="#4C4E4F" points="668.667,509.934 685.333,471.934 756.333,504.934 739.333,539.601 		"/>
		<polygon fill="#80CBEA" stroke="#2B2B2B" stroke-miterlimit="10" points="590.509,457.99 604.216,465.31 612.544,448.015 
			581.037,430.646 590.961,414.172 627.653,433.371 641.379,408.55 623.546,398.832 631.073,386.484 672.556,408.144 
			626.225,498.19 581.092,476.186 		"/>
		<polygon fill="#80CBEA" stroke="#2B2B2B" stroke-miterlimit="10" points="696,395.601 696,392.934 704.667,391.934 
			704.667,379.434 720.333,379.434 720.333,384.267 724.167,384.267 724.167,379.434 738.5,379.434 738.5,406.934 724,406.934 
			723.333,404.268 720.167,404.268 719.667,406.934 688.833,406.934 688.833,395.434 		"/>
		<polygon fill="#80CBEA" stroke="#2B2B2B" stroke-miterlimit="10" points="711.833,344.604 718.5,344.604 718.5,342.601 
			733.833,342.601 733.833,348.104 737.167,348.104 737.167,342.601 751.833,342.601 751.833,372.937 738.5,371.937 738.5,369.771 
			734,369.937 733.833,372.104 719.833,371.771 719.667,356.604 711.833,355.937 		"/>
		<polyline fill="#80CBEA" stroke="#2B2B2B" stroke-miterlimit="10" points="728.833,325.267 728.833,338.434 752.417,338.434 
			752.417,325.267 728.833,325.017 		"/>
		<polygon fill="#80CBEA" stroke="#2B2B2B" stroke-miterlimit="10" points="764.167,398.601 764.167,370.434 777.667,370.434 
			777.667,374.934 783.333,374.767 783.333,371.101 796.333,371.434 796.333,399.434 782.167,399.434 782.167,396.101 778,396.267 
			777.833,399.434 		"/>
		<rect x="780.25" y="355.267" fill="#80CBEA" stroke="#2B2B2B" stroke-miterlimit="10" width="16.083" height="14.167"/>
		<polygon fill="#80CBEA" stroke="#2B2B2B" stroke-miterlimit="10" points="671.667,509.934 688.333,471.934 759.333,504.934 
			742.333,539.601 		"/>
		<polygon opacity="0.3" fill="#4C4E4F" points="738.75,379.083 759.083,379.434 759.083,397.917 738.75,397.917 		"/>
		<polygon fill="#80CBEA" stroke="#2B2B2B" stroke-miterlimit="10" points="740.75,379.083 761.083,379.434 761.083,397.917 
			740.75,397.917 		"/>
	</g>
	<g id="cfes">
		<polyline opacity="0.3" fill="#4C4E4F" points="245.676,608.778 254.368,617.422 270.106,603.181 267.322,600.134 276.98,590.625 
			265.314,580.431 252.41,594.72 255.342,598.853 245.69,607.944 		"/>
		<polygon opacity="0.3" fill="#4C4E4F" points="319.667,532.725 362.167,547.475 374.917,519.975 383.167,523.725 390.417,506.475 
			381.167,501.725 385.792,492.1 394.292,496.6 399.917,483.1 389.042,477.975 395.667,463.1 359.792,447.1 352.417,462.725 
			372.667,472.475 368.667,480.725 359.792,477.725 351.167,497.288 359.792,500.475 355.917,509.225 333.417,501.475 		"/>
		<polygon opacity="0.3" fill="#4C4E4F" points="366.167,365.059 388.834,293.726 403.167,298.059 382.5,369.726 		"/>
		<polygon opacity="0.3" fill="#4C4E4F" points="333.5,323.726 348.834,278.393 362.5,282.726 348,327.726 		"/>
		<polyline fill="#80CBEA" stroke="#2B2B2B" stroke-miterlimit="10" points="248.494,609.7 257.187,618.345 272.924,604.103 
			270.14,601.057 279.799,591.548 268.133,581.354 255.228,595.642 258.16,599.775 248.508,608.866 		"/>
		<polygon fill="#80CBEA" stroke="#2B2B2B" stroke-miterlimit="10" points="322.5,533.601 365,548.351 377.75,520.851 386,524.601 
			393.25,507.351 384,502.601 388.625,492.976 397.125,497.476 402.75,483.976 391.875,478.851 398.5,463.976 362.625,447.976 
			355.25,463.601 375.5,473.351 371.5,481.601 362.625,478.601 354,498.163 362.625,501.351 358.75,510.101 336.25,502.351 		"/>
		<polygon fill="#80CBEA" stroke="#2B2B2B" stroke-miterlimit="10" points="369,365.935 391.667,294.602 406,298.935 
			385.333,370.602 		"/>
		<polygon fill="#80CBEA" stroke="#2B2B2B" stroke-miterlimit="10" points="336.333,324.602 351.667,279.268 365.333,283.602 
			350.833,328.602 		"/>
	</g>
	<g id="che">
		<polyline opacity="0.3" fill="#4C4E4F" points="510,719.834 543.667,735.168 547,729.501 560.667,735.168 555,748.834 
			575,757.501 587,731.168 569.333,722.501 583,690.501 573.333,685.501 583,662.834 559,652.168 551,669.168 534.667,663.168 
			510,718.168 		"/>
		<polyline fill="#80CBEA" stroke="#2B2B2B" stroke-miterlimit="10" points="515.333,722.267 549,737.601 552.333,731.934 
			566,737.601 560.333,751.267 580.333,759.934 592.333,733.601 574.667,724.934 588.333,692.934 578.667,687.934 588.333,665.267 
			564.333,654.601 556.333,671.601 540,665.601 515.333,720.601 		"/>
	</g>
	<g id="con">
		<polygon opacity="0.3" fill="#4C4E4F" points="383.333,1007.268 386,1007.268 386,987.268 391,987.268 391,991.435 395.5,991.435 
			395.5,986.101 438.833,986.101 438.833,998.935 457.333,999.101 457.333,1018.101 440,1018.101 439.5,1046.935 426.667,1046.101 
			426.5,1038.435 412.833,1038.768 412.833,1050.934 401.333,1050.934 401.167,1044.6 383.333,1043.6 		"/>
		<polygon fill="#80CBEA" stroke="#2B2B2B" stroke-miterlimit="10" points="388,1007.268 390.667,1007.268 390.667,987.268 
			395.667,987.268 395.667,991.435 400.167,991.435 400.167,986.101 443.5,986.101 443.5,998.935 462,999.101 462,1018.101 
			444.667,1018.101 444.167,1046.935 431.333,1046.101 431.167,1038.435 417.5,1038.768 417.5,1050.934 406,1050.934 
			405.833,1044.6 388,1043.6 		"/>
	</g>
	<g id="drmrose">
		<polygon id="rose_1_" opacity="0.3" fill="#4C4E4F" points="1290.5,300.018 1302,273.518 1288,267.018 1293.001,257.685 
			1288,255.185 1294.167,243.351 1298.334,245.018 1302,237.185 1310.001,240.018 1305.667,249.851 1331.667,262.018 
			1322.834,283.185 1309.001,278.351 1297.667,302.851 		"/>
		<polygon id="rose" fill="#80CBEA" stroke="#2B2B2B" stroke-miterlimit="10" points="1293.5,301.601 1305,275.101 1291,268.601 
			1296.001,259.268 1291,256.768 1297.167,244.934 1301.334,246.601 1305,238.768 1313.001,241.601 1308.667,251.434 
			1334.667,263.601 1325.834,284.768 1312.001,279.934 1300.667,304.434 		"/>
	</g>
	<g id="drmsunrise">
		<polyline id="sunrise_1_" opacity="0.3" fill="#4C4E4F" points="976.418,314.351 979.751,315.684 983.084,302.684 
			1006.918,311.851 1001.418,325.351 996.751,323.684 994.084,332.851 987.584,330.517 984.584,338.184 995.084,342.184 
			985.251,371.017 989.584,372.517 986.918,379.184 983.084,377.517 979.251,388.017 958.084,380.851 959.418,375.851 
			954.918,373.851 949.918,386.351 927.751,378.19 933.251,363.351 945.418,367.851 947.751,359.184 964.418,364.684 
			976.751,330.851 971.084,327.851 976.084,315.184 		"/>
		<polyline id="sunrise" fill="#80CBEA" stroke="#2B2B2B" stroke-miterlimit="10" points="980.501,316.101 983.834,317.434 
			987.167,304.434 1011.001,313.601 1005.501,327.101 1000.834,325.434 998.167,334.601 991.667,332.268 988.667,339.934 
			999.167,343.934 989.334,372.768 993.667,374.268 991.001,380.934 987.167,379.268 983.334,389.768 962.167,382.601 
			963.501,377.601 959.001,375.601 954.001,388.101 931.834,379.94 937.334,365.101 949.501,369.601 951.834,360.934 
			968.501,366.434 980.834,332.601 975.167,329.601 980.167,316.934 		"/>
	</g>
	<g id="drmmahogany">
		<polygon opacity="0.3" fill="#4C4E4F" points="439,99.51 463.334,84.343 474,99.51 470.334,102.01 488.5,123.843 493.167,121.676 
			506.334,138.51 480.667,155.505 468.834,140.005 475.834,134.505 457.167,111.172 450.334,115.172 		"/>
		<polygon fill="#80CBEA" stroke="#2B2B2B" stroke-miterlimit="10" points="444.333,98.671 468.667,83.505 479.333,98.671 
			475.667,101.171 493.833,123.005 498.5,120.838 511.667,137.671 486,154.667 474.167,139.167 481.167,133.667 462.5,110.333 
			455.667,114.333 		"/>
	</g>
	<g id="drmgardenia">
		<polygon id="gardenia_1_" opacity="0.3" fill="#4C4E4F" points="393.667,1097.666 402.333,1097.666 402.333,1117.999 
			441.667,1116.333 441.667,1133.333 363.333,1135.333 363.333,1118.999 393.333,1116.5 		"/>
		<polygon id="gardenia" fill="#80CBEA" stroke="#2B2B2B" stroke-miterlimit="10" points="400.667,1097.666 409.333,1097.666 
			409.333,1117.999 448.667,1116.333 448.667,1133.333 370.333,1135.333 370.333,1118.999 400.333,1116.5 		"/>
	</g>
	<g id="drmlawaan">
		<polygon fill="#80CBEA" stroke="#2B2B2B" stroke-miterlimit="10" points="90.787,1248.041 179.15,1208.85 444.862,1405.044 
			405.182,1460.933 		"/>
	</g>
	<g id="drmcattleya">
		<polygon opacity="0.3" fill="#4C4E4F" points="453.917,1320.75 458.667,1312.75 448.667,1306.5 453.667,1296 465.917,1301.5 
			476.417,1281.75 466.917,1276.25 471.917,1267 482.667,1273.25 488.417,1260.75 502.667,1268.5 469.417,1329.25 		"/>
		<polygon opacity="0.3" fill="#4C4E4F" points="506.417,1274.5 515.667,1257.25 525.667,1262 516.042,1278.75 		"/>
		<polygon opacity="0.3" fill="#4C4E4F" points="497.667,1289.167 504.5,1277.501 525.667,1289.167 528.667,1285.167 
			547.167,1294.168 512.5,1348.505 497.667,1340.672 475.667,1329.25 482,1318.338 501.834,1327.505 518.167,1300.672 		"/>
		<polygon fill="#80CBEA" stroke="#2B2B2B" stroke-miterlimit="10" points="456.75,1322.75 461.5,1314.75 451.5,1308.5 456.5,1298 
			468.75,1303.5 479.25,1283.75 469.75,1278.25 474.75,1269 485.5,1275.25 491.25,1262.75 505.5,1270.5 472.25,1331.25 		"/>
		<polygon fill="#80CBEA" stroke="#2B2B2B" stroke-miterlimit="10" points="509.25,1276.5 518.5,1259.25 528.5,1264 
			518.875,1280.75 		"/>
		<polygon fill="#80CBEA" stroke="#2B2B2B" stroke-miterlimit="10" points="500.5,1291.167 507.333,1279.501 528.5,1291.167 
			531.5,1287.167 550,1296.168 515.333,1350.505 500.5,1342.672 478.5,1331.25 484.833,1320.338 504.667,1329.505 521,1302.672 		
			"/>
	</g>
	<g id="nsrc_2_">
		<polygon id="nsrc_1_" opacity="0.3" fill="#4C4E4F" points="841.092,816.879 882.591,834.34 877.65,847.382 836.575,829.597 		"/>
		<polygon id="nsrc" fill="#80CBEA" stroke="#2B2B2B" stroke-miterlimit="10" points="843.139,817.726 884.637,835.187 
			879.697,848.229 838.622,830.444 		"/>
	</g>
	<g id="extension_1_">
		<polygon id="extension" fill="#80CBEA" stroke="#2B2B2B" stroke-miterlimit="10" points="1211,882 1219.5,862.5 1237.5,870 
			1229,888.5 1237.5,893.25 1227.5,914 1218,909 1208.75,928 1192.5,920.25 1202.5,899.5 1211.25,902.75 1218.5,886 		"/>
	</g>
</g>
</svg>
