<?xml version="1.0" encoding="utf-8"?>
<!-- Generator: Adobe Illustrator 16.0.0, SVG Export Plug-In . SVG Version: 6.00 Build 0)  -->
<!DOCTYPE svg PUBLIC "-//W3C//DTD SVG 1.1//EN" "http://www.w3.org/Graphics/SVG/1.1/DTD/svg11.dtd">
<svg version="1.1" xmlns="http://www.w3.org/2000/svg" xmlns:xlink="http://www.w3.org/1999/xlink" x="0px" y="0px"
	 width="1867.509px" height="1750px" viewBox="0 0 1867.509 1750" enable-background="new 0 0 1867.509 1750" xml:space="preserve">
<g id="custombase">
	<rect y="3.625" fill="#90C965" width="1867.509" height="1750"/>
</g>
<g id="courts">
	<polygon id="tcourt1_3_" fill="#EAD2C3" stroke="#92AC97" stroke-miterlimit="10" points="783.387,906.196 848.754,825.957 
		883.863,841.846 814.861,924.043 	"/>
	<polygon id="tcourt1_4_" fill="#EAD2C3" stroke="#92AC97" stroke-miterlimit="10" points="752.04,826.405 781.306,795.873 
		793.993,804.104 763.228,835.289 	"/>
	<polygon id="bcourt1_2_" fill="#EAD2C3" stroke="#92AC97" stroke-miterlimit="10" points="1274.907,354.632 1258.942,376.761 
		1230.273,364.98 1246.236,342.852 	"/>
	<polygon id="bcourt1_1_" fill="#EAD2C3" stroke="#92AC97" stroke-miterlimit="10" points="1042.521,472.371 1060.081,482.451 
		1033.561,514.067 1016.001,503.986 	"/>
</g>
<g id="pathwaym2a">
	
		<line fill="none" stroke="#D6D3D3" stroke-width="16" stroke-miterlimit="10" x1="1056.739" y1="692.322" x2="1183.495" y2="764.452"/>
	<path fill="none" stroke="#D6D3D3" stroke-width="16" stroke-miterlimit="10" d="M1178.011,522.103"/>
	<path fill="none" stroke="#D6D3D3" stroke-width="16" stroke-miterlimit="10" d="M1117.484,707.048"/>
</g>
<g id="fence">
	<g>
		
			<line fill="none" stroke="#5FBB46" stroke-width="6" stroke-miterlimit="10" x1="1182.072" y1="787.251" x2="1177.003" y2="784.469"/>
		
			<line fill="none" stroke="#FFFFFF" stroke-width="4" stroke-miterlimit="10" x1="1182.072" y1="787.251" x2="1177.003" y2="784.469"/>
	</g>
	<polyline id="campus" fill="none" stroke="#81847F" stroke-width="6" stroke-miterlimit="10" points="0,1138.014 286.577,1437.118 
		349.979,1725.548 422.824,1736.047 1179.539,814.167 1185.277,777.761 1203.001,756.619 1236.812,743.825 1741.333,130.745 
		1402.605,20.307 1402.975,5.667 	"/>
	<polyline fill="none" stroke="#81847F" stroke-width="6" stroke-miterlimit="10" points="471.237,1750 1799.714,152 
		1842.33,175.033 	"/>
</g>
<g id="additionalfacilities">
	<g id="maingate" display="none">
		<polygon id="maingate_1_" display="inline" opacity="0.3" fill="#4C4E4F" points="1172.965,777.706 1180.127,769.706 
			1178.365,768.706 1188.313,757.29 1189.971,758.456 1194.943,752.123 1204.502,757.456 1199.871,763.54 1202.287,764.914 
			1193.951,775.456 1191.609,774.79 1183.796,784.123 		"/>
		<polygon id="mg_1_" display="inline" fill="#80CCEB" stroke="#2B2B2B" stroke-miterlimit="10" points="1175.935,778.706 
			1183.097,770.706 1181.336,769.706 1191.283,758.29 1192.941,759.456 1197.913,753.123 1207.473,758.456 1202.841,764.54 
			1205.258,765.914 1196.921,776.456 1194.579,775.79 1186.766,785.123 		"/>
		<path display="inline" fill="none" stroke="#90C965" stroke-width="9" stroke-miterlimit="10" d="M1188.595,806.115"/>
		<polyline fill="none" stroke="#81847F" stroke-width="4" stroke-miterlimit="10" points="1176.877,812.107 1173.825,808.079 
			1166.468,798.371 1164.838,795.05 1169.722,784.889 		"/>
		<polyline fill="none" stroke="#81847F" stroke-width="4" stroke-miterlimit="10" points="1184.482,753.136 1188.535,745.309 
			1210.512,747.193 		"/>
		<path display="inline" fill="none" stroke="#81847F" stroke-width="4" stroke-miterlimit="10" d="M1175.678,785.094"/>
	</g>
	<g id="sportscomplex">
		<polygon id="main_2_" opacity="0.3" fill="#4C4E4F" points="492.993,1332.618 513.66,1332.618 503.469,1360.618 482.802,1360.618 
					"/>
		<polygon id="main" fill="#80CBEA" stroke="#2B2B2B" stroke-miterlimit="10" points="499.327,1332.618 519.993,1332.618 
			509.802,1360.618 489.136,1360.618 		"/>
		<polygon id="bcourt1" fill="#EAD2C3" stroke="#92AC97" stroke-miterlimit="10" points="526.547,1330.868 550.047,1330.868 
			537.308,1365.868 513.808,1365.868 		"/>
		<polygon id="vcourt1" fill="#EAD2C3" stroke="#92AC97" stroke-miterlimit="10" points="544.924,1291.368 562.924,1291.368 
			553.824,1316.368 535.824,1316.368 		"/>
		<polygon id="vcourt2" fill="#EAD2C3" stroke="#92AC97" stroke-miterlimit="10" points="513.848,1380.868 531.848,1380.868 
			522.749,1405.868 504.749,1405.868 		"/>
		<polygon id="stcourt1" fill="#EAD2C3" stroke="#92AC97" stroke-miterlimit="10" points="556.796,1265.618 573.325,1245.618 
			584.142,1251.618 567.794,1271.118 		"/>
		<polygon id="stcourt2" fill="#EAD2C3" stroke="#92AC97" stroke-miterlimit="10" points="579.714,1238.368 596.243,1218.368 
			607.06,1224.368 590.712,1243.868 		"/>
		<polygon id="bvcourt" fill="#EAD2C3" stroke="#92AC97" stroke-miterlimit="10" points="499.926,1419.118 524.926,1419.118 
			511.823,1455.118 486.823,1455.118 		"/>
		<polyline fill="none" stroke="#1B3F1C" stroke-width="2" stroke-miterlimit="10" points="507.135,1360.618 472.192,1463.949 
			498.224,1549.951 546.896,1577.868 548.473,1578.834 		"/>
		<path id="trackfield" fill="#EAD2C3" stroke="#92AC97" stroke-miterlimit="10" d="M544.676,1419.118l46.367-145.25
			c0,0,21.514-41.25,66.06-42.75s37.035,31.5,37.99,33c0.954,1.5-44.595,150-44.595,150s-22.012,33-60.832,38
			C550.846,1457.118,546.63,1420.618,544.676,1419.118z"/>
		<path id="trackfield_1_" fill="#90C965" d="M557.704,1410.469l41.649-128.682c0,0,18.488-36.545,54.084-37.876
			c35.596-1.328,28.545,27.909,29.259,29.237c0.713,1.329-40.388,132.89-40.388,132.89s-18.621,29.237-49.759,33.666
			C561.41,1444.135,559.215,1411.798,557.704,1410.469z"/>
		<path fill="none" stroke="#1B3F1C" stroke-width="2" stroke-miterlimit="10" d="M813.101,1469.727"/>
		<polyline fill="none" stroke="#1B3F1C" stroke-width="2" stroke-miterlimit="10" points="756.095,1325.958 755.541,1325.618 
			692.619,1285.392 749.777,1207.283 642.5,1151.95 544.923,1269.618 517.326,1332.618 		"/>
		<path fill="none" stroke="#1B3F1C" stroke-width="2" stroke-miterlimit="10" d="M82.035,1570.509"/>
	</g>
	<g id="upool">
		<polygon fill="#FFFFFF" stroke="#ADB2AB" stroke-miterlimit="10" points="842.101,1010.406 867.474,1024.281 893.52,992.77 
			868.124,979.656 		"/>
		<path id="gazeebo1_3_" opacity="0.3" fill="#4C4E4F" d="M899.951,957.551c0,0-5.633-2.73-10.371,4.326
			c-1.26,1.875-0.775,4.904,2.298,5.77s6.549-1.154,8.307-3.605C901.943,961.588,900.796,957.84,899.951,957.551z"/>
		<polygon id="gazeebo2_15_" opacity="0.3" fill="#4C4E4F" points="895.463,972.26 904.461,961.012 914.75,965.627 905.372,976.732 
					"/>
		<path id="gazeebo1_2_" fill="#80CBEA" stroke="#2B2B2B" stroke-miterlimit="10" d="M901.675,957.768c0,0-5.633-2.73-10.371,4.326
			c-1.26,1.875-0.774,4.902,2.299,5.768s6.549-1.154,8.307-3.605C903.666,961.805,902.52,958.057,901.675,957.768z"/>
		<polygon id="gazeebo2_14_" fill="#80CBEA" stroke="#2B2B2B" stroke-miterlimit="10" points="897.187,972.477 906.184,961.229 
			916.475,965.842 907.097,976.947 		"/>
		<polygon id="pool1_1_" fill="#67CDEF" stroke="#92AC97" stroke-miterlimit="10" points="855.94,1014.281 877.57,988.281 
			889.871,994.781 868.317,1020.115 		"/>
		<polygon id="pool2_1_" fill="#67CDEF" stroke="#92AC97" stroke-miterlimit="10" points="857.35,997.531 863.639,1000.344 
			853.475,1012.469 847.323,1009.281 		"/>
		<path id="pool3_1_" fill="#67CDEF" stroke="#92AC97" stroke-miterlimit="10" d="M858.252,995.109l7.279,3.584l10.512-12.168
			C876.043,986.525,867.63,974.609,858.252,995.109z"/>
		
			<line fill="#92AC97" stroke="#10657B" stroke-width="0.5" stroke-miterlimit="10" x1="858.802" y1="1013.748" x2="877.872" y2="990.887"/>
		
			<line fill="#92AC97" stroke="#10657B" stroke-width="0.5" stroke-miterlimit="10" x1="860.454" y1="1014.584" x2="879.525" y2="991.725"/>
		
			<line fill="#92AC97" stroke="#10657B" stroke-width="0.5" stroke-miterlimit="10" x1="862.161" y1="1015.629" x2="881.232" y2="992.77"/>
		
			<line fill="#92AC97" stroke="#10657B" stroke-width="0.5" stroke-miterlimit="10" x1="864.103" y1="1016.43" x2="883.174" y2="993.568"/>
		
			<line fill="#92AC97" stroke="#10657B" stroke-width="0.5" stroke-miterlimit="10" x1="865.833" y1="1017.541" x2="884.904" y2="994.682"/>
		
			<line fill="#92AC97" stroke="#10657B" stroke-width="0.5" stroke-miterlimit="10" x1="867.516" y1="1018.16" x2="886.588" y2="995.299"/>
		<polygon id="gazeebo2_13_" opacity="0.3" fill="#4C4E4F" points="893.731,1005.129 898.171,999.113 903.801,1001.191 
			899.154,1007.145 		"/>
		<polygon id="gazeebo2_12_" fill="#80CBEA" stroke="#2B2B2B" stroke-miterlimit="10" points="894.656,1005.193 899.097,999.176 
			904.727,1001.254 900.078,1007.209 		"/>
		<polygon id="gazeebo2_11_" opacity="0.3" fill="#4C4E4F" points="886.438,1014.809 890.438,1008.627 896.408,1010.176 
			892.19,1016.313 		"/>
		<polygon id="gazeebo2_10_" fill="#80CBEA" stroke="#2B2B2B" stroke-miterlimit="10" points="887.336,1014.619 891.629,1008.541 
			897.379,1010.439 892.875,1016.461 		"/>
		<polygon id="gazeebo2_9_" opacity="0.3" fill="#4C4E4F" points="879.156,1023.854 883.411,1017.762 889.19,1019.617 
			884.722,1025.654 		"/>
		<polygon id="gazeebo2_8_" fill="#80CBEA" stroke="#2B2B2B" stroke-miterlimit="10" points="880.094,1023.885 884.35,1017.793 
			890.129,1019.646 885.661,1025.684 		"/>
		<polygon opacity="0.3" fill="#4C4E4F" points="909.827,980.338 919.991,967.289 926.529,969.99 916.182,982.705 		"/>
		<polygon fill="#80CBEA" stroke="#2B2B2B" stroke-miterlimit="10" points="911.555,981.572 921.72,968.523 928.258,971.225 
			917.91,983.939 		"/>
		<polygon fill="none" stroke="#491B2D" stroke-miterlimit="10" points="823.704,1020.021 884.324,944.967 932.422,967.99 
			872.914,1045.434 		"/>
	</g>
</g>
<g id="road">
	<g>
		<polyline fill="none" stroke="#5FBB46" stroke-width="6" stroke-miterlimit="10" points="1431.418,172.475 1353.356,274.292 
			1349.1,279.845 1348.285,280.908 1162.749,522.907 		"/>
		<polyline fill="none" stroke="#FFFFFF" stroke-width="4" stroke-miterlimit="10" points="1431.418,172.475 1353.356,274.292 
			1349.1,279.845 1348.285,280.908 1162.749,522.907 		"/>
	</g>
	<g>
		<path fill="none" stroke="#5FBB46" stroke-width="6" stroke-miterlimit="10" d="M948.053,375.485l2.967,32.993l262.19,143.614
			l49.017,26.849L1001.312,896.5L816.76,787.674l-81.854-48.267c0,0-4.486-1.854-4.635-1.921
			c-12.92-5.857-46.316-24.85-13.75-53.346"/>
		<path fill="none" stroke="#FFFFFF" stroke-width="4" stroke-miterlimit="10" d="M948.053,375.485l2.967,32.993l262.19,143.614
			l49.017,26.849L1001.312,896.5L816.76,787.674l-81.854-48.267c0,0-4.486-1.854-4.635-1.921
			c-12.92-5.857-46.316-24.85-13.75-53.346"/>
	</g>
	<g>
		<polyline fill="none" stroke="#5FBB46" stroke-width="6" stroke-miterlimit="10" points="1218.294,760.615 1214.596,758.5 
			1069.365,675.407 1093.73,645.557 1034.266,609.057 950.573,707.807 1011.115,743.407 1040.027,709.307 1069.274,725.355 
			1070.729,726.154 1093.582,738.693 1165.542,778.18 1173.892,782.762 1183.116,787.824 		"/>
		<polyline fill="none" stroke="#FFFFFF" stroke-width="4" stroke-miterlimit="10" points="1218.294,760.615 1214.596,758.5 
			1069.365,675.407 1093.73,645.557 1034.266,609.057 950.573,707.807 1011.115,743.407 1040.027,709.307 1069.274,725.355 
			1070.729,726.154 1093.582,738.693 1165.542,778.18 1173.892,782.762 1183.116,787.824 		"/>
	</g>
	<g>
		
			<line fill="none" stroke="#5FBB46" stroke-width="6" stroke-miterlimit="10" x1="1197.646" y1="748.806" x2="1250.632" y2="778.795"/>
		
			<line fill="none" stroke="#FFFFFF" stroke-width="4" stroke-miterlimit="10" x1="1197.646" y1="748.806" x2="1250.632" y2="778.795"/>
	</g>
	<g>
		<path fill="none" stroke="#5FBB46" stroke-width="6" stroke-miterlimit="10" d="M937.379,583.693c0,0-30.922-26.22-59.508,5.614
			c-28.587,31.833,11.49,51.837,11.539,51.78"/>
		<path fill="none" stroke="#FFFFFF" stroke-width="4" stroke-miterlimit="10" d="M937.379,583.693c0,0-30.922-26.22-59.508,5.614
			c-28.587,31.833,11.49,51.837,11.539,51.78"/>
	</g>
	<g>
		<polyline fill="none" stroke="#5FBB46" stroke-width="6" stroke-miterlimit="10" points="1241.66,219.63 1154.772,250.49 
			1166.62,258.642 1193.563,277.176 		"/>
		<polyline fill="none" stroke="#FFFFFF" stroke-width="4" stroke-miterlimit="10" points="1241.66,219.63 1154.772,250.49 
			1166.62,258.642 1193.563,277.176 		"/>
	</g>
	<g>
		
			<line fill="none" stroke="#5FBB46" stroke-width="6" stroke-miterlimit="10" x1="1173.826" y1="242.89" x2="1167.313" y2="258.642"/>
		
			<line fill="none" stroke="#FFFFFF" stroke-width="4" stroke-miterlimit="10" x1="1173.826" y1="242.89" x2="1167.313" y2="258.642"/>
	</g>
	<g>
		
			<line fill="none" stroke="#5FBB46" stroke-width="6" stroke-miterlimit="10" x1="951.02" y1="408.478" x2="911.359" y2="415.436"/>
		
			<line fill="none" stroke="#FFFFFF" stroke-width="4" stroke-miterlimit="10" x1="951.02" y1="408.478" x2="911.359" y2="415.436"/>
	</g>
	<g>
		<path fill="none" stroke="#5FBB46" stroke-width="6" stroke-miterlimit="10" d="M313.456,923.807h47.5l100.68,5l40.243-2.5
			c0,0,28.382-1.965,108.492-40.732s101.494-46.807,141.366-79.768l161.331-193.028l360.204-430.972"/>
		<path fill="none" stroke="#FFFFFF" stroke-width="4" stroke-miterlimit="10" d="M313.456,923.807h47.5l100.68,5l40.243-2.5
			c0,0,28.382-1.965,108.492-40.732s101.494-46.807,141.366-79.768l161.331-193.028l360.204-430.972"/>
	</g>
	<g>
		<path fill="none" stroke="#5FBB46" stroke-width="6" stroke-miterlimit="10" d="M455.823,589.307l148.033,298.6l-11.871,83.9
			c0,0-6.156,59.5,45.208,58.5c51.364-1,53.218-0.143,77.984,25"/>
		<path fill="none" stroke="#FFFFFF" stroke-width="4" stroke-miterlimit="10" d="M455.823,589.307l148.033,298.6l-11.871,83.9
			c0,0-6.156,59.5,45.208,58.5c51.364-1,53.218-0.143,77.984,25"/>
	</g>
	<g>
		<path fill="none" stroke="#5FBB46" stroke-width="6" stroke-miterlimit="10" d="M750.994,672.307c0,0,40.253-0.902-19.236,65.799"
			/>
		<path fill="none" stroke="#FFFFFF" stroke-width="4" stroke-miterlimit="10" d="M750.994,672.307c0,0,40.253-0.902-19.236,65.799"
			/>
	</g>
	
		<line fill="none" stroke="#FFFFFF" stroke-width="4" stroke-miterlimit="10" x1="637.659" y1="872.441" x2="596.198" y2="892.305"/>
	<polyline fill="none" stroke="#FFFFFF" stroke-width="4" stroke-miterlimit="10" points="726.76,735.799 736.973,740.626 
		794.276,774.417 	"/>
	<line fill="none" stroke="#FFFFFF" stroke-width="4" stroke-miterlimit="10" x1="933.09" y1="580.688" x2="937.736" y2="583.266"/>
	<line fill="none" stroke="#FFFFFF" stroke-width="4" stroke-miterlimit="10" x1="884.557" y1="638.185" x2="889.41" y2="641.086"/>
	
		<line fill="none" stroke="#FFFFFF" stroke-width="4" stroke-miterlimit="10" x1="1033.351" y1="453.574" x2="1052.044" y2="463.813"/>
	<polyline display="none" fill="none" stroke="#FFFFFF" stroke-width="4" stroke-miterlimit="10" points="782.618,376.722 
		782.144,377.788 762.329,422.316 	"/>
	
		<line fill="none" stroke="#FFFFFF" stroke-width="4" stroke-miterlimit="10" x1="950.986" y1="408.104" x2="950.122" y2="398.495"/>
	
		<line fill="none" stroke="#FFFFFF" stroke-width="4" stroke-miterlimit="10" x1="948.053" y1="375.485" x2="949.541" y2="392.039"/>
	<polyline fill="none" stroke="#FFFFFF" stroke-width="4" stroke-miterlimit="10" points="1116.393,361.661 1122.533,361.734 
		1130.301,366.044 	"/>
	<polyline fill="none" stroke="#FFFFFF" stroke-width="4" stroke-miterlimit="10" points="1161.771,523.917 1171.146,511.955 
		1171.761,511.152 	"/>
	
		<line fill="none" stroke="#FFFFFF" stroke-width="4" stroke-miterlimit="10" x1="1154.365" y1="710.218" x2="1108.569" y2="765.957"/>
	
		<line fill="none" stroke="#FFFFFF" stroke-width="4" stroke-miterlimit="10" x1="1163.705" y1="247.318" x2="1186.342" y2="239.278"/>
	
		<line fill="none" stroke="#FFFFFF" stroke-width="4" stroke-miterlimit="10" x1="1162.596" y1="255.873" x2="1170.661" y2="261.422"/>
	
		<line fill="none" stroke="#FFFFFF" stroke-width="4" stroke-miterlimit="10" x1="1193.563" y1="277.176" x2="1184.476" y2="270.925"/>
	
		<line fill="none" stroke="#FFFFFF" stroke-width="4" stroke-miterlimit="10" x1="1217.748" y1="228.123" x2="1241.66" y2="219.63"/>
	<polyline fill="none" stroke="#FFFFFF" stroke-width="4" stroke-miterlimit="10" points="1264.396,181.806 1272.396,181.806 
		1278.993,181.171 	"/>
	
		<line fill="none" stroke="#FFFFFF" stroke-width="4" stroke-miterlimit="10" x1="964.208" y1="216.469" x2="983.467" y2="210.784"/>
	
		<line fill="none" stroke="#FFFFFF" stroke-width="4" stroke-miterlimit="10" x1="441.635" y1="596.959" x2="466.666" y2="583.458"/>
	<g>
		<polyline fill="none" stroke="#5FBB46" stroke-width="6" stroke-miterlimit="10" points="429.978,1407.813 427.387,1401.141 
			706.933,1065.199 793.922,960.66 816.789,933.18 817.376,932.475 898.002,835.582 		"/>
		<polyline fill="none" stroke="#FFFFFF" stroke-width="4" stroke-miterlimit="10" points="429.978,1407.813 427.387,1401.141 
			706.933,1065.199 793.922,960.66 816.789,933.18 817.376,932.475 898.002,835.582 		"/>
	</g>
	
		<line fill="none" stroke="#FFFFFF" stroke-width="4" stroke-miterlimit="10" x1="421.271" y1="1396.557" x2="427.144" y2="1400.957"/>
	<g display="none">
		<polyline display="inline" fill="#FFFFFF" points="791.61,1050.604 800.715,1057.307 835.486,1080.141 		"/>
		<polyline display="inline" fill="none" stroke="#5FBA46" stroke-width="8" stroke-miterlimit="10" points="791.61,1050.604 
			800.715,1057.307 835.486,1080.141 		"/>
		<polyline display="inline" fill="none" stroke="#FFFFFF" stroke-width="4" stroke-miterlimit="10" points="791.61,1050.604 
			800.715,1057.307 835.486,1080.141 		"/>
	</g>
	
		<line fill="none" stroke="#FFFFFF" stroke-width="4" stroke-miterlimit="10" x1="889.617" y1="830.637" x2="908.965" y2="842.045"/>
	<g>
		<polyline fill="none" stroke="#5FBB46" stroke-width="6" stroke-miterlimit="10" points="1076.134,667.115 1040.26,709.043 
			1039.255,710.218 		"/>
		<polyline fill="none" stroke="#FFFFFF" stroke-width="4" stroke-miterlimit="10" points="1076.134,667.115 1040.26,709.043 
			1039.255,710.218 		"/>
	</g>
	
		<line fill="none" stroke="#FFFFFF" stroke-width="4" stroke-miterlimit="10" x1="1060.24" y1="720.398" x2="1040.26" y2="709.043"/>
	
		<line fill="none" stroke="#FFFFFF" stroke-width="4" stroke-miterlimit="10" x1="1085.777" y1="684.798" x2="1069.219" y2="675.197"/>
	<g>
		<path fill="none" stroke="#5FBA46" stroke-width="6" stroke-miterlimit="10" d="M1068.071,624.473"/>
		<path fill="none" stroke="#FFFFFF" stroke-width="4" stroke-miterlimit="10" d="M1068.071,624.473"/>
	</g>
	<g>
		<path fill="none" stroke="#5FBA46" stroke-width="6" stroke-miterlimit="10" d="M1154.67,523.917"/>
		<path fill="none" stroke="#FFFFFF" stroke-width="4" stroke-miterlimit="10" d="M1154.67,523.917"/>
	</g>
	<g>
		<path fill="none" stroke="#5FBA46" stroke-width="6" stroke-miterlimit="10" d="M1088.116,632.462"/>
		<path fill="none" stroke="#FFFFFF" stroke-width="4" stroke-miterlimit="10" d="M1088.116,632.462"/>
	</g>
	<g>
		<path fill="none" stroke="#5FBA46" stroke-width="6" stroke-miterlimit="10" d="M1173.924,529.795"/>
		<path fill="none" stroke="#FFFFFF" stroke-width="4" stroke-miterlimit="10" d="M1173.924,529.795"/>
	</g>
	<g>
		
			<line fill="none" stroke="#FFFFFF" stroke-width="4" stroke-miterlimit="10" x1="980.884" y1="730.307" x2="896.867" y2="830.637"/>
	</g>
	<g>
		
			<line fill="none" stroke="#FFFFFF" stroke-width="4" stroke-miterlimit="10" x1="720.588" y1="829.057" x2="759.266" y2="857.475"/>
	</g>
	<g>
		
			<line fill="none" stroke="#FFFFFF" stroke-width="4" stroke-miterlimit="10" x1="853.494" y1="809.336" x2="833.547" y2="833.807"/>
	</g>
	<g>
		
			<line fill="none" stroke="#5FBA46" stroke-width="6" stroke-miterlimit="10" x1="790.105" y1="967.869" x2="803.557" y2="975.512"/>
		
			<line fill="none" stroke="#FFFFFF" stroke-width="4" stroke-miterlimit="10" x1="790.105" y1="967.869" x2="803.557" y2="975.512"/>
	</g>
	<g>
		
			<line fill="none" stroke="#5FBA46" stroke-width="6" stroke-miterlimit="10" x1="821.866" y1="929.777" x2="873.239" y2="958.057"/>
		
			<line fill="none" stroke="#FFFFFF" stroke-width="4" stroke-miterlimit="10" x1="821.866" y1="929.777" x2="873.239" y2="958.057"/>
	</g>
	<g>
		<polyline fill="none" stroke="#5FBA46" stroke-width="6" stroke-miterlimit="10" points="999.314,899.24 948.225,962.906 
			975.332,979.781 		"/>
		<polyline fill="none" stroke="#FFFFFF" stroke-width="4" stroke-miterlimit="10" points="999.314,899.24 948.225,962.906 
			975.332,979.781 		"/>
	</g>
	<g>
		<polyline fill="none" stroke="#5FBA46" stroke-width="6" stroke-miterlimit="10" points="1554.064,226.335 1517.253,273.157 
			1510.373,281.907 1354.834,479.737 1236.472,427.307 		"/>
		<polyline fill="none" stroke="#FFFFFF" stroke-width="4" stroke-miterlimit="10" points="1554.064,226.335 1517.253,273.157 
			1510.373,281.907 1354.834,479.737 1236.472,427.307 		"/>
	</g>
	<g>
		<polyline fill="none" stroke="#5FBA46" stroke-width="6" stroke-miterlimit="10" points="1395.242,297.588 1397.292,298.667 
			1467.981,335.824 		"/>
		<polyline fill="none" stroke="#FFFFFF" stroke-width="4" stroke-miterlimit="10" points="1395.242,297.588 1397.292,298.667 
			1467.981,335.824 		"/>
	</g>
	
		<line fill="none" stroke="#FFFFFF" stroke-width="4" stroke-miterlimit="10" x1="894.503" y1="833.518" x2="983.559" y2="727.203"/>
	<polyline fill="none" stroke="#FFFFFF" stroke-width="4" stroke-miterlimit="10" points="992.44,732.426 992.888,732.689 
		903.499,837.141 	"/>
	
		<line fill="none" stroke="#FFFFFF" stroke-width="4" stroke-miterlimit="10" x1="843.127" y1="803.223" x2="863.994" y2="815.527"/>
	
		<line fill="none" stroke="#FFFFFF" stroke-width="4" stroke-miterlimit="10" x1="713.244" y1="833.711" x2="728.644" y2="823.582"/>
	
		<line fill="none" stroke="#FFFFFF" stroke-width="4" stroke-miterlimit="10" x1="1156.93" y1="523.103" x2="1067.761" y2="631.378"/>
	
		<line fill="none" stroke="#FFFFFF" stroke-width="4" stroke-miterlimit="10" x1="1073.433" y1="634.245" x2="1163.676" y2="526.023"/>
	<polyline fill="none" stroke="#FFFFFF" stroke-width="4" stroke-miterlimit="10" points="1228.482,437.169 1242.681,418.651 
		1245.233,415.321 1244.286,416.557 1229.254,436.163 	"/>
	<path fill="none" stroke="#FFFFFF" stroke-width="4" stroke-miterlimit="10" d="M1358.685,267.343
		c1.772-2.312,3.544-4.624,5.317-6.936"/>
	
		<line fill="none" stroke="#FFFFFF" stroke-width="4" stroke-miterlimit="10" x1="1474.285" y1="327.808" x2="1460.522" y2="345.312"/>
	<polyline fill="none" stroke="#FFFFFF" stroke-width="4" stroke-miterlimit="10" points="1397.292,298.667 1416.583,275.058 
		1411.826,280.907 	"/>
	<g>
		<polyline fill="none" stroke="#5FBA46" stroke-width="6" stroke-miterlimit="10" points="1362.914,278.182 1354.326,273.027 
			1398.214,299.151 1484.721,191.218 1484.721,191.218 		"/>
		<polyline fill="none" stroke="#FFFFFF" stroke-width="4" stroke-miterlimit="10" points="1362.914,278.182 1354.326,273.027 
			1398.214,299.151 1484.721,191.218 1484.721,191.218 		"/>
	</g>
	
		<line fill="none" stroke="#FFFFFF" stroke-width="4" stroke-miterlimit="10" x1="1423.572" y1="182.709" x2="1431.418" y2="172.475"/>
	
		<line fill="none" stroke="#FFFFFF" stroke-width="4" stroke-miterlimit="10" x1="1476.687" y1="201.272" x2="1487.953" y2="187.361"/>
	<g>
		<polyline fill="none" stroke="#5FBA46" stroke-width="6" stroke-miterlimit="10" points="1345.842,284.093 1365.547,258.392 
			1354.8,272.409 1348.285,280.908 		"/>
		<polyline fill="none" stroke="#FFFFFF" stroke-width="4" stroke-miterlimit="10" points="1345.842,284.093 1365.547,258.392 
			1354.8,272.409 1348.285,280.908 		"/>
	</g>
	
		<line fill="none" stroke="#FFFFFF" stroke-width="4" stroke-miterlimit="10" x1="1354.916" y1="273.382" x2="1401.781" y2="301.027"/>
	
		<line fill="none" stroke="#FFFFFF" stroke-width="4" stroke-miterlimit="10" x1="1542.729" y1="220.157" x2="1562.201" y2="230.771"/>
	
		<line fill="none" stroke="#FFFFFF" stroke-width="4" stroke-miterlimit="10" x1="735.437" y1="322.741" x2="730.881" y2="341.457"/>
	<g>
		<polyline fill="none" stroke="#5FBB46" stroke-width="6" stroke-miterlimit="10" points="648.254,458.202 792.058,548.036 
			824.914,511.695 828.227,508.031 830.776,505.21 848.045,486.111 848.638,485.456 951.176,372.045 960.757,360.202 
			1122.908,362.133 1235.988,427.802 		"/>
		<polyline fill="none" stroke="#FFFFFF" stroke-width="4" stroke-miterlimit="10" points="648.254,458.202 792.058,548.036 
			824.914,511.695 828.227,508.031 830.776,505.21 848.045,486.111 848.638,485.456 951.176,372.045 960.757,360.202 
			1122.908,362.133 1235.988,427.802 		"/>
	</g>
	
		<line fill="none" stroke="#FFFFFF" stroke-width="4" stroke-miterlimit="10" x1="640.878" y1="466.542" x2="659.215" y2="445.062"/>
	<line fill="none" stroke="#FFFFFF" stroke-width="4" stroke-miterlimit="10" x1="1001.312" y1="896.5" x2="948.225" y2="962.906"/>
	<line fill="none" stroke="#FFFFFF" stroke-width="4" stroke-miterlimit="10" x1="949.17" y1="387.907" x2="948.053" y2="375.484"/>
	
		<line fill="none" stroke="#FFFFFF" stroke-width="4" stroke-miterlimit="10" x1="1131.576" y1="351.341" x2="1115.349" y2="370.756"/>
	
		<line fill="#FFFFFF" stroke="#FFFFFF" stroke-width="4" stroke-miterlimit="10" x1="710.095" y1="1061.398" x2="720.203" y2="1049.25"/>
	<g>
		<path fill="none" stroke="#5FBA46" stroke-width="6" stroke-miterlimit="10" d="M448.196,928.139c0,0-53.142,110.334-10.9,113.334
			"/>
		<path fill="none" stroke="#FFFFFF" stroke-width="4" stroke-miterlimit="10" d="M448.196,928.139c0,0-53.142,110.334-10.9,113.334
			"/>
	</g>
	
		<line fill="#7FC466" stroke="#FFFFFF" stroke-width="4" stroke-miterlimit="10" x1="1230.729" y1="434.24" x2="1244.286" y2="416.557"/>
	<path fill="none" stroke="#FFFFFF" stroke-width="4" stroke-miterlimit="10" d="M950.129,866.32"/>
	<g>
		
			<line fill="none" stroke="#FFFFFF" stroke-width="4" stroke-miterlimit="10" x1="951.775" y1="867.291" x2="1069.274" y2="725.355"/>
	</g>
	
		<line fill="none" stroke="#FFFFFF" stroke-width="4" stroke-miterlimit="10" x1="1062.579" y1="721.682" x2="1077.337" y2="729.78"/>
	
		<line fill="none" stroke="#FFFFFF" stroke-width="4" stroke-miterlimit="10" x1="947.142" y1="864.558" x2="961.879" y2="873.248"/>
	<polyline fill="none" stroke="#FFFFFF" stroke-width="4" stroke-miterlimit="10" points="1098.105,691.851 1212.133,551.502 
		1242.811,514.16 	"/>
	
		<line fill="#7FC466" stroke="#FFFFFF" stroke-width="4" stroke-miterlimit="10" x1="439.815" y1="927.447" x2="459.608" y2="928.832"/>
	
		<line fill="#7FC466" stroke="#FFFFFF" stroke-width="4" stroke-miterlimit="10" x1="815.588" y1="786.983" x2="790.574" y2="815.527"/>
	<polyline fill="none" stroke="#FFFFFF" stroke-width="4" stroke-miterlimit="10" points="1188.217,743.407 1207.523,720.307 
		1214.035,723.472 	"/>
	
		<line fill="#7FC466" stroke="#FFFFFF" stroke-width="4" stroke-miterlimit="10" x1="1247.261" y1="570.743" x2="1145.381" y2="691.851"/>
	
		<line fill="#7FC466" stroke="#FFFFFF" stroke-width="4" stroke-miterlimit="10" x1="1259.066" y1="577.209" x2="1341.58" y2="473.866"/>
	
		<line fill="#7FC466" stroke="#FFFFFF" stroke-width="4" stroke-miterlimit="10" x1="1438.083" y1="249.407" x2="1444.052" y2="253.157"/>
	
		<line fill="#7FC466" stroke="#FFFFFF" stroke-width="4" stroke-miterlimit="10" x1="1338.894" y1="293.157" x2="1309.569" y2="278.596"/>
	
		<line fill="#7FC466" stroke="#FFFFFF" stroke-width="4" stroke-miterlimit="10" x1="1306.052" y1="335.824" x2="1282.36" y2="323.057"/>
	<line fill="none" stroke="#FFFFFF" stroke-width="4" stroke-miterlimit="10" x1="985.913" y1="427.59" x2="985.913" y2="427.59"/>
	
		<line fill="none" stroke="#FFFFFF" stroke-width="4" stroke-miterlimit="10" x1="985.354" y1="427.283" x2="974.192" y2="440.974"/>
	<g>
		
			<line fill="none" stroke="#5FBA46" stroke-width="6" stroke-miterlimit="10" x1="1034.895" y1="362.807" x2="1007.093" y2="439.191"/>
		
			<line fill="none" stroke="#FFFFFF" stroke-width="4" stroke-miterlimit="10" x1="1034.895" y1="362.807" x2="1007.093" y2="439.191"/>
	</g>
	
		<line fill="none" stroke="#FFFFFF" stroke-width="4" stroke-miterlimit="10" x1="998.891" y1="434.698" x2="1020.544" y2="446.559"/>
	<line stroke="#FFFFFF" stroke-width="3" stroke-miterlimit="10" x1="1154.924" y1="250.127" x2="1137.098" y2="249.545"/>
	<g>
		<polyline fill="none" stroke="#5FBB46" stroke-width="6" stroke-miterlimit="10" points="517.958,1292.297 501.64,1280.473 
			407.39,1384.83 		"/>
		<polyline fill="none" stroke="#FFFFFF" stroke-width="4" stroke-miterlimit="10" points="517.958,1292.297 501.64,1280.473 
			407.39,1384.83 		"/>
	</g>
	
		<line fill="none" stroke="#FFFFFF" stroke-width="4" stroke-miterlimit="10" x1="400.51" y1="1377.807" x2="416.191" y2="1392.75"/>
	
		<line fill="none" stroke="#FFFFFF" stroke-width="4" stroke-miterlimit="10" x1="527.797" y1="1280.473" x2="510.978" y2="1300.686"/>
	
		<line fill="none" stroke="#FFFFFF" stroke-width="4" stroke-miterlimit="10" x1="501.64" y1="1280.473" x2="484.274" y2="1268.576"/>
	<path fill="none" stroke="#FFFFFF" stroke-width="4" stroke-miterlimit="10" d="M538.915,916.186c0,0-24.332-11.047-17.379-33.813
		c6.953-22.767,64.839-29.725,64.839-29.725"/>
	<g>
		<path fill="none" stroke="#5FBB46" stroke-width="6" stroke-miterlimit="10" d="M895.181,576.44c0,0,19.945-26.301,16.189-30.634
			c-3.757-4.333-72.129-50.377-72.129-50.377"/>
		<path fill="none" stroke="#FFFFFF" stroke-width="4" stroke-miterlimit="10" d="M895.181,576.44c0,0,19.945-26.301,16.189-30.634
			c-3.757-4.333-72.129-50.377-72.129-50.377"/>
	</g>
	<path fill="none" stroke="#FFFFFF" stroke-width="4" stroke-miterlimit="10" d="M890.225,578.94c0,0,7.115-5.58,19.383-5.398"/>
	<line fill="#7FC466" stroke="#FFFFFF" stroke-miterlimit="10" x1="935.85" y1="410.747" x2="931.24" y2="411.938"/>
	<line fill="none" stroke="#FFFFFF" stroke-width="4" stroke-miterlimit="10" x1="834.405" y1="501.197" x2="847.39" y2="486.836"/>
	
		<line fill="none" stroke="#FFFFFF" stroke-width="4" stroke-miterlimit="10" x1="912.056" y1="415.313" x2="934.522" y2="411.372"/>
	<path fill="none" stroke="#FFFFFF" stroke-width="4" stroke-miterlimit="10" d="M568.227,517.621"/>
	<path fill="none" stroke="#FFFFFF" stroke-width="4" stroke-miterlimit="10" d="M581.388,490.31"/>
	
		<line fill="none" stroke="#FFFFFF" stroke-width="4" stroke-miterlimit="10" x1="995.786" y1="903.41" x2="1035.787" y2="925.416"/>
	
		<line fill="none" stroke="#FFFFFF" stroke-width="4" stroke-miterlimit="10" x1="1164.779" y1="777.761" x2="1152.288" y2="793.074"/>
	
		<line fill="none" stroke="#FFFFFF" stroke-width="4" stroke-miterlimit="10" x1="739.009" y1="1082.096" x2="704.983" y2="1066.34"/>
	
		<line fill="none" stroke="#FFFFFF" stroke-width="4" stroke-miterlimit="10" x1="711.08" y1="1051.168" x2="715.17" y2="1055.324"/>
	<path fill="#7EC466" d="M1227.741,765.957"/>
	
		<line fill="none" stroke="#FFFFFF" stroke-width="4" stroke-miterlimit="10" x1="1100.645" y1="727.709" x2="1092.478" y2="738.087"/>
	
		<line fill="#7FC466" stroke="#FFFFFF" stroke-width="4" stroke-miterlimit="10" x1="1112.605" y1="713.561" x2="1134.292" y2="688.223"/>
	<path fill="#4C4E4F" d="M1519.774,269.948"/>
	<path fill="none" stroke="#5FBA46" stroke-width="6" stroke-miterlimit="10" d="M1525.16,280.907"/>
	
		<line fill="none" stroke="#FFFFFF" stroke-width="4" stroke-miterlimit="10" x1="1519.021" y1="288.652" x2="1509.166" y2="283.442"/>
	<g>
		<path fill="none" stroke="#5FBB46" stroke-width="6" stroke-miterlimit="10" d="M1622.42,263.591l2.644,1.441l-162.79-88.726
			c0,0-40.461-7.664-79.855-3.832c-34.009,3.308-91.369,7.982-109.383,9.093c-2.852,0.176-4.717,0.262-5.347,0.239
			c-4.606-0.166-174.075-3-215.942,9c-41.868,12-80.054,23.5-80.054,23.5l-225.74,65.226l-19.171,78.774L712,383.807l-86.079,100.5
			l-49.18,28.398l-2.556,1.476l-1.88,1.085l-21.717,12.541l-72.517,49.5l-46.66,25.167l-106.07,27.667l-28.375,33.999
			l-22.496,34.333l-1.431,21.333l40.416,204.002l-134.299,216.5l-1.958,9.5l231.396,236.254l3.669,3.746l15.125,11.334l36.11,93.025
			l2.233,5.75l21.695,55.893l-0.319,4.998l42.735,23.729l1.709,0.947l1.934,1.074"/>
		<path fill="none" stroke="#FFFFFF" stroke-width="4" stroke-miterlimit="10" d="M1622.42,263.591l2.644,1.441l-162.79-88.726
			c0,0-40.461-7.664-79.855-3.832c-34.009,3.308-91.369,7.982-109.383,9.093c-2.852,0.176-4.717,0.262-5.347,0.239
			c-4.606-0.166-174.075-3-215.942,9c-41.868,12-80.054,23.5-80.054,23.5l-225.74,65.226l-19.171,78.774L712,383.807l-86.079,100.5
			l-49.18,28.398l-2.556,1.476l-1.88,1.085l-21.717,12.541l-72.517,49.5l-46.66,25.167l-106.07,27.667l-28.375,33.999
			l-22.496,34.333l-1.431,21.333l40.416,204.002l-134.299,216.5l-1.958,9.5l231.396,236.254l3.669,3.746l15.125,11.334l36.11,93.025
			l2.233,5.75l21.695,55.893l-0.319,4.998l42.735,23.729l1.709,0.947l1.934,1.074"/>
	</g>
	
		<line fill="none" stroke="#FFFFFF" stroke-width="4" stroke-miterlimit="10" x1="1269.018" y1="186.897" x2="1273.272" y2="181.806"/>
	
		<line fill="none" stroke="#FFFFFF" stroke-width="4" stroke-miterlimit="10" x1="1427.495" y1="177.591" x2="1431.418" y2="172.475"/>
	
		<line fill="none" stroke="#FFFFFF" stroke-width="4" stroke-miterlimit="10" x1="1486.3" y1="189.402" x2="1479.184" y2="198.188"/>
	
		<line fill="none" stroke="#FFFFFF" stroke-width="4" stroke-miterlimit="10" x1="1553.466" y1="227.097" x2="1549.226" y2="232.489"/>
	<g>
		<polyline fill="none" stroke="#5FBA46" stroke-width="6" stroke-miterlimit="10" points="1156.92,922.156 1187.92,941.789 
			1209.854,955.682 1330.766,810.307 		"/>
		<polyline fill="none" stroke="#FFFFFF" stroke-width="4" stroke-miterlimit="10" points="1156.92,922.156 1187.92,941.789 
			1209.854,955.682 1330.766,810.307 		"/>
	</g>
	<polyline fill="none" stroke="#FFFFFF" stroke-width="4" stroke-miterlimit="10" points="522.75,878.971 551.733,880.951 
		552.412,880.998 	"/>
	<line fill="none" stroke="#FFFFFF" stroke-width="4" stroke-miterlimit="10" x1="600.43" y1="880.998" x2="573.954" y2="880.998"/>
	<g>
		
			<line fill="none" stroke="#5FBB46" stroke-width="6" stroke-miterlimit="10" x1="659.683" y1="465.341" x2="648.271" y2="458.212"/>
		
			<line fill="none" stroke="#FFFFFF" stroke-width="4" stroke-miterlimit="10" x1="659.683" y1="465.341" x2="648.271" y2="458.212"/>
	</g>
	
		<line fill="none" stroke="#FFFFFF" stroke-width="4" stroke-miterlimit="10" x1="645.218" y1="461.776" x2="652.681" y2="453.063"/>
	<line fill="none" stroke="#FFFFFF" stroke-width="4" stroke-miterlimit="10" x1="649.946" y1="454.682" x2="636.374" y2="445.97"/>
	
		<line fill="none" stroke="#FFFFFF" stroke-width="4" stroke-miterlimit="10" x1="455.823" y1="589.307" x2="460.064" y2="597.863"/>
	
		<line fill="none" stroke="#FFFFFF" stroke-width="4" stroke-miterlimit="10" x1="313.456" y1="923.807" x2="322.372" y2="923.807"/>
	
		<line fill="none" stroke="#FFFFFF" stroke-width="4" stroke-miterlimit="10" x1="414.614" y1="1376.832" x2="407.516" y2="1384.484"/>
	
		<line fill="none" stroke="#FFFFFF" stroke-width="4" stroke-miterlimit="10" x1="427.144" y1="1400.957" x2="433.451" y2="1393.854"/>
	<g id="highway">
		<polyline fill="none" stroke="#FFFFFF" stroke-width="23" stroke-miterlimit="10" points="489.67,1691.799 562.81,1602.826 
			1219.04,804.528 1229.941,791.267 1234.699,785.579 1241.627,777.297 1283.494,727.25 1286.03,724.218 1288.047,721.808 
			1289.72,719.808 1781.723,131.667 1825.645,79.166 1847.946,52.505 1852.533,47.023 1854.494,44.678 1859.244,39 		"/>
		<path fill="#7EC466" d="M1959.648-83"/>
		<line fill="none" stroke="#FFFFFF" stroke-width="23" stroke-miterlimit="10" x1="562.81" y1="1602.826" x2="447.431" y2="1743"/>
		<path fill="none" stroke="#FFFFFF" stroke-width="23" stroke-miterlimit="10" d="M1963.288-93"/>
		<path fill="none" stroke="#FFFFFF" stroke-width="23" stroke-miterlimit="10" d="M1953.621-93"/>
		<path fill="none" stroke="#FFFFFF" stroke-width="23" stroke-miterlimit="10" d="M1867.509,24.734"/>
	</g>
	<g>
		
			<line fill="none" stroke="#5FBB46" stroke-width="6" stroke-miterlimit="10" x1="864.133" y1="20.973" x2="899.944" y2="233.486"/>
		
			<line fill="none" stroke="#FFFFFF" stroke-width="4" stroke-miterlimit="10" x1="864.133" y1="20.973" x2="899.944" y2="233.486"/>
	</g>
	<polyline fill="none" stroke="#FFFFFF" stroke-width="4" stroke-miterlimit="10" points="506.645,1382.803 504.368,1389.057 
		466.728,1492.475 464.909,1497.471 	"/>
	<polyline fill="none" stroke="#FFFFFF" stroke-width="4" stroke-miterlimit="10" points="939.411,223.391 976.862,294.422 
		961.574,359.321 	"/>
	<path fill="none" stroke="#FFFFFF" stroke-width="4" stroke-miterlimit="10" d="M501.42,545.05
		c-1.505,1.109,36.086-24.745,59.516-28.685c0.159-0.026,0.317-0.052,0.475-0.077c2.113-0.331,4.106-0.479,5.939-0.405
		c0.662,0.027,1.305,0.082,1.923,0.168"/>
	<path fill="none" stroke="#FFFFFF" stroke-width="4" stroke-miterlimit="10" d="M578.266,491.096
		c12.223-7.288-17.476,17.167-13.067,27.323"/>
	<g>
		<path fill="none" stroke="#5FBA46" stroke-width="6" stroke-miterlimit="10" d="M730.561,334.819
			c0,0-127.957,15.195-171.669-74.834"/>
		<path fill="none" stroke="#FFFFFF" stroke-width="4" stroke-miterlimit="10" d="M730.561,334.819
			c0,0-127.957,15.195-171.669-74.834"/>
	</g>
	<polyline fill="none" stroke="#FFFFFF" stroke-width="4" stroke-miterlimit="10" points="868.708,54.072 868.781,54.383 
		868.601,53.619 853.585,59.78 	"/>
</g>
<g id="buildings">
	<g id="facilities">
		<g id="market">
			<g id="market-s">
				<polygon id="mar-2-s" opacity="0.3" fill="#4C4E4F" points="415.368,1643.053 455.187,1663.33 413.979,1708.504 
					376.783,1687.872 				"/>
				<polygon id="mar-1-s" opacity="0.3" fill="#4C4E4F" points="452.981,1589.378 472.522,1565.943 520.507,1590.812 
					456.843,1661.304 436.82,1648.806 478.623,1601.699 				"/>
			</g>
			<g id="market-b">
				<polygon id="mar-2_1_" fill="#80CBEA" stroke="#2B2B2B" stroke-miterlimit="10" points="422.377,1647.617 462.195,1667.896 
					420.988,1713.068 383.79,1692.437 				"/>
				<polygon id="mar-1_1_" fill="#80CBEA" stroke="#2B2B2B" stroke-miterlimit="10" points="459.989,1593.944 479.53,1570.509 
					527.515,1595.377 463.851,1665.868 443.827,1653.371 485.631,1606.265 				"/>
			</g>
		</g>
		<g id="museum">
			<polygon id="mus-1" opacity="0.3" fill="#4C4E4F" points="1073.831,734.406 1104.916,750.656 1076.23,784.823 1067.293,779.156 
				1082.777,760.656 1070.983,753.906 1054.228,773.156 1046.07,767.406 			"/>
			<polygon id="mus" fill="#80CBEA" stroke="#2B2B2B" stroke-miterlimit="10" points="1076.479,736.406 1107.563,752.656 
				1078.878,786.823 1069.94,781.156 1085.424,762.656 1073.631,755.906 1056.874,775.156 1048.717,769.406 			"/>
		</g>
		<g id="univlib">
			<g id="univlib-s">
				<polygon id="lib-3-s_1_" opacity="0.3" fill="#4C4E4F" points="829.45,585.106 858.098,551.273 875.124,561.273 
					883.639,566.273 857.016,598.207 				"/>
				<polygon id="lib-2-s_1_" opacity="0.3" fill="#4C4E4F" points="875.867,560.607 877.325,549.274 891.539,545.94 889.687,557.44 
									"/>
				<polygon id="lib-1-s_1_" opacity="0.3" fill="#4C4E4F" points="832.708,610.041 834.167,598.708 848.38,595.374 
					846.527,606.874 				"/>
			</g>
			<g id="univlib-b">
				<polygon id="lib-3" fill="#80CBEA" stroke="#2B2B2B" stroke-miterlimit="10" points="833.54,587.606 862.188,553.773 
					879.214,563.773 887.729,568.773 861.105,600.707 				"/>
				<polygon id="lib-2" fill="#80CBEA" stroke="#2B2B2B" stroke-miterlimit="10" points="879.761,562.273 881.219,550.94 
					895.433,547.606 893.58,559.106 				"/>
				<polygon id="lib-1" fill="#80CBEA" stroke="#2B2B2B" stroke-miterlimit="10" points="835.683,611.941 837.142,600.608 
					851.354,597.274 849.502,608.774 				"/>
			</g>
		</g>
		<g id="univhospital">
			<polygon id="hsp-s_1_" opacity="0.3" fill="#4C4E4F" points="460.385,859.771 474.292,859.727 467.324,879.04 495.641,881.317 
				505.988,858.272 520.64,859.918 503.599,900.582 444.81,896.37 			"/>
			<polygon id="hsp_1_" fill="#80CBEA" stroke="#2B2B2B" stroke-miterlimit="10" points="465.981,859.754 479.89,859.709 
				472.922,879.022 501.238,881.299 511.585,858.254 526.238,859.899 509.195,900.564 450.407,896.353 			"/>
		</g>
		<g id="ufls">
			<polygon id="fls-s" opacity="0.3" fill="#4C4E4F" points="943.497,871.423 974.101,886.313 968.168,894.478 977.743,898.08 
				974.816,902.162 984.137,906.245 943.403,955.476 919.48,942.027 916.313,946.11 904.417,939.866 896.053,948.992 
				879.77,939.626 894.468,922.335 905.033,924.977 932.139,892.076 928.725,889.578 			"/>
			<polygon id="fls" fill="#80CBEA" stroke="#2B2B2B" stroke-miterlimit="10" points="946.99,872.384 977.594,887.273 
				971.66,895.438 981.235,899.04 978.309,903.123 987.63,907.205 946.896,956.437 922.973,942.988 919.807,947.07 907.91,940.827 
				899.546,949.952 883.262,940.587 897.961,923.296 908.526,925.938 935.631,893.037 932.218,890.538 			"/>
		</g>
		<g id="ftc">
			<polygon id="ftc-s_1_" opacity="0.3" fill="#4C4E4F" points="906.463,850.979 936.549,867.229 907.945,903.229 876.906,885.479 
							"/>
			<polygon id="ftc_2_" fill="#80CBEA" stroke="#2B2B2B" stroke-miterlimit="10" points="912.098,854.729 942.184,870.979 
				913.58,906.979 882.541,889.229 			"/>
		</g>
		<g id="imdc">
			<g id="imdc-s">
				<polygon id="im-2-s" opacity="0.3" fill="#4C4E4F" points="984.858,925.217 995.363,911.467 1016.973,921.467 1005.445,935.967 
									"/>
				<polygon id="im-1-s" opacity="0.3" fill="#4C4E4F" points="996.992,957.817 1023.018,925.467 1046.399,937.467 
					1020.912,969.717 				"/>
			</g>
			<g id="imdc-b">
				<polygon id="im-2_1_" fill="#80CBEA" stroke="#2B2B2B" stroke-miterlimit="10" points="989.229,927.866 999.732,914.116 
					1021.343,924.116 1009.815,938.616 				"/>
				<polygon id="im-1_1_" fill="#80CBEA" stroke="#2B2B2B" stroke-miterlimit="10" points="1001.362,960.467 1027.387,928.116 
					1050.77,940.116 1025.281,972.366 				"/>
			</g>
		</g>
		<g id="npdc_1_">
			<polyline id="npdc-s" opacity="0.3" fill="#4C4E4F" points="1380.78,374.489 1386.356,366.188 1390.564,367.784 
				1412.982,337.772 1442.176,354.055 1410.902,391.729 1407.797,395.88 1370.842,379.868 1375.18,373.212 1379.185,374.489 			"/>
			<polyline id="npdc-m" fill="#80CBEA" stroke="#2B2B2B" stroke-miterlimit="10" points="1385.592,376.442 1391.168,368.142 
				1395.376,369.738 1417.793,339.726 1446.987,356.009 1415.714,393.684 1412.607,397.834 1375.652,381.822 1379.991,375.166 
				1383.996,376.442 			"/>
		</g>
	</g>
	<g id="offices">
		<g id="extension_1_">
			<polygon id="ext-s_1_" opacity="0.3" fill="#4C4E4F" points="1315.755,834.378 1331.352,814.878 1346.622,822.378 
				1331.389,840.878 1338.16,845.628 1320.607,866.379 1312.928,861.378 1296.762,880.379 1283.333,872.629 1300.885,851.878 
				1308.452,855.128 1321.799,838.378 			"/>
			<polygon id="ext_1_" fill="#80CBEA" stroke="#2B2B2B" stroke-miterlimit="10" points="1317.769,835.028 1333.365,815.528 
				1348.636,823.028 1333.402,841.528 1340.174,846.278 1322.621,867.028 1314.941,862.028 1298.775,881.028 1285.347,873.278 
				1302.898,852.528 1310.466,855.778 1323.813,839.028 			"/>
		</g>
		<g id="nsrc">
			<polygon id="nsrc-s" opacity="0.3" fill="#4C4E4F" points="983.844,756.474 1018.988,773.935 1009.301,786.977 974.699,769.191 
							"/>
			<polygon id="nsrc_1_" fill="#80CBEA" stroke="#2B2B2B" stroke-miterlimit="10" points="985.583,757.32 1020.726,774.782 
				1011.039,787.824 976.437,770.039 			"/>
		</g>
		<g id="prio" display="none">
			<polygon id="pri-s_1_" display="inline" opacity="0.3" fill="#4C4E4F" points="1205.008,736.147 1222.973,713.595 
				1236.871,721.112 1219.982,743.345 			"/>
			<polygon id="pri_1_" display="inline" fill="#80CBEA" stroke="#2B2B2B" stroke-miterlimit="10" points="1208.192,736.627 
				1226.158,714.075 1240.056,721.592 1223.167,743.825 			"/>
		</g>
		<g id="admin">
			<polygon id="adm-s" opacity="0.3" fill="#4C4E4F" points="960.781,704.684 1033.793,616.634 1082.066,644.415 1007.471,732.935 
							"/>
			<polygon id="adm" fill="#80CBEA" stroke="#2B2B2B" stroke-miterlimit="10" points="965.403,707.509 1038.414,619.459 
				1086.689,647.24 1012.094,735.76 			"/>
		</g>
		<g id="securityoffice">
			<polygon id="so-s_1_" opacity="0.3" fill="#4C4E4F" points="1136.891,816.621 1145.288,805.454 1142.955,803.621 
				1149.73,796.454 1153.154,797.121 1161.537,786.454 1173.005,792.954 1155.922,813.787 1159.451,814.621 1151.494,824.121 			"/>
			<polygon id="so_1_" fill="#80CBEA" stroke="#2B2B2B" stroke-miterlimit="10" points="1139.739,817.954 1148.137,806.787 
				1145.805,804.954 1152.58,797.787 1156.003,798.454 1164.386,787.787 1175.854,794.287 1158.771,815.121 1162.301,815.954 
				1154.343,825.454 			"/>
		</g>
		<g id="ucc">
			<polygon id="cc-s" opacity="0.3" fill="#4C4E4F" points="910.964,649.493 958.41,672.993 1000.701,619.993 954.618,595.493 			
				"/>
			<polygon id="cc" fill="#80CBEA" stroke="#2B2B2B" stroke-miterlimit="10" points="918.19,652.993 965.637,676.493 
				1007.927,623.493 961.844,598.993 			"/>
		</g>
		<g id="ngs">
			<polygon id="gs-s_1_" opacity="0.3" fill="#4C4E4F" points="1040.199,781.415 1058.664,791.582 1052.374,799.249 
				1062.312,804.915 1024.994,849.747 998.348,834.581 1005.911,825.247 1021.803,832.413 1044.373,804.747 1028.558,795.081 			"/>
			<polygon id="gs_1_" fill="#80CBEA" stroke="#2B2B2B" stroke-miterlimit="10" points="1046.737,781.309 1065.203,791.476 
				1058.912,799.143 1068.85,804.809 1031.532,849.642 1004.887,834.475 1012.449,825.142 1028.342,832.308 1050.911,804.641 
				1035.097,794.975 			"/>
		</g>
		<g id="sh">
			<polygon id="sh-4-s" opacity="0.3" fill="#4C4E4F" points="759.149,866.317 769.358,852.955 790.359,862.673 779.156,876.766 			
				"/>
			<polygon id="sh-4" fill="#80CBEA" stroke="#2B2B2B" stroke-miterlimit="10" points="762.88,867.711 773.089,854.349 
				794.09,864.067 782.888,878.158 			"/>
			<path id="sh-3-s" opacity="0.3" fill="#4C4E4F" d="M796.673,821.412c-1.172,3.22-5.005,5.831-8.561,5.831
				c-3.555,0-5.487-2.61-4.315-5.831s5.005-5.831,8.561-5.831S797.846,818.192,796.673,821.412z"/>
			<path id="sh-3" fill="#80CBEA" stroke="#2B2B2B" stroke-miterlimit="10" d="M799.848,823.817
				c-1.172,3.22-5.005,5.831-8.561,5.831s-5.488-2.611-4.316-5.831c1.172-3.22,5.005-5.831,8.561-5.831
				S801.02,820.597,799.848,823.817z"/>
			<path id="sh-2-s" opacity="0.3" fill="#4C4E4F" d="M826.785,835.523c-2.471,2.891-6.6,3.965-9.222,2.398
				c-2.622-1.566-2.744-5.18-0.272-8.071c2.47-2.891,6.599-3.965,9.221-2.398C829.133,829.019,829.255,832.633,826.785,835.523z"/>
			<path id="sh-2" fill="#80CBEA" stroke="#2B2B2B" stroke-miterlimit="10" d="M828.054,837.407c-2.471,2.891-6.6,3.964-9.222,2.398
				c-2.622-1.566-2.744-5.18-0.272-8.071c2.47-2.891,6.599-3.965,9.221-2.398C830.402,830.902,830.524,834.516,828.054,837.407z"/>
			<path id="sh-1-s" opacity="0.3" fill="#4C4E4F" d="M812.967,841.842c-3.452,9.482-14.169,17.17-23.94,17.17
				c-9.77,0-14.892-7.688-11.44-17.17c3.451-9.483,14.169-17.17,23.938-17.17C811.296,824.672,816.419,832.359,812.967,841.842z"/>
			<path id="sh-1" fill="#80CBEA" stroke="#2B2B2B" stroke-miterlimit="10" d="M815.687,843.902
				c-3.451,9.482-14.17,17.17-23.939,17.17c-9.77,0-14.893-7.688-11.441-17.17c3.452-9.483,14.17-17.17,23.94-17.17
				C814.015,826.732,819.138,834.419,815.687,843.902z"/>
		</g>
		<g id="ptgc">
			<polygon id="ptgc-s_1_" opacity="0.3" fill="#4C4E4F" points="1197.611,904.416 1225.849,921.166 1207.229,943.017 
				1178.847,925.75 			"/>
			<polygon id="ptgc_2_" fill="#80CBEA" stroke="#2B2B2B" stroke-miterlimit="10" points="1199.908,906.117 1228.145,922.867 
				1209.525,944.718 1181.144,927.451 			"/>
		</g>
		<g id="osa">
			<polygon id="osa-s" opacity="0.3" fill="#4C4E4F" points="782.735,1001 823.455,953 840.577,962.625 831.198,973.625 
				825.756,970.375 794.562,1008 			"/>
			<polygon id="osa_1_" fill="#80CBEA" stroke="#2B2B2B" stroke-miterlimit="10" points="785.643,1004 826.363,956 843.485,965.625 
				834.106,976.625 828.664,973.375 797.47,1011 			"/>
		</g>
		<g id="cebrem">
			<polygon id="ceb-s_1_" opacity="0.3" fill="#4C4E4F" points="1108.17,779.689 1119.7,765.323 1142.001,777.799 1130.805,790.905 
							"/>
			<polygon id="ceb_1_" fill="#80CBEA" stroke="#2B2B2B" stroke-miterlimit="10" points="1110.496,781.05 1122.027,766.684 
				1144.328,779.16 1133.13,792.266 			"/>
		</g>
	</g>
	<g id="colleges">
		<g id="coed">
			<g id="coed-s">
				<polygon id="ed-5-s" opacity="0.3" fill="#4C4E4F" points="1273.192,509.277 1297.705,477.277 1318.133,488.828 
					1293.336,521.661 1284.552,516.098 1298.52,498.489 1295.526,496.991 1281.36,514.691 				"/>
				<polygon id="ed-4-s_1_" opacity="0.3" fill="#4C4E4F" points="1269.257,514.001 1278.377,519.559 1263.369,538.268 
					1265.998,539.854 1281.178,520.643 1289.906,526.372 1266.412,554.382 1245.758,543.497 				"/>
				<polygon id="ed-3-s" opacity="0.3" fill="#4C4E4F" points="1215.102,476.035 1224.391,481.09 1238.837,463.548 
					1241.357,464.477 1227.639,482.826 1235.696,487.582 1258.972,457.76 1237.816,446.392 				"/>
				<polygon id="ed-2-s" opacity="0.3" fill="#4C4E4F" points="1188.508,510.729 1211.561,480.087 1221.188,485.629 
					1204.996,505.857 1208.074,507.103 1223.59,487.883 1232.771,491.785 1208.096,521.311 				"/>
				<polygon id="ed-1-s" opacity="0.3" fill="#4C4E4F" points="1265.082,456.947 1298.665,474.448 1271.232,508.172 
					1262.668,503.925 1259.691,507.304 1265.117,510.969 1241.338,541.296 1229.751,535.142 1245.605,514.922 1237.434,510.5 
					1221.974,529.556 1212.068,523.853 1235.795,493.194 1243.406,497.795 1246.834,493.58 1239.278,489.803 				"/>
			</g>
			<g id="coed-b">
				<polygon id="ed-5_1_" fill="#80CBEA" stroke="#2B2B2B" stroke-miterlimit="10" points="1275.879,510.201 1300.394,478.201 
					1320.82,489.752 1296.025,522.585 1287.239,517.022 1301.208,499.414 1298.215,497.915 1284.049,515.615 				"/>
				<polygon id="ed-4_1_" fill="#80CBEA" stroke="#2B2B2B" stroke-miterlimit="10" points="1271.944,514.925 1281.064,520.483 
					1266.057,539.192 1268.687,540.779 1283.865,521.567 1292.595,527.296 1269.1,555.306 1248.447,544.421 				"/>
				<polygon id="ed-3_1_" fill="#80CBEA" stroke="#2B2B2B" stroke-miterlimit="10" points="1217.788,476.959 1227.079,482.014 
					1241.525,464.473 1244.046,465.401 1230.326,483.75 1238.383,488.506 1261.658,458.684 1240.503,447.316 				"/>
				<polygon id="ed-2_1_" fill="#80CBEA" stroke="#2B2B2B" stroke-miterlimit="10" points="1191.194,511.653 1214.248,481.012 
					1223.874,486.554 1207.684,506.782 1210.764,508.027 1226.277,488.807 1235.459,492.709 1210.783,522.235 				"/>
				<polygon id="ed-1_1_" fill="#80CBEA" stroke="#2B2B2B" stroke-miterlimit="10" points="1267.77,457.871 1301.352,475.372 
					1273.921,509.097 1265.355,504.85 1262.378,508.228 1267.805,511.893 1244.025,542.221 1232.439,536.066 1248.293,515.846 
					1240.122,511.424 1224.661,530.48 1214.758,524.776 1238.483,494.118 1246.094,498.719 1249.523,494.504 1241.967,490.728 				
					"/>
			</g>
		</g>
		<g id="cas">
			<g id="cas-s">
				<polygon id="cas-ext-s" opacity="0.3" fill="#4C4E4F" points="1287.749,378.606 1294.245,369.516 1289.701,365.083 
					1338.923,298.278 1348.352,300.64 1355.111,289.928 1376.826,298.778 1370.648,309.231 1361.002,306.186 1311.284,372.71 
					1319.08,375.881 1309.528,388.542 				"/>
				<polygon id="as-anx-2-s" opacity="0.3" fill="#4C4E4F" points="1253.94,416.322 1275.068,389.495 1282.926,393.635 
					1280.721,398.91 1359.053,436.937 1354.406,444.1 1363.005,449.631 1350.898,465.153 				"/>
				<polygon id="as-anx-1-s" opacity="0.3" fill="#4C4E4F" points="1276.509,558.742 1331.986,488.742 1342.469,494.742 
					1287.446,564.408 				"/>
				<polygon id="as-m-s" opacity="0.3" fill="#4C4E4F" points="1121.607,671.577 1203.883,568.244 1216.668,578.911 
					1161.494,646.244 1167.462,650.911 1222,582.577 1233.937,591.911 1146.901,698.244 1128.027,683.244 1131.726,678.577 				"/>
			</g>
			<g id="cas-b">
				<polygon id="cas-ext_1_" fill="#80CBEA" stroke="#2B2B2B" stroke-miterlimit="10" points="1293.071,380.701 1299.658,371.378 
					1295.154,366.839 1345.029,298.336 1354.438,300.752 1361.301,289.769 1381.699,300.942 1414.842,319.92 1348.287,410.442 				
					"/>
				<polygon id="as-anx-2_1_" fill="#80CBEA" stroke="#2B2B2B" stroke-miterlimit="10" points="1259.302,419.313 1280.432,392.486 
					1288.287,396.627 1286.083,401.902 1364.414,439.93 1359.767,447.093 1368.366,452.624 1356.26,468.145 				"/>
				<polygon id="as-anx-1_1_" fill="#80CBEA" stroke="#2B2B2B" stroke-miterlimit="10" points="1281.934,561.242 1337.411,491.242 
					1347.893,497.242 1292.871,566.908 				"/>
				<polygon id="as-m_1_" fill="#80CBEA" stroke="#2B2B2B" stroke-miterlimit="10" points="1125.379,673.577 1207.655,570.244 
					1220.44,580.911 1165.266,648.244 1171.234,652.911 1225.772,584.577 1237.709,593.911 1150.674,700.244 1131.799,685.244 
					1135.498,680.577 				"/>
			</g>
			<polygon id="cas-ext-c" fill="#90C965" stroke="#000000" stroke-miterlimit="10" points="1316.221,369.977 1342.155,384.557 
				1385.865,324.821 1357.996,310.583 			"/>
			<polygon id="cas-ext-c-s" opacity="0.3" fill="#4C4E4F" points="1338.07,381.165 1342.113,383.687 1385.289,325.212 
				1381.519,322.601 			"/>
		</g>
		<g id="cbm">
			<g id="cbm-s">
				<polygon id="bm-1-s_1_" opacity="0.3" fill="#4C4E4F" points="1095.999,423.919 1134.901,378.169 1146.604,385.169 
					1120.706,417.169 1140.43,428.919 1159.527,406.669 1169.094,412.669 1150.928,434.419 1168.788,444.419 1195.821,413.419 
					1205.229,419.169 1168.281,463.669 				"/>
				<polygon id="bm-2-s_1_" opacity="0.3" fill="#4C4E4F" points="1111.93,449.752 1158.33,474.752 1143.006,493.502 
					1095.65,469.752 				"/>
			</g>
			<g id="cbm-b">
				<polygon id="bm-2" fill="#80CBEA" stroke="#2B2B2B" stroke-miterlimit="10" points="1116.292,452.419 1162.693,477.419 
					1147.369,496.169 1100.013,472.419 				"/>
				<polygon id="bm-1" fill="#80CBEA" stroke="#2B2B2B" stroke-miterlimit="10" points="1100.938,425.919 1139.839,380.169 
					1151.541,387.169 1125.645,419.169 1145.367,430.919 1164.466,408.669 1174.032,414.669 1155.865,436.419 1173.727,446.419 
					1200.759,415.419 1210.166,421.169 1173.22,465.669 				"/>
			</g>
		</g>
		<g id="coengg">
			<g id="coengg-s">
				<polygon id="eng-8-s_1_" opacity="0.3" fill="#4C4E4F" points="1500,317.721 1501.219,318.311 1543.454,338.788 
					1519.693,367.703 1477.919,347.06 				"/>
				<polygon id="eng-7-s_1_" opacity="0.3" fill="#4C4E4F" points="1537.934,263.063 1539.373,263.761 1589.326,287.98 
					1561.224,322.178 1511.816,297.763 				"/>
				<polygon id="ica-s_1_" opacity="0.3" fill="#4C4E4F" points="1464.106,364.61 1502.574,384.012 1487.388,405.05 
					1448.55,386.603 				"/>
				<polygon id="eng-6-s_1_" opacity="0.3" fill="#4C4E4F" points="1482.887,279.866 1465.448,302.366 1480.491,309.116 
					1497.998,287.116 				"/>
				<polygon id="eng-5-s_1_" opacity="0.3" fill="#4C4E4F" points="1445.783,250.616 1472.362,218.116 1484.179,224.116 
					1458.065,256.366 				"/>
				<polygon id="eng-4-s_1_" opacity="0.3" fill="#4C4E4F" points="1483.722,230.866 1495.651,237.241 1473.961,263.866 
					1462.121,258.616 				"/>
				<polygon id="eng-3-s_1_" opacity="0.3" fill="#4C4E4F" points="1477.277,269.866 1493.102,251.116 1506.599,259.366 
					1491.729,276.866 				"/>
				<polygon id="eng-2-s_1_" opacity="0.3" fill="#4C4E4F" points="1437.947,305.116 1464.958,272.116 1477.592,278.616 
					1452.149,312.116 				"/>
				<polygon id="eng-1-s_1_" opacity="0.3" fill="#4C4E4F" points="1446.349,259.366 1459.027,267.116 1431.426,300.366 
					1420.179,292.116 				"/>
			</g>
			<g id="coengg-b">
				<polygon id="eng-8" fill="#80CBEA" stroke="#2B2B2B" stroke-miterlimit="10" points="1503.851,319.279 1505.069,319.87 
					1547.305,340.347 1523.543,369.261 1481.77,348.618 				"/>
				<polygon id="eng-7" fill="#80CBEA" stroke="#2B2B2B" stroke-miterlimit="10" points="1541.971,265.39 1543.411,266.088 
					1593.364,290.308 1565.262,324.505 1515.854,300.09 				"/>
				<polygon id="ica" fill="#80CBEA" stroke="#2B2B2B" stroke-miterlimit="10" points="1467.771,366.61 1506.238,386.012 
					1491.051,407.05 1452.214,388.603 				"/>
				<polygon id="eng-6" fill="#80CBEA" stroke="#2B2B2B" stroke-miterlimit="10" points="1485.523,280.866 1468.084,303.366 
					1483.127,310.116 1500.635,288.116 				"/>
				<polygon id="eng-5" fill="#80CBEA" stroke="#2B2B2B" stroke-miterlimit="10" points="1448.42,251.616 1474.998,219.116 
					1486.814,225.116 1460.701,257.366 				"/>
				<polygon id="eng-4" fill="#80CBEA" stroke="#2B2B2B" stroke-miterlimit="10" points="1486.357,231.866 1498.287,238.241 
					1476.597,264.866 1464.758,259.616 				"/>
				<polygon id="eng-3" fill="#80CBEA" stroke="#2B2B2B" stroke-miterlimit="10" points="1479.913,270.866 1495.737,252.116 
					1509.234,260.366 1494.365,277.866 				"/>
				<polygon id="eng-2" fill="#80CBEA" stroke="#2B2B2B" stroke-miterlimit="10" points="1440.583,306.116 1467.594,273.116 
					1480.229,279.616 1454.785,313.116 				"/>
				<polygon id="eng-1" fill="#80CBEA" stroke="#2B2B2B" stroke-miterlimit="10" points="1448.984,260.366 1461.664,268.116 
					1434.063,301.366 1422.814,293.116 				"/>
			</g>
		</g>
		<g id="cvm">
			<polygon id="vm-s_1_" opacity="0.3" fill="#4C4E4F" points="1032.346,217.616 1051.846,217.616 1049.298,224.616 
				1064.048,224.616 1066.05,219.116 1081.208,219.366 1084.848,209.366 1145.848,209.366 1125.102,266.366 1137.602,266.366 
				1125.045,300.866 1097.795,300.866 1108.736,270.116 1099.419,269.616 1106.948,249.616 1110.948,249.616 1118.046,230.116 
				1084.546,230.116 1072.989,261.866 1051.49,261.866 1060.135,238.116 1025.066,237.616 			"/>
			<polygon id="vm_1_" fill="#80CBEA" stroke="#2B2B2B" stroke-miterlimit="10" points="1037.346,217.616 1056.846,217.616 
				1054.298,224.616 1069.048,224.616 1071.05,219.116 1086.208,219.366 1089.848,209.366 1150.848,209.366 1130.102,266.366 
				1142.602,266.366 1130.045,300.866 1102.795,300.866 1113.736,270.116 1104.419,269.616 1111.948,249.616 1115.948,249.616 
				1123.046,230.116 1089.546,230.116 1077.989,261.866 1056.49,261.866 1065.135,238.116 1030.066,237.616 			"/>
		</g>
		<g id="coa">
			<g id="coa-s">
				<polygon id="ag-main-s" opacity="0.3" fill="#4C4E4F" points="868.718,401.171 877.952,407.701 890.752,393.035 
					869.705,377.557 883.592,363.622 908.441,380.765 928.32,359.748 916.371,351.084 926.854,340.641 954.965,359.983 
					885.793,436.295 854.693,416.59 				"/>
				<polygon id="ag-il-s" opacity="0.3" fill="#4C4E4F" points="915.237,459.321 945.734,421.321 1004.724,454.321 975.106,488.988 
									"/>
				<polyline id="ag-clr-6-s" opacity="0.3" fill="#4C4E4F" points="1039.617,274.654 1034.825,287.821 1058.407,287.821 
					1063.199,274.654 1039.708,274.404 				"/>
				<polygon id="ag-clr-5-s" opacity="0.3" fill="#4C4E4F" points="1080.114,304.654 1074.958,318.821 1091.042,318.821 
					1096.198,304.654 				"/>
				<polygon id="ag-clr-4-s" opacity="0.3" fill="#4C4E4F" points="1048.259,347.988 1058.511,319.821 1072.011,319.821 
					1070.373,324.321 1076.101,324.154 1077.436,320.488 1090.314,320.821 1080.123,348.821 1065.956,348.821 1067.169,345.488 
					1062.941,345.654 1061.623,348.821 				"/>
				<polygon id="ag-clr-3-s" opacity="0.3" fill="#4C4E4F" points="1015.579,293.991 1022.245,293.991 1022.975,291.988 
					1038.309,291.988 1036.306,297.491 1039.638,297.491 1041.641,291.988 1056.309,291.988 1045.267,322.324 1032.297,321.324 
					1033.086,319.158 1028.525,319.324 1027.57,321.491 1013.691,321.158 1019.044,305.991 1011.454,305.324 				"/>
				<polygon id="ag-clr-2_1_" opacity="0.3" fill="#4C4E4F" points="981.184,344.988 982.154,342.321 991.186,341.321 
					995.735,328.821 1011.402,328.821 1009.643,333.654 1013.477,333.654 1015.235,328.821 1029.568,328.821 1019.559,356.321 
					1005.059,356.321 1005.363,353.655 1002.196,353.655 1000.727,356.321 969.893,356.321 974.078,344.821 				"/>
				<polygon id="ag-clr-1-s" opacity="0.3" fill="#4C4E4F" points="1032.945,328.471 1053.152,328.821 1046.425,347.304 
					1026.091,347.304 				"/>
			</g>
			<g id="coa-b">
				<polygon id="ag-clr-1_1_" fill="#80CBEA" stroke="#2B2B2B" stroke-miterlimit="10" points="1034.945,328.471 1055.152,328.821 
					1048.425,347.304 1028.091,347.304 				"/>
				<polygon id="ag-main_1_" fill="#80CBEA" stroke="#2B2B2B" stroke-miterlimit="10" points="871.164,401.468 880.399,407.998 
					893.198,393.331 872.151,377.854 886.037,363.92 910.888,381.062 930.768,360.045 918.818,351.382 929.301,340.939 
					957.411,360.281 888.238,436.593 857.14,416.887 				"/>
				<polygon id="ag-il_1_" fill="#80CBEA" stroke="#2B2B2B" stroke-miterlimit="10" points="918.237,459.321 948.734,421.321 
					1007.724,454.321 978.106,488.988 				"/>
				<polyline id="ag-clr-6_1_" fill="#80CBEA" stroke="#2B2B2B" stroke-miterlimit="10" points="1042.617,274.654 1037.825,287.821 
					1061.407,287.821 1066.199,274.654 1042.708,274.404 				"/>
				<polygon id="ag-clr-5_1_" fill="#80CBEA" stroke="#2B2B2B" stroke-miterlimit="10" points="1083.114,304.654 1077.958,318.821 
					1094.042,318.821 1099.198,304.654 				"/>
				<polygon id="ag-clr-4_1_" fill="#80CBEA" stroke="#2B2B2B" stroke-miterlimit="10" points="1051.259,347.988 1061.511,319.821 
					1075.011,319.821 1073.373,324.321 1079.101,324.154 1080.436,320.488 1093.314,320.821 1083.123,348.821 1068.956,348.821 
					1070.169,345.488 1065.941,345.654 1064.623,348.821 				"/>
				<polygon id="ag-clr-3_1_" fill="#80CBEA" stroke="#2B2B2B" stroke-miterlimit="10" points="1018.579,293.991 1025.245,293.991 
					1025.975,291.988 1041.309,291.988 1039.306,297.491 1042.638,297.491 1044.641,291.988 1059.309,291.988 1048.267,322.324 
					1035.297,321.324 1036.086,319.158 1031.525,319.324 1030.57,321.491 1016.691,321.158 1022.044,305.991 1014.454,305.324 				
					"/>
				<polygon id="ag-clr-2_2_" fill="#80CBEA" stroke="#2B2B2B" stroke-miterlimit="10" points="984.184,344.988 985.154,342.321 
					994.186,341.321 998.735,328.821 1014.402,328.821 1012.643,333.654 1016.477,333.654 1018.235,328.821 1032.568,328.821 
					1022.559,356.321 1008.059,356.321 1008.363,353.655 1005.196,353.655 1003.727,356.321 972.893,356.321 977.078,344.821 				
					"/>
			</g>
		</g>
		<g id="cfes">
			<g id="cfes-s">
				<polyline id="fes-adm-s" opacity="0.3" fill="#4C4E4F" points="456.388,557.904 461.933,566.549 482.854,552.307 
					481.18,549.261 494.299,539.752 486.343,529.558 468.237,543.846 469.666,547.979 456.705,557.071 				"/>
				<polygon id="fes-3-s" opacity="0.3" fill="#4C4E4F" points="665.584,314.186 714.215,242.853 726.971,247.186 680.22,318.853 
									"/>
				<polygon id="fes-2-s" opacity="0.3" fill="#4C4E4F" points="647.962,272.853 679.796,227.519 691.885,231.853 661.006,276.853 
									"/>
				<polygon id="fes-1-s" opacity="0.3" fill="#4C4E4F" points="558.059,481.852 595.19,496.602 617.95,469.102 624.835,472.852 
					638.363,455.602 630.842,450.852 638.971,441.227 645.833,445.727 656.371,432.227 647.361,427.102 659.4,412.227 
					629.349,396.227 616.287,411.852 632.988,421.602 625.985,429.852 618.202,426.852 602.457,446.414 609.922,449.602 
					602.862,458.352 583.183,450.602 				"/>
			</g>
			<g id="cfes-b">
				<polygon id="fes-3_1_" fill="#80CBEA" stroke="#2B2B2B" stroke-miterlimit="10" points="668.099,315.061 716.729,243.728 
					729.485,248.061 682.734,319.728 				"/>
				<polygon id="fes-2_1_" fill="#80CBEA" stroke="#2B2B2B" stroke-miterlimit="10" points="650.477,273.728 682.31,228.395 
					694.399,232.728 663.521,277.728 				"/>
				<polygon id="fes-1_1_" fill="#80CBEA" stroke="#2B2B2B" stroke-miterlimit="10" points="560.573,482.727 597.705,497.477 
					620.464,469.977 627.349,473.727 640.878,456.477 633.356,451.727 641.485,442.102 648.347,446.602 658.886,433.102 
					649.876,427.977 661.915,413.102 631.863,397.102 618.802,412.727 635.503,422.477 628.5,430.727 620.717,427.727 
					604.972,447.29 612.437,450.477 605.377,459.227 585.697,451.477 				"/>
				<polyline id="fes-adm_1_" fill="#80CBEA" stroke="#2B2B2B" stroke-miterlimit="10" points="458.87,558.827 464.416,567.471 
					485.336,553.229 483.662,550.183 496.781,540.674 488.826,530.48 470.72,544.769 472.148,548.901 459.188,557.993 				"/>
			</g>
		</g>
		<g id="che">
			<polyline id="he-s" opacity="0.3" fill="#4C4E4F" points="674.888,669.322 702.973,684.656 708.369,678.989 719.973,684.656 
				709.332,698.322 726.178,706.989 747.763,680.656 733.25,671.989 758.563,639.989 750.717,634.989 768.634,612.322 
				748.516,601.656 734.328,618.656 720.179,612.656 675.494,667.656 			"/>
			<polyline id="he" fill="#80CBEA" stroke="#2B2B2B" stroke-miterlimit="10" points="679.335,671.755 707.421,687.088 
				712.817,681.422 724.421,687.088 713.78,700.755 730.626,709.422 752.21,683.088 737.698,674.422 763.012,642.422 
				755.165,637.422 773.082,614.755 752.964,604.088 738.776,621.088 724.627,615.088 679.942,670.088 			"/>
		</g>
		<g id="con">
			<polygon id="nur-s_1_" opacity="0.3" fill="#4C4E4F" points="450.351,954.268 453.018,954.268 460.297,934.268 465.297,934.268 
				463.78,938.435 468.28,938.435 470.222,933.101 513.555,933.101 508.884,945.935 527.323,946.101 520.408,965.101 
				503.075,965.101 492.08,993.935 479.55,993.101 482.174,985.435 468.386,985.768 463.958,997.934 452.458,997.934 454.597,991.6 
				437.127,990.6 			"/>
			<polygon id="nur_1_" fill="#80CBEA" stroke="#2B2B2B" stroke-miterlimit="10" points="455.018,954.268 457.685,954.268 
				464.964,934.268 469.964,934.268 468.447,938.435 472.947,938.435 474.889,933.101 518.222,933.101 513.551,945.935 
				531.99,946.101 525.075,965.101 507.742,965.101 496.747,993.935 484.217,993.101 486.841,985.435 473.053,985.768 
				468.625,997.934 457.125,997.934 459.264,991.6 441.794,990.6 			"/>
		</g>
	</g>
	<g id="dorms">
		<g id="rose">
			<polygon id="rs-s" opacity="0.3" fill="#4C4E4F" points="1602.592,245.677 1623.737,219.177 1612.103,212.677 1620.501,203.344 
				1616.41,200.844 1626.884,189.011 1630.444,190.677 1636.961,182.844 1643.931,185.677 1636.018,195.511 1657.59,207.677 
				1641.053,228.844 1628.979,224.011 1608.728,248.511 			"/>
			<polygon id="rs" fill="#80CBEA" stroke="#2B2B2B" stroke-miterlimit="10" points="1605.016,247.26 1626.161,220.76 
				1614.526,214.26 1622.925,204.927 1618.834,202.427 1629.308,190.594 1632.868,192.26 1639.385,184.427 1646.354,187.26 
				1638.441,197.094 1660.014,209.26 1643.477,230.427 1631.402,225.594 1611.151,250.094 			"/>
		</g>
		<g id="mahogany">
			<polygon id="mhg-s_1_" opacity="0.3" fill="#4C4E4F" points="818.774,39.268 849.286,29.146 850.612,46.103 845.897,47.839 
				850.364,72.8 855.806,71.586 858.487,90.667 825.754,102.322 823.549,84.81 832.954,80.783 828.86,54.253 820.435,56.842 			"/>
			<polygon id="mhg_1_" fill="#80CBEA" stroke="#2B2B2B" stroke-miterlimit="10" points="824.089,39.487 854.6,29.365 
				855.928,46.322 851.211,48.058 855.68,73.019 861.12,71.805 863.802,90.886 831.067,102.541 828.864,85.029 838.27,81.002 
				834.173,54.473 825.75,57.061 			"/>
		</g>
		<g id="sunrise">
			<polyline id="sun-s" opacity="0.3" fill="#4C4E4F" points="1293.451,261.282 1296.299,262.615 1304.363,249.615 
				1324.861,258.782 1314.447,272.282 1310.387,270.615 1304.384,279.782 1298.732,277.449 1292.942,285.115 1301.986,289.115 
				1281.659,317.949 1285.446,319.449 1280.354,326.115 1277.127,324.449 1269.472,334.949 1250.913,327.782 1254.066,322.782 
				1250.295,320.782 1240.745,333.282 1221.549,325.122 1232.449,310.282 1242.979,314.782 1248.467,306.115 1263.131,311.615 
				1287.778,277.782 1283.203,274.782 1292.814,262.115 			"/>
			<polyline id="sun" fill="#80CBEA" stroke="#2B2B2B" stroke-miterlimit="10" points="1296.896,263.033 1299.745,264.366 
				1307.81,251.366 1328.307,260.533 1317.894,274.033 1313.833,272.366 1307.83,281.533 1302.179,279.199 1296.389,286.866 
				1305.433,290.866 1285.105,319.699 1288.893,321.199 1283.8,327.866 1280.572,326.199 1272.918,336.699 1254.359,329.533 
				1257.513,324.533 1253.74,322.533 1244.191,335.033 1224.994,326.872 1235.896,312.033 1246.425,316.533 1251.912,307.866 
				1266.577,313.366 1291.225,279.533 1286.649,276.533 1296.26,263.866 			"/>
		</g>
		<g id="gardenia">
			<polygon id="gar-s_1_" opacity="0.3" fill="#4C4E4F" points="426.45,1047.508 435.117,1047.508 427.716,1067.841 
				467.656,1066.175 461.469,1083.175 382.407,1085.175 388.353,1068.841 419.262,1066.342 			"/>
			<polygon id="gar_1_" fill="#80CBEA" stroke="#2B2B2B" stroke-miterlimit="10" points="433.45,1047.508 442.117,1047.508 
				434.716,1067.841 474.656,1066.175 468.469,1083.175 389.407,1085.175 395.353,1068.841 426.262,1066.342 			"/>
		</g>
		<g id="cattleya">
			<g id="catt-s">
				<polygon id="catt-2-s" opacity="0.3" fill="#4C4E4F" points="477.487,1217.625 493.016,1200.375 501.287,1205.125 
					485.565,1221.875 				"/>
				<polygon id="catt-1-s" opacity="0.3" fill="#4C4E4F" points="463.399,1232.292 474.479,1220.626 491.399,1232.292 
					495.855,1228.292 511.079,1237.293 456.635,1291.63 444.653,1283.797 426.81,1272.375 437.115,1261.463 453.612,1270.63 
					479.712,1243.797 				"/>
				<polygon id="catt-3-s" opacity="0.3" fill="#4C4E4F" points="408.154,1263.875 415.815,1255.875 408.091,1249.625 
					416.912,1239.125 427.16,1244.625 444.849,1224.875 437.351,1219.375 445.717,1210.125 454.192,1216.375 464.492,1203.875 
					475.921,1211.625 420.56,1272.375 				"/>
			</g>
			<g id="catt-b">
				<polygon id="catt-3_1_" fill="#80CBEA" stroke="#2B2B2B" stroke-miterlimit="10" points="410.259,1265.875 417.921,1257.875 
					410.195,1251.625 419.018,1241.125 429.266,1246.625 446.954,1226.875 439.456,1221.375 447.822,1212.125 456.298,1218.375 
					466.597,1205.875 478.026,1213.625 422.665,1274.375 				"/>
				<polygon id="catt-2_1_" fill="#80CBEA" stroke="#2B2B2B" stroke-miterlimit="10" points="479.593,1219.625 495.121,1202.375 
					503.393,1207.125 487.671,1223.875 				"/>
				<polygon id="catt-1_1_" fill="#80CBEA" stroke="#2B2B2B" stroke-miterlimit="10" points="465.504,1234.292 476.584,1222.626 
					493.504,1234.292 497.96,1230.292 513.184,1239.293 458.741,1293.63 446.758,1285.797 428.915,1274.375 439.221,1263.463 
					455.717,1272.63 481.817,1245.797 				"/>
			</g>
		</g>
		<g id="lawaan">
			<polygon id="law" fill="#80CBEA" stroke="#2B2B2B" stroke-miterlimit="10" points="86.402,1201.973 182.315,1165.346 
				363.905,1348.704 307.811,1400.936 			"/>
		</g>
	</g>
</g>
<g id="landmarks">
	<g id="fullbright">
		<path id="fb-pond_1_" fill="#36AD6C" stroke="#92AC97" stroke-miterlimit="10" d="M714.23,1115.603l49.711-67.49
			c0,0,42.454-20.085,42.139,14.002c0,0-16.914,56.36-67.632,78.057C687.729,1161.868,714.23,1115.603,714.23,1115.603z"/>
		<polygon id="fb-s_1_" opacity="0.3" fill="#4C4E4F" points="738.563,1108.757 745.003,1101.283 744.103,1098.771 
			746.561,1093.942 749.387,1093.962 751.54,1091.304 750.947,1087.958 755.71,1082.31 760.651,1080.674 765.618,1074.025 
			770.705,1072.892 772.376,1075.577 769.048,1081.402 770.285,1085.254 765.175,1092.737 761.146,1093.711 762.461,1095.56 
			758.016,1103.047 752.99,1104.014 747.548,1111.495 		"/>
		<polygon id="fb-m_1_" fill="#80CBEA" stroke="#2B2B2B" stroke-miterlimit="10" points="740.933,1108.773 747.372,1101.3 
			746.472,1098.787 748.93,1093.959 751.755,1093.979 753.909,1091.32 753.316,1087.975 758.079,1082.326 763.02,1080.69 
			767.987,1074.042 773.074,1072.908 774.745,1075.594 771.416,1081.419 772.654,1085.271 767.544,1092.754 763.516,1093.728 
			764.83,1095.576 760.385,1103.064 755.359,1104.031 749.917,1111.512 		"/>
	</g>
	<g id="fountainlib">
		<path id="fl" fill="#1DC3F4" stroke="#3B50A2" stroke-miterlimit="10" d="M908.271,600.707c-1.966,5.399-8.071,9.777-13.632,9.777
			c-5.564,0-8.48-4.378-6.515-9.777c1.965-5.398,8.067-9.776,13.632-9.776C907.316,590.93,910.235,595.308,908.271,600.707z"/>
	</g>
	<g id="fountainhosp">
		<path id="fh_1_" fill="#1DC3F4" stroke="#3B50A2" stroke-miterlimit="10" d="M574.218,880.979
			c-1.965,5.399-8.07,9.777-13.631,9.777c-5.564,0-8.481-4.378-6.516-9.777c1.965-5.398,8.068-9.776,13.632-9.776
			C573.265,871.202,576.183,875.58,574.218,880.979z"/>
	</g>
	<g id="skatingrink">
		<path id="sr" fill="#B7B6B6" stroke="#9A9797" stroke-miterlimit="10" d="M894.074,715.315c0,0,16.333,0,14.269,13
			s-12.977,21-21.007,22c-8.031,1-19.757-0.667-17.116-14.333S885.711,716.315,894.074,715.315z"/>
	</g>
	<g id="obelisk">
		<path id="obe_1_" fill="#878C8E" stroke="#2B2B2B" stroke-miterlimit="10" d="M1084.967,705.441
			c-1.044,2.87-4.29,5.197-7.246,5.197c-2.958,0-4.508-2.327-3.463-5.197c1.044-2.87,4.289-5.197,7.246-5.197
			S1086.012,702.571,1084.967,705.441z"/>
	</g>
	<g id="flagpole">
		<polygon id="fp" fill="#878C8E" stroke="#2B2B2B" stroke-miterlimit="10" points="1109.368,721.86 1102.816,723.979 
			1102.803,718.472 1109.355,716.354 		"/>
	</g>
</g>
<g id="Layer_77">
	<g id="Main_Gate">
		<polyline fill="#787878" points="1177.283,776.756 1188.434,782.059 1212.75,767.297 1198.002,761.389 		"/>
		<path fill="#D64227" d="M1174.355,776.575"/>
		<polygon fill="#9F9F9F" points="1174.355,776.575 1175.597,775.726 1187.675,781.144 1195.273,776.535 1196.14,777.343 
			1187.592,782.569 		"/>
		<polyline fill="#9F9F9F" points="1204.436,772.343 1212.75,767.297 1208.649,765.299 1207.414,766.072 1210.58,767.401 
			1203.146,771.784 		"/>
		<polygon fill="#DCDBDB" points="1179.166,774.455 1179.379,778.851 1174.355,776.575 1174.132,771.979 		"/>
		<polyline fill="#EDEDED" points="1179.339,778.796 1179.375,778.774 1180.655,777.996 1180.521,775.212 1179.17,774.525 		"/>
		<polygon fill="#EDEDED" points="1188.543,777.784 1188.708,781.891 1187.592,782.569 1187.396,778.501 		"/>
		<polygon fill="#EDEDED" points="1194.785,773.885 1194.986,778.048 1196.14,777.343 1195.773,773.268 		"/>
		<polygon fill="#EDEDED" points="1204.155,768.087 1204.964,767.556 1205.173,771.896 1204.362,772.388 		"/>
		<polygon fill="#EDEDED" points="1212.538,762.906 1212.75,767.297 1211.863,767.834 1211.653,763.453 		"/>
		<polygon fill="#DCDBDA" points="1186.184,777.898 1186.414,782.002 1187.592,782.569 1187.396,778.501 		"/>
		<polygon fill="#DCDBDA" points="1193.621,773.374 1193.852,777.477 1195.029,778.044 1194.833,773.977 		"/>
		<polygon fill="#DCDBDA" points="1203.028,767.681 1203.259,771.785 1204.438,772.352 1204.24,768.284 		"/>
		<polygon fill="#DCDBDA" points="1210.445,762.939 1210.689,767.295 1211.923,767.898 1211.714,763.581 		"/>
		<polygon fill="#C1C1C0" points="1174.132,771.979 1174.01,769.452 1180.556,770.944 1187.271,775.952 1187.396,778.501 		"/>
		<polyline fill="#C1C1C0" points="1195.652,770.749 1195.773,773.268 1197.982,774.328 1197.864,771.869 		"/>
		<polygon fill="#C1C1C0" points="1174.383,776.672 1187.592,782.569 1187.73,785.449 1174.47,778.949 		"/>
		<polyline fill="#E0E2E1" points="1187.592,782.569 1196.063,777.39 1196.063,777.39 1196.277,780.175 1187.703,785.328 
			1187.592,782.569 		"/>
		<polygon fill="#C1C1C0" points="1203.259,771.785 1203.384,774.384 1204.568,775.074 1204.438,772.352 		"/>
		<polygon fill="#E0E2E1" points="1204.568,775.074 1212.878,769.955 1212.75,767.297 1204.438,772.352 		"/>
		<polyline fill="#C1C0C0" points="1179.673,763.059 1179.809,765.871 1182.591,764.192 1179.668,762.952 		"/>
		<polyline fill="#C1C1C0" points="1198.13,779.432 1198.269,782.322 1195.173,781.022 1194.996,778.014 		"/>
		<polyline fill="#C1C1C0" points="1204.35,772.104 1204.527,775.114 1207.623,776.412 1207.483,773.522 		"/>
		<polygon fill="#9E9E9E" points="1194.998,778.072 1196.118,777.369 1199.09,778.621 1198.13,779.432 		"/>
		<polygon fill="#9E9E9E" points="1204.36,772.332 1205.48,771.678 1208.448,772.825 1207.485,773.579 		"/>
		<polyline fill="#E0E2E1" points="1199.09,778.621 1199.226,781.431 1198.269,782.322 1198.13,779.432 		"/>
		<polygon fill="#E0E2E1" points="1208.448,772.825 1208.576,775.479 1207.623,776.412 1207.485,773.579 		"/>
		<polygon fill="#898989" points="1197.632,778.006 1204.688,773.714 1203.318,773.021 1196.118,777.369 		"/>
		<polyline fill="#A5A4A4" points="1204.688,773.714 1204.761,775.211 1199.104,778.921 1199.061,778.608 1197.632,778.006 		"/>
		<polygon fill="#888888" points="1198.576,778.33 1204.728,774.525 1205.768,774.837 1199.122,779.283 1199.061,778.608 
			1198.492,778.369 		"/>
		<polygon fill="#90C748" points="1187.271,775.952 1195.652,770.749 1195.773,773.268 1187.396,778.501 		"/>
		<polygon fill="#90C748" points="1197.864,771.869 1197.982,774.328 1206.423,769.041 1206.313,766.737 		"/>
		<polygon fill="#90C748" points="1204.641,765.241 1212.419,760.456 1212.538,762.906 1206.313,766.737 		"/>
		<polyline fill="#8AC97C" points="1180.556,770.944 1188.692,765.879 1195.827,770.871 1187.426,775.981 1180.535,771.065 		"/>
		<polygon fill="#8AC97C" points="1198.494,759.775 1205.361,755.5 1212.419,760.456 1204.641,765.241 		"/>
		<polygon fill="#8AC97C" points="1188.594,764.063 1197.058,758.45 1206.314,766.829 1197.864,771.869 		"/>
		<polyline fill="#6AAE6B" points="1174.01,769.452 1182.391,764.287 1174.144,769.37 		"/>
		<polyline fill="#6AAE6B" points="1188.692,765.879 1182.391,764.287 1174.003,769.276 1180.448,770.949 		"/>
		<polygon fill="#6AAE6B" points="1179.668,762.952 1187.893,757.71 1197.058,758.45 1188.594,764.063 		"/>
		<polygon fill="#69AD6A" points="1192.287,758.065 1199.157,753.958 1205.361,755.5 1198.494,759.775 1197.061,758.529 		"/>
		<polygon fill="#A4A3A3" points="1205.768,774.837 1205.885,775.684 1199.169,780.253 1199.122,779.283 		"/>
		<polygon fill="#C1C1C0" points="1179.668,762.952 1188.594,764.063 1197.864,771.869 1195.652,770.749 1188.557,765.782 
			1182.391,764.287 		"/>
		<polygon fill="none" stroke="#000000" stroke-miterlimit="10" points="1174.47,778.949 1174.01,769.452 1179.809,765.871 
			1179.668,762.952 1187.893,757.71 1192.287,758.065 1199.157,753.958 1205.361,755.5 1212.419,760.456 1212.538,762.906 
			1212.878,769.955 1208.448,772.825 1208.576,775.479 1207.623,776.412 1205.885,775.684 1199.169,780.253 1199.226,781.431 
			1198.269,782.322 1195.173,781.022 1187.703,785.328 		"/>
	</g>
	<g>
		<polygon fill="#787878" points="1238.492,732.861 1237.591,733.945 1227.35,740.954 1220.33,742.196 1219.223,741.479 
			1208.713,734.498 1209.015,729.94 1238.866,728.782 		"/>
		<polygon fill="#EDEDED" points="1208.412,730.645 1209.015,730.952 1209.015,734.498 1208.412,734.678 		"/>
		<polygon fill="#EDEDED" points="1212.6,733.44 1213.203,733.754 1213.203,737.39 1212.6,737.574 		"/>
		<polygon fill="#B0AFB0" points="1228.472,740.098 1237.591,733.945 1238.151,734.1 1228.773,740.586 		"/>
		<polygon fill="#EDEDED" points="1217.088,736.452 1217.691,736.767 1217.691,740.402 1217.088,740.586 		"/>
		<polygon fill="#EDEDED" points="1231.17,734.678 1230.567,734.993 1230.567,738.628 1231.17,738.813 		"/>
		<polygon fill="#EDEDED" points="1234.728,732.063 1234.124,732.377 1234.124,736.012 1234.728,736.197 		"/>
		<polygon fill="#EDEDED" points="1238.194,729.996 1237.591,730.311 1237.591,733.945 1238.194,734.13 		"/>
		<path fill="#C1C1C0" d="M1224.617,733.996"/>
		<polygon fill="#C1C1C0" points="1207.427,725.206 1222.364,735.558 1222.364,744.347 1219.223,742.028 1219.223,737.999 
			1217.068,736.689 1217.068,740.723 1214.734,739.06 1214.734,734.624 1212.58,733.466 1212.58,737.499 1210.566,736.197 
			1210.491,731.703 1208.412,730.645 1208.412,734.678 1207.426,733.995 		"/>
		<polygon fill="#C1C1C0" points="1224.771,734.1 1224.619,743.102 1226.728,744.449 1226.728,735.457 		"/>
		<polyline fill="#C1C1C0" points="1224.617,733.996 1231.17,724.098 1237.443,725.011 1224.617,734.1 		"/>
		<polyline fill="#B23625" points="1209.684,723.645 1216.955,714.715 1231.17,723.992 1224.617,733.996 1209.489,723.645 		"/>
		<polygon fill="#D64227" points="1216.955,714.562 1216.955,714.562 1222.594,714.72 1237.443,725.011 1231.074,724.14 
			1216.955,714.715 		"/>
		<polygon fill="#9F9F9F" points="1207.439,725.212 1209.715,723.645 1224.771,734.04 1222.499,735.607 		"/>
		<polygon fill="#9F9F9F" points="1224.771,733.996 1237.443,725.011 1239.747,726.608 1226.728,735.457 		"/>
		<polygon fill="#9F9F9F" points="1222.594,714.72 1224.619,713.319 1239.555,723.645 1237.665,725.206 		"/>
		<polyline fill="#C1C0C0" points="1224.617,733.996 1224.617,742.582 1225.674,738.704 1226.001,734.952 1224.617,733.996 		"/>
		<polyline fill="#9F9F9F" points="1237.994,727.8 1239.747,726.608 1237.396,725.038 1235.19,726.608 1237.994,727.8 		"/>
		<polygon fill="#E0E2E2" points="1239.555,723.745 1239.555,729.099 1236.181,726.289 1239.269,723.447 		"/>
		<polygon fill="#E0E2E2" points="1224.619,743.102 1224.617,733.996 1222.253,735.48 1222.364,744.347 		"/>
		<polyline fill="#E0E2E2" points="1226.728,744.449 1228.918,740.315 1228.918,737.047 1231.17,735.682 1231.17,738.704 
			1232.444,737.898 1232.444,734.63 1234.697,733.264 1234.697,736.286 1235.971,735.48 1235.971,732.212 1238.185,730.847 
			1238.145,733.868 1238.225,736.472 1238.94,735.98 1239.747,735.425 1239.747,726.608 1226.728,735.457 		"/>
		<polyline fill="#E0E2E2" points="1238.151,734.1 1234.697,736.197 1231.17,738.704 1228.918,740.315 1226.781,744.347 
			1238.492,736.354 		"/>
		<polygon fill="#9E9E9E" points="1235.827,726.154 1237.396,725.038 1239.555,726.74 1237.893,727.869 		"/>
		<path fill="#CDCECE" d="M1222.364,735.558"/>
		<polygon fill="none" stroke="#000000" stroke-miterlimit="10" points="1207.426,733.995 1207.427,725.206 1209.489,723.645 
			1216.955,714.562 1222.594,714.72 1224.619,713.319 1239.555,723.645 1239.555,726.474 1239.747,726.608 1239.747,735.425 
			1226.728,744.58 1224.619,743.102 1222.364,744.347 		"/>
	</g>
</g>
</svg>
