<?xml version="1.0" encoding="utf-8"?>
<!-- Generator: Adobe Illustrator 16.0.0, SVG Export Plug-In . SVG Version: 6.00 Build 0)  -->
<!DOCTYPE svg PUBLIC "-//W3C//DTD SVG 1.1//EN" "http://www.w3.org/Graphics/SVG/1.1/DTD/svg11.dtd">
<svg version="1.1" id="Layer_1" xmlns="http://www.w3.org/2000/svg" xmlns:xlink="http://www.w3.org/1999/xlink" x="0px" y="0px"
	 width="900px" height="900px" viewBox="0 0 900 900" enable-background="new 0 0 900 900" xml:space="preserve">
<g id="Grid" display="none">
	<g display="inline" opacity="0.6" enable-background="new    ">
		<g>
			<g>
				<defs>
					<rect id="SVGID_1_" x="388.016" y="391.945" width="174.07" height="175.118"/>
				</defs>
				<clipPath id="SVGID_2_">
					<use xlink:href="#SVGID_1_"  overflow="visible"/>
				</clipPath>
				<g clip-path="url(#SVGID_2_)">
					<line fill="none" stroke="#47AEE3" stroke-miterlimit="10" x1="591.271" y1="360.813" x2="591.271" y2="594.303"/>
					<line fill="none" stroke="#47AEE3" stroke-miterlimit="10" x1="357.782" y1="360.813" x2="357.782" y2="594.303"/>
					<line fill="none" stroke="#47AEE3" stroke-miterlimit="10" x1="367.511" y1="360.813" x2="367.511" y2="594.303"/>
					<line fill="none" stroke="#47AEE3" stroke-miterlimit="10" x1="377.24" y1="360.813" x2="377.24" y2="594.303"/>
					<line fill="none" stroke="#47AEE3" stroke-miterlimit="10" x1="386.968" y1="360.813" x2="386.968" y2="594.303"/>
					<line fill="none" stroke="#47AEE3" stroke-miterlimit="10" x1="396.697" y1="360.813" x2="396.697" y2="594.303"/>
					<line fill="none" stroke="#47AEE3" stroke-miterlimit="10" x1="406.426" y1="360.813" x2="406.426" y2="594.303"/>
					<line fill="none" stroke="#47AEE3" stroke-miterlimit="10" x1="416.155" y1="360.813" x2="416.155" y2="594.303"/>
					<line fill="none" stroke="#47AEE3" stroke-miterlimit="10" x1="425.883" y1="360.813" x2="425.883" y2="594.303"/>
					<line fill="none" stroke="#47AEE3" stroke-miterlimit="10" x1="435.612" y1="360.813" x2="435.612" y2="594.303"/>
					<line fill="none" stroke="#47AEE3" stroke-miterlimit="10" x1="445.341" y1="360.813" x2="445.341" y2="594.303"/>
					<line fill="none" stroke="#47AEE3" stroke-miterlimit="10" x1="455.069" y1="360.813" x2="455.069" y2="594.303"/>
					<line fill="none" stroke="#47AEE3" stroke-miterlimit="10" x1="464.799" y1="360.813" x2="464.799" y2="594.303"/>
					<line fill="none" stroke="#47AEE3" stroke-miterlimit="10" x1="474.527" y1="360.813" x2="474.527" y2="594.303"/>
					<line fill="none" stroke="#47AEE3" stroke-miterlimit="10" x1="484.256" y1="360.813" x2="484.256" y2="594.303"/>
					<line fill="none" stroke="#47AEE3" stroke-miterlimit="10" x1="493.984" y1="360.813" x2="493.984" y2="594.303"/>
					<line fill="none" stroke="#47AEE3" stroke-miterlimit="10" x1="503.713" y1="360.813" x2="503.713" y2="594.303"/>
					<line fill="none" stroke="#47AEE3" stroke-miterlimit="10" x1="513.441" y1="360.813" x2="513.441" y2="594.303"/>
					<line fill="none" stroke="#47AEE3" stroke-miterlimit="10" x1="523.171" y1="360.813" x2="523.171" y2="594.303"/>
					<line fill="none" stroke="#47AEE3" stroke-miterlimit="10" x1="532.899" y1="360.813" x2="532.899" y2="594.303"/>
					<line fill="none" stroke="#47AEE3" stroke-miterlimit="10" x1="542.628" y1="360.813" x2="542.628" y2="594.303"/>
					<line fill="none" stroke="#47AEE3" stroke-miterlimit="10" x1="552.357" y1="360.813" x2="552.357" y2="594.303"/>
					<line fill="none" stroke="#47AEE3" stroke-miterlimit="10" x1="562.086" y1="360.813" x2="562.086" y2="594.303"/>
					<line fill="none" stroke="#47AEE3" stroke-miterlimit="10" x1="571.814" y1="360.813" x2="571.814" y2="594.303"/>
					<line fill="none" stroke="#47AEE3" stroke-miterlimit="10" x1="581.543" y1="360.813" x2="581.543" y2="594.303"/>
				</g>
			</g>
		</g>
		<g>
			<g>
				<defs>
					<rect id="SVGID_3_" x="388.016" y="391.945" width="174.07" height="175.118"/>
				</defs>
				<clipPath id="SVGID_4_">
					<use xlink:href="#SVGID_3_"  overflow="visible"/>
				</clipPath>
				<g clip-path="url(#SVGID_4_)">
					<line fill="none" stroke="#47AEE3" stroke-miterlimit="10" x1="431.795" y1="318.082" x2="634.004" y2="434.826"/>
					<line fill="none" stroke="#47AEE3" stroke-miterlimit="10" x1="315.051" y1="520.29" x2="517.258" y2="637.034"/>
					<line fill="none" stroke="#47AEE3" stroke-miterlimit="10" x1="319.915" y1="511.864" x2="522.123" y2="628.609"/>
					<line fill="none" stroke="#47AEE3" stroke-miterlimit="10" x1="324.779" y1="503.438" x2="526.987" y2="620.184"/>
					<line fill="none" stroke="#47AEE3" stroke-miterlimit="10" x1="329.644" y1="495.014" x2="531.852" y2="611.758"/>
					<line fill="none" stroke="#47AEE3" stroke-miterlimit="10" x1="334.508" y1="486.588" x2="536.716" y2="603.333"/>
					<line fill="none" stroke="#47AEE3" stroke-miterlimit="10" x1="339.373" y1="478.163" x2="541.58" y2="594.908"/>
					<line fill="none" stroke="#47AEE3" stroke-miterlimit="10" x1="344.237" y1="469.737" x2="546.444" y2="586.482"/>
					<line fill="none" stroke="#47AEE3" stroke-miterlimit="10" x1="349.101" y1="461.313" x2="551.31" y2="578.057"/>
					<line fill="none" stroke="#47AEE3" stroke-miterlimit="10" x1="353.966" y1="452.887" x2="556.174" y2="569.632"/>
					<line fill="none" stroke="#47AEE3" stroke-miterlimit="10" x1="358.83" y1="444.462" x2="561.037" y2="561.206"/>
					<line fill="none" stroke="#47AEE3" stroke-miterlimit="10" x1="363.694" y1="436.036" x2="565.902" y2="552.781"/>
					<line fill="none" stroke="#47AEE3" stroke-miterlimit="10" x1="368.559" y1="427.611" x2="570.767" y2="544.356"/>
					<line fill="none" stroke="#47AEE3" stroke-miterlimit="10" x1="373.423" y1="419.186" x2="575.631" y2="535.931"/>
					<line fill="none" stroke="#47AEE3" stroke-miterlimit="10" x1="378.287" y1="410.761" x2="580.496" y2="527.506"/>
					<line fill="none" stroke="#47AEE3" stroke-miterlimit="10" x1="383.152" y1="402.335" x2="585.359" y2="519.08"/>
					<line fill="none" stroke="#47AEE3" stroke-miterlimit="10" x1="388.016" y1="393.91" x2="590.225" y2="510.654"/>
					<line fill="none" stroke="#47AEE3" stroke-miterlimit="10" x1="392.88" y1="385.484" x2="595.088" y2="502.229"/>
					<line fill="none" stroke="#47AEE3" stroke-miterlimit="10" x1="397.745" y1="377.06" x2="599.953" y2="493.804"/>
					<line fill="none" stroke="#47AEE3" stroke-miterlimit="10" x1="402.609" y1="368.634" x2="604.816" y2="485.379"/>
					<line fill="none" stroke="#47AEE3" stroke-miterlimit="10" x1="407.474" y1="360.208" x2="609.682" y2="476.953"/>
					<line fill="none" stroke="#47AEE3" stroke-miterlimit="10" x1="412.338" y1="351.783" x2="614.545" y2="468.528"/>
					<line fill="none" stroke="#47AEE3" stroke-miterlimit="10" x1="417.202" y1="343.357" x2="619.41" y2="460.103"/>
					<line fill="none" stroke="#47AEE3" stroke-miterlimit="10" x1="422.066" y1="334.933" x2="624.275" y2="451.677"/>
					<line fill="none" stroke="#47AEE3" stroke-miterlimit="10" x1="426.931" y1="326.507" x2="629.139" y2="443.252"/>
				</g>
			</g>
		</g>
		<g>
			<g>
				<defs>
					<rect id="SVGID_5_" x="388.016" y="391.945" width="174.07" height="175.118"/>
				</defs>
				<clipPath id="SVGID_6_">
					<use xlink:href="#SVGID_5_"  overflow="visible"/>
				</clipPath>
				<g clip-path="url(#SVGID_6_)">
					<line fill="none" stroke="#47AEE3" stroke-miterlimit="10" x1="517.258" y1="318.082" x2="315.051" y2="434.826"/>
					<line fill="none" stroke="#47AEE3" stroke-miterlimit="10" x1="634.004" y1="520.29" x2="431.795" y2="637.034"/>
					<line fill="none" stroke="#47AEE3" stroke-miterlimit="10" x1="629.139" y1="511.864" x2="426.931" y2="628.609"/>
					<line fill="none" stroke="#47AEE3" stroke-miterlimit="10" x1="624.275" y1="503.438" x2="422.066" y2="620.184"/>
					<line fill="none" stroke="#47AEE3" stroke-miterlimit="10" x1="619.41" y1="495.014" x2="417.202" y2="611.758"/>
					<line fill="none" stroke="#47AEE3" stroke-miterlimit="10" x1="614.545" y1="486.588" x2="412.338" y2="603.333"/>
					<line fill="none" stroke="#47AEE3" stroke-miterlimit="10" x1="609.682" y1="478.163" x2="407.474" y2="594.908"/>
					<line fill="none" stroke="#47AEE3" stroke-miterlimit="10" x1="604.816" y1="469.737" x2="402.609" y2="586.482"/>
					<line fill="none" stroke="#47AEE3" stroke-miterlimit="10" x1="599.953" y1="461.313" x2="397.745" y2="578.057"/>
					<line fill="none" stroke="#47AEE3" stroke-miterlimit="10" x1="595.088" y1="452.887" x2="392.88" y2="569.632"/>
					<line fill="none" stroke="#47AEE3" stroke-miterlimit="10" x1="590.225" y1="444.462" x2="388.016" y2="561.206"/>
					<line fill="none" stroke="#47AEE3" stroke-miterlimit="10" x1="585.359" y1="436.036" x2="383.152" y2="552.781"/>
					<line fill="none" stroke="#47AEE3" stroke-miterlimit="10" x1="580.496" y1="427.611" x2="378.287" y2="544.356"/>
					<line fill="none" stroke="#47AEE3" stroke-miterlimit="10" x1="575.631" y1="419.186" x2="373.423" y2="535.931"/>
					<line fill="none" stroke="#47AEE3" stroke-miterlimit="10" x1="570.767" y1="410.761" x2="368.559" y2="527.506"/>
					<line fill="none" stroke="#47AEE3" stroke-miterlimit="10" x1="565.902" y1="402.335" x2="363.694" y2="519.08"/>
					<line fill="none" stroke="#47AEE3" stroke-miterlimit="10" x1="561.037" y1="393.91" x2="358.83" y2="510.654"/>
					<line fill="none" stroke="#47AEE3" stroke-miterlimit="10" x1="556.174" y1="385.484" x2="353.966" y2="502.229"/>
					<line fill="none" stroke="#47AEE3" stroke-miterlimit="10" x1="551.31" y1="377.06" x2="349.101" y2="493.804"/>
					<line fill="none" stroke="#47AEE3" stroke-miterlimit="10" x1="546.444" y1="368.634" x2="344.237" y2="485.379"/>
					<line fill="none" stroke="#47AEE3" stroke-miterlimit="10" x1="541.58" y1="360.208" x2="339.373" y2="476.953"/>
					<line fill="none" stroke="#47AEE3" stroke-miterlimit="10" x1="536.716" y1="351.783" x2="334.508" y2="468.528"/>
					<line fill="none" stroke="#47AEE3" stroke-miterlimit="10" x1="531.852" y1="343.357" x2="329.644" y2="460.103"/>
					<line fill="none" stroke="#47AEE3" stroke-miterlimit="10" x1="526.987" y1="334.933" x2="324.779" y2="451.677"/>
					<line fill="none" stroke="#47AEE3" stroke-miterlimit="10" x1="522.123" y1="326.507" x2="319.915" y2="443.252"/>
				</g>
			</g>
		</g>
	</g>
</g>
<polygon fill="#C0C0C0" points="566.464,453.493 566.461,445.075 564.015,442.075 564.015,452.2 "/>
<polygon fill="#C0C0C0" points="443.622,402.7 443.408,388.909 536.863,439.573 532.691,451.825 "/>
<polygon fill="#E0E1E1" points="566.461,468.278 566.461,445.075 617.908,438.71 617.908,461.028 "/>
<polyline fill="#9E9F9F" points="443.622,388.575 445.288,387.325 538.473,438.71 536.863,439.573 443.408,388.909 "/>
<polygon fill="#9E9F9F" points="564.015,442.075 566.461,445.075 618.852,438.717 614.687,436.382 "/>
<polygon fill="#AEAEAF" points="501.409,416.073 502.866,417.563 516.866,425.039 528.992,431.823 531.44,434.831 487.923,410.835 
	488.863,410.013 "/>
<g>
	<polygon fill="#787878" points="581.742,406.325 578.933,409.016 546.991,426.409 525.096,429.492 521.644,427.712 
		488.863,410.388 489.804,399.075 582.908,396.2 	"/>
	<polygon fill="#EDECED" points="487.923,400.825 489.804,401.587 489.804,410.388 487.923,410.835 	"/>
	<polygon fill="#EDECED" points="500.985,407.761 502.866,408.542 502.866,417.563 500.985,418.021 	"/>
	<polygon fill="#AEAEAF" points="550.491,424.284 578.933,409.016 580.681,409.4 551.432,425.497 	"/>
	<polygon fill="#EDECED" points="514.985,415.237 516.866,416.018 516.866,425.039 514.985,425.497 	"/>
	<polygon fill="#EDECED" points="558.907,410.835 557.026,411.615 557.026,420.637 558.907,421.095 	"/>
	<polygon fill="#EDECED" points="570.001,404.344 568.12,405.124 568.12,414.146 570.001,414.604 	"/>
	<polygon fill="#EDECED" points="580.813,399.214 578.933,399.994 578.933,409.016 580.813,409.474 	"/>
	<path fill="#C0C0C0" d="M538.469,409.142"/>
	<polygon fill="#C0C0C0" points="484.85,387.325 531.44,413.017 531.44,434.831 521.644,429.075 521.644,419.075 514.923,415.825 
		514.923,425.835 507.644,421.71 507.644,410.7 500.923,407.825 500.923,417.835 494.644,414.604 494.408,403.45 487.923,400.825 
		487.923,410.835 484.848,409.14 	"/>
	<polygon fill="#C0C0C0" points="538.945,409.4 538.473,431.741 545.05,435.083 545.05,412.767 	"/>
	<polyline fill="#C0C0C0" points="538.469,409.142 558.907,384.575 578.473,386.843 538.469,409.4 	"/>
	<polyline fill="#B13625" points="491.889,383.452 514.567,361.29 558.907,384.313 538.469,409.142 491.283,383.452 	"/>
	<polygon fill="#D64127" points="514.567,360.909 514.567,360.909 532.154,361.301 578.473,386.843 558.605,384.681 514.567,361.29 
			"/>
	<polygon fill="#9E9F9F" points="484.891,387.341 491.987,383.452 538.945,409.249 531.86,413.141 	"/>
	<polygon fill="#9E9F9F" points="538.945,409.142 578.473,386.843 585.659,390.806 545.05,412.767 	"/>
	<polygon fill="#9E9F9F" points="532.154,361.301 538.473,357.825 585.056,383.452 579.163,387.325 	"/>
	<polyline fill="#C0BFBF" points="538.469,409.142 538.469,430.45 541.762,420.825 542.783,411.513 538.469,409.142 	"/>
	<polyline fill="#9E9F9F" points="580.191,393.763 585.659,390.806 578.325,386.909 571.445,390.806 580.191,393.763 	"/>
	<polygon fill="#E0E1E1" points="585.056,383.7 585.056,396.987 574.533,390.013 584.164,382.962 	"/>
	<polygon fill="#E0E1E1" points="538.473,431.741 538.469,409.142 531.093,412.825 531.44,434.831 	"/>
	<polyline fill="#E0E1E1" points="545.05,435.083 551.879,424.825 551.879,416.714 558.907,413.325 558.907,420.825 
		562.879,418.825 562.879,410.714 569.908,407.325 569.907,414.825 573.879,412.825 573.879,404.714 580.783,401.325 
		580.658,408.825 580.907,415.285 583.141,414.065 585.659,412.688 585.659,390.806 545.05,412.767 	"/>
	<polyline fill="#E0E1E1" points="580.681,409.4 569.907,414.604 558.907,420.825 551.879,424.825 545.218,434.831 581.742,414.992 
			"/>
	<polygon fill="#9C9D9E" points="573.432,389.681 578.325,386.909 585.056,391.132 579.873,393.935 	"/>
	<path fill="#CCCDCE" d="M531.44,413.017"/>
</g>
<polyline fill="none" stroke="#231F20" stroke-miterlimit="10" points="484.848,409.14 484.85,387.325 491.283,383.452 
	514.567,360.909 532.154,361.301 538.473,357.825 585.056,383.452 585.056,390.473 585.659,390.806 585.659,412.688 545.05,435.409 
	538.473,431.741 531.44,434.831 "/>
<g>
	<polygon fill="#60A24F" points="283.761,455.192 283.761,460.97 377.601,512.719 377.601,507.205 	"/>
	<polygon fill="#89C87C" points="391.008,499.858 377.601,507.205 377.601,512.719 391.008,505.327 	"/>
	<polygon fill="#71A565" points="283.761,455.192 377.601,507.205 391.008,499.858 297.037,447.691 	"/>
</g>
<g>
	<polygon fill="#60A24F" points="356.743,411.369 356.743,417.146 450.582,468.896 450.582,463.382 	"/>
	<polygon fill="#89C87C" points="463.99,456.035 450.582,463.382 450.582,468.896 463.99,461.504 	"/>
	<polygon fill="#71A565" points="356.743,411.369 450.582,463.382 463.99,456.035 370.019,403.868 	"/>
</g>
<g>
	<polygon fill="#60A24F" points="437.67,404.949 437.67,410.387 525.997,459.096 525.997,453.906 	"/>
	<polygon fill="#89C87C" points="538.617,446.991 525.997,453.906 525.997,459.096 538.617,452.139 	"/>
	<polygon fill="#71A565" points="437.67,404.949 525.997,453.906 538.617,446.991 450.166,397.889 	"/>
</g>
<g>
	<polygon fill="#787878" points="529.159,456.067 550.992,467.314 562.742,462.759 563.075,459.743 536.575,447.159 	"/>
	<polygon fill="#DBDBD9" points="560.423,452.956 560.512,466.521 563.678,468.58 563.678,455.137 	"/>
	<polygon fill="#EDECED" points="566.536,453.611 566.536,467.279 563.706,468.815 563.706,455.177 	"/>
	<polygon fill="#DBDBD9" points="526.51,447.159 526.599,460.725 529.765,462.783 529.765,449.34 	"/>
	<polygon fill="#EDECED" points="532.623,447.814 532.623,461.482 529.793,463.019 529.793,449.38 	"/>
	<polygon fill="#DBDBD9" points="548.616,459.085 548.719,472.65 551.888,474.706 551.873,461.263 	"/>
	<polygon fill="#EDECED" points="554.729,459.734 554.744,473.402 551.916,474.941 551.901,461.303 	"/>
	<polygon fill="#9C9D9E" points="529.741,457.784 532.623,456.696 548.663,465.159 548.623,467.314 	"/>
	<polygon fill="#9C9D9E" points="560.423,462.759 554.736,465.534 554.736,467.736 563.616,463.867 	"/>
	<polygon fill="#C0C0C0" points="526.236,456.089 551.881,468.944 552.362,475.664 526.05,460.908 	"/>
	<polygon fill="#C0C0C0" points="526.247,446.103 526.247,450.325 551.878,464.075 551.906,460.25 	"/>
	<polygon fill="#9E9F9F" points="526.247,446.103 538.473,438.71 566.464,453.493 551.879,460.886 	"/>
	<polygon fill="#E0E1E1" points="551.881,468.944 552.333,475.259 566.463,467.585 566.458,462.737 	"/>
	<polygon fill="#E0E1E1" points="551.906,460.25 551.878,464.075 566.461,456.601 566.464,453.493 	"/>
</g>
<polygon fill="#9C9D9E" points="385.806,560.651 377.602,564.987 377.602,568.362 388.533,562.737 "/>
<polygon fill="#EDECED" points="379.967,554.389 379.967,568.057 377.137,569.593 377.137,555.954 "/>
<polygon fill="#DBDBD9" points="385.737,548.798 385.806,560.651 388.283,562.45 388.283,550.703 "/>
<polyline fill="#C0C0C0" points="350.786,542.206 350.791,556.991 377.602,571.776 378.075,556.242 350.786,542.206 "/>
<polygon fill="#9E9F9F" points="351.526,542.538 364.686,535.21 391.004,549.863 377.334,556.367 "/>
<polygon fill="#E0E1E1" points="378.075,556.242 377.602,561.157 391.081,554.241 391.008,549.597 "/>
<polygon fill="#EDECED" points="391.008,549.597 391.081,565.452 387.747,566.825 387.747,551.272 "/>
<polygon fill="#E0E1E1" points="391.059,560.612 377.74,567.238 377.602,571.776 391.081,565.452 "/>
<g>
	<polyline fill="#787878" points="400.075,513.638 433.916,531.78 511.661,489.575 466.742,469.013 	"/>
	<path fill="#D64127" d="M391.008,512.636"/>
	<polygon fill="#9E9F9F" points="391.008,512.636 394.992,510.186 431.698,528.825 455.991,515.649 458.562,518.29 431.225,533.241 
			"/>
	<polyline fill="#9E9F9F" points="485.081,504.005 511.661,489.575 499.223,482.757 495.274,484.974 504.908,489.575 
		481.158,502.075 	"/>
	<polygon fill="#DBDBDA" points="406.273,506.771 406.273,520.457 391.008,512.636 391.006,498.325 	"/>
	<polyline fill="#EDECED" points="406.158,520.283 406.273,520.221 410.366,517.992 410.366,509.328 406.273,506.991 	"/>
	<polygon fill="#EDECED" points="434.896,518.521 434.797,531.302 431.225,533.241 431.225,520.575 	"/>
	<polygon fill="#EDECED" points="454.873,507.346 454.873,520.308 458.562,518.29 458.037,505.575 	"/>
	<polygon fill="#EDECED" points="484.849,490.741 487.438,489.214 487.438,502.725 484.849,504.131 	"/>
	<polygon fill="#EDECED" points="511.661,475.907 511.661,489.575 508.831,491.111 508.831,477.473 	"/>
	<polygon fill="#DBDBD9" points="427.553,518.521 427.653,531.302 431.225,533.241 431.225,520.575 	"/>
	<polygon fill="#DBDBD9" points="451.334,505.581 451.434,518.362 455.006,520.302 455.006,507.636 	"/>
	<polygon fill="#DBDBD9" points="481.409,489.312 481.509,502.093 485.081,504.032 485.081,491.366 	"/>
	<polygon fill="#DBDBD9" points="505.159,475.697 505.264,489.263 509.004,491.321 509.004,477.878 	"/>
	<polygon fill="#C0C0C0" points="391.006,498.325 391.006,490.458 411.116,496.075 431.225,512.636 431.225,520.575 	"/>
	<polyline fill="#C0C0C0" points="458.037,497.733 458.037,505.575 464.739,509.2 464.739,501.546 	"/>
	<polygon fill="#C0C0C0" points="391.081,512.941 431.225,533.241 431.225,542.206 391.008,520.028 	"/>
	<polyline fill="#E0E2E1" points="431.225,533.241 458.316,518.424 458.316,518.424 458.562,527.106 431.158,541.826 
		431.225,533.241 	"/>
	<polygon fill="#C0C0C0" points="481.509,502.093 481.509,510.186 485.081,512.508 485.081,504.032 	"/>
	<polygon fill="#E0E2E1" points="485.081,512.508 511.661,497.851 511.661,489.575 485.081,504.032 	"/>
	<polyline fill="#C0BFBF" points="409.556,471.45 409.556,480.205 418.45,475.409 409.556,471.116 	"/>
	<polyline fill="#C0C0C0" points="464.429,525.075 464.429,534.075 455.006,529.575 454.908,520.2 	"/>
	<polyline fill="#C0C0C0" points="484.849,503.248 484.946,512.623 494.369,517.123 494.369,508.123 	"/>
	<polygon fill="#9C9D9E" points="454.91,520.383 458.491,518.367 467.533,522.701 464.429,525.075 	"/>
	<polygon fill="#9C9D9E" points="484.849,503.958 488.43,502.093 497.472,506.104 494.367,508.301 	"/>
	<polyline fill="#E0E2E1" points="467.533,522.701 467.533,531.45 464.429,534.075 464.429,525.075 	"/>
	<polygon fill="#E0E2E1" points="497.472,506.104 497.472,514.367 494.369,517.123 494.367,508.301 	"/>
	<polygon fill="#888888" points="463.098,520.575 485.658,508.301 481.509,505.943 458.491,518.367 	"/>
	<polyline fill="#A4A4A4" points="485.658,508.301 485.658,512.963 467.533,523.638 467.445,522.659 463.098,520.575 	"/>
	<polygon fill="#878787" points="465.98,521.722 485.658,510.825 488.846,511.95 467.533,524.763 467.445,522.659 465.716,521.83 	
		"/>
	<polygon fill="#90C748" points="431.225,512.636 458.037,497.733 458.037,505.575 431.225,520.575 	"/>
	<polygon fill="#90C748" points="464.739,501.546 464.739,509.2 491.75,494.044 491.75,486.872 	"/>
	<polygon fill="#90C748" points="486.784,481.974 511.661,468.278 511.661,475.907 491.75,486.872 	"/>
	<polyline fill="#89C87C" points="411.116,496.075 437.147,481.562 458.562,498.14 431.698,512.754 411.033,496.45 	"/>
	<polygon fill="#89C87C" points="468.511,464.075 490.482,451.825 511.661,468.278 486.784,481.974 	"/>
	<polygon fill="#89C87C" points="437.115,475.907 464.247,459.743 491.741,487.158 464.739,501.546 	"/>
	<polyline fill="#6BAE6C" points="391.006,490.458 417.817,475.671 391.431,490.224 	"/>
	<polyline fill="#6BAE6C" points="437.147,481.562 417.817,475.671 391.008,489.912 410.783,496.075 	"/>
	<polygon fill="#6BAE6C" points="409.556,471.116 435.889,456.067 464.247,459.743 437.115,475.907 	"/>
	<polygon fill="#6AAD6B" points="449.491,457.83 471.442,446.103 490.482,451.825 468.511,464.075 464.247,459.99 	"/>
	<polygon fill="#A3A3A3" points="488.846,511.95 489.082,514.598 467.533,527.783 467.533,524.763 	"/>
	<polygon fill="#C0C0C0" points="409.556,471.116 437.115,475.907 464.739,501.546 458.037,497.733 436.742,481.242 
		417.817,475.671 	"/>
	<polygon fill="none" stroke="#231F20" stroke-miterlimit="10" points="391.008,520.028 391.006,490.458 409.556,480.205 
		409.556,471.116 435.889,456.067 449.491,457.83 471.442,446.103 490.482,451.825 511.661,468.278 511.661,475.907 
		511.661,497.851 497.472,506.104 497.472,514.367 494.369,517.123 489.082,514.598 467.533,527.783 467.533,531.45 
		464.429,534.075 455.006,529.575 431.158,541.826 	"/>
</g>
<polygon fill="#A0576C" points="538.658,427.325 538.658,438.808 541.98,440.729 541.98,427.325 "/>
<polygon fill="#BB6682" points="545.303,427.325 545.303,438.808 541.98,440.729 541.98,427.325 "/>
<g>
	<g display="none">
		<polygon display="inline" fill="#89C87C" points="573.92,422.475 573.921,415.877 579.903,412.294 579.903,419.176 		"/>
		<polygon display="inline" fill="#71A565" points="573.921,415.877 567.938,412.578 573.921,409.28 579.903,412.294 		"/>
		<polygon display="inline" fill="#60A24F" points="567.938,412.578 567.938,419.176 573.92,422.475 573.921,415.877 		"/>
	</g>
	<g>
		<polygon fill="#89C87C" points="561.021,433.563 561.022,418.777 574.429,410.747 574.429,426.171 		"/>
		<polygon fill="#71A565" points="561.022,418.777 547.616,411.386 561.022,403.994 574.429,410.747 		"/>
		<polygon fill="#60A24F" points="547.616,411.386 547.616,426.171 561.021,433.563 561.022,418.777 		"/>
	</g>
	<g display="none">
		<polygon display="inline" fill="#89C87C" points="548.011,429.111 548.012,422.154 554.319,418.377 554.319,425.633 		"/>
		<polygon display="inline" fill="#71A565" points="548.012,422.154 541.704,418.676 548.012,415.199 554.319,418.377 		"/>
		<polygon display="inline" fill="#60A24F" points="541.704,418.676 541.704,425.633 548.011,429.111 548.012,422.154 		"/>
	</g>
	<g display="none">
		<polygon display="inline" fill="#89C87C" points="570.929,434.628 570.929,428.03 576.911,424.447 576.911,431.329 		"/>
		<polygon display="inline" fill="#71A565" points="570.929,428.03 564.946,424.731 570.929,421.434 576.911,424.447 		"/>
		<polygon display="inline" fill="#60A24F" points="564.946,424.731 564.946,431.329 570.929,434.628 570.929,428.03 		"/>
	</g>
</g>
<g>
	<g display="none">
		<polygon display="inline" fill="#89C87C" points="554.877,419.312 554.878,412.714 560.86,409.131 560.86,416.013 		"/>
		<polygon display="inline" fill="#71A565" points="554.878,412.714 548.896,409.415 554.878,406.117 560.86,409.131 		"/>
		<polygon display="inline" fill="#60A24F" points="548.896,409.415 548.896,416.013 554.877,419.312 554.878,412.714 		"/>
	</g>
	<g>
		<polygon fill="#89C87C" points="541.979,430.4 541.979,415.614 555.386,407.585 555.386,423.008 		"/>
		<polygon fill="#71A565" points="541.979,415.614 528.573,408.222 541.979,400.831 555.386,407.585 		"/>
		<polygon fill="#60A24F" points="528.573,408.222 528.573,423.008 541.979,430.4 541.979,415.614 		"/>
	</g>
	<g display="none">
		<polygon display="inline" fill="#89C87C" points="528.968,425.948 528.969,418.991 535.276,415.214 535.276,422.47 		"/>
		<polygon display="inline" fill="#71A565" points="528.969,418.991 522.661,415.513 528.969,412.036 535.276,415.214 		"/>
		<polygon display="inline" fill="#60A24F" points="522.661,415.513 522.661,422.47 528.968,425.948 528.969,418.991 		"/>
	</g>
	<g display="none">
		<polygon display="inline" fill="#89C87C" points="551.886,431.465 551.886,424.867 557.868,421.284 557.868,428.166 		"/>
		<polygon display="inline" fill="#71A565" points="551.886,424.867 545.903,421.568 551.886,418.271 557.868,421.284 		"/>
		<polygon display="inline" fill="#60A24F" points="545.903,421.568 545.903,428.166 551.886,431.465 551.886,424.867 		"/>
	</g>
</g>
<g>
	<g>
		<polygon fill="#89C87C" points="554.1,447.591 554.101,432.805 567.507,424.774 567.507,440.198 		"/>
		<polygon fill="#71A565" points="554.101,432.805 540.694,425.413 554.101,418.021 567.507,424.774 		"/>
		<polygon fill="#60A24F" points="540.694,425.413 540.694,440.198 554.1,447.591 554.101,432.805 		"/>
	</g>
</g>
</svg>
